<svg xmlns="http://www.w3.org/2000/svg"><symbol viewBox="-620 447.6 42 42" id="symbol-github"><title>GitHub</title><path d="M-616.1 461c-1.9 2.5-2.9 5.3-2.9 8.4 0 2.3.3 4.4.9 6.2s1.4 3.3 2.5 4.5 2.5 2.2 4.1 3 3.5 1.3 5.5 1.7 4.3.5 6.9.5c3.2 0 6-.3 8.4-.8s4.5-1.5 6.2-2.7 3.1-2.9 4-4.9 1.3-4.5 1.3-7.4c0-3.2-1-6-2.9-8.4.7-3.7.5-6.8-.4-9.1-3.2.2-6 1.4-8.7 3.5-2.5-.7-5.2-1-8-1s-5.4.3-7.9 1c-2.7-2.1-5.7-3.3-8.8-3.5-.7 2.3-.9 5.3-.2 9zm17.1 21.8c-9.8 0-14.7-2.8-14.7-8.3 0-1.1.2-2.1.5-3s.8-1.6 1.3-2.1 1.1-.9 1.8-1.2 1.3-.5 1.9-.7 1.2-.2 1.7-.2c.6 0 1.6.1 2.8.2s2.8.2 4.7.2 3.4-.1 4.7-.2 2.2-.2 2.8-.2c.6 0 1.1.1 1.7.2s1.2.3 1.9.7 1.3.7 1.8 1.2 1 1.2 1.3 2.1.5 1.9.5 3c0 5.5-4.9 8.3-14.7 8.3zm6.2-11.7c-1.4 0-2.1 1.2-2.1 3.8s.7 3.8 2.1 3.8 2.1-1.2 2.1-3.8-.7-3.8-2.1-3.8zm-12.4 0c-1.4 0-2.1 1.2-2.1 3.8s.7 3.8 2.1 3.8 2.1-1.2 2.1-3.8-.8-3.8-2.1-3.8z"/></symbol><symbol viewBox="-620 447.4 42 42" id="symbol-googleplus"><title>Google+</title><path d="M-585.7 457.8v-6.7h-1.7v6.7h-6.7v1.7h6.7v6.7h1.7v-6.7h6.7v-1.7h-6.7zm-17.8 12c-.6-.7-.9-1.2-.9-1.7 0-.6.1-1.1.4-1.4s.8-.9 1.6-1.6c2-1.5 2.9-3.3 2.9-5.4 0-1.4-.3-2.6-.9-3.8s-1.4-1.9-2.5-2.3h3.3l2.4-1.7h-10.5c-1.5 0-3 .3-4.4 1s-2.5 1.6-3.4 2.8-1.3 2.5-1.3 3.8c0 2.1.7 4 2.2 5.4s3.4 2.2 5.7 2.2h1c-.3.6-.5 1.3-.5 2 0 1 .5 2 1.4 2.9h-1.8c-2.8 0-5.2.8-7.3 2.3s-3 3.3-3 5.3c0 1.2.5 2.3 1.5 3.3s2.3 1.7 3.9 2.2 3.4.7 5.3.7c1.6 0 3.1-.2 4.4-.6s2.4-1 3.3-1.7 1.5-1.5 2-2.4.7-1.8.7-2.8c0-1.5-.3-2.8-.8-3.8s-1.5-2-2.8-3c-.6-.5-1.3-1.1-1.9-1.7zm-7.4-5.7c-1.1-1.3-1.8-2.8-2-4.6-.2-1.8 0-3.2.8-4.4s1.9-1.8 3.2-1.7c1.4 0 2.6.7 3.7 1.9s1.8 2.8 2 4.5c.2 1.8 0 3.3-.8 4.5s-1.9 1.8-3.2 1.8c-1.4 0-2.6-.7-3.7-2zm-2.3 18.3c-1.3-1.1-2-2.4-2-4 0-1 .4-1.9 1.1-2.7s1.6-1.5 2.8-2 2.4-.7 3.7-.7c1 .1 1.8.2 2.6.4.2.1.5.3 1 .7s.8.6 1 .7.4.3.7.6.6.5.7.7.3.4.4.7.3.5.4.8c.1.5.1.9.1 1.1 0 1.7-.6 3-1.8 4s-3.1 1.5-5.8 1.5c-2-.1-3.6-.7-4.9-1.8z"/></symbol><symbol viewBox="-619 448.6 40 40" id="symbol-instagram"><title>Instagram</title><path d="M-613.2 448.6c-1.6 0-3 .6-4.1 1.7s-1.7 2.5-1.7 4.1v28.3c0 1.6.6 3 1.7 4.1s2.5 1.7 4.1 1.7h28.3c1.6 0 3-.6 4.1-1.7s1.7-2.5 1.7-4.1v-28.3c0-1.6-.6-3-1.7-4.1s-2.5-1.7-4.1-1.7h-28.3zm-1.6 10v-5c0-.2.1-.4.2-.6s.4-.2.6-.2h5c.2 0 .4.1.6.2s.2.4.2.6v5c0 .2-.1.4-.2.6s-.4.2-.6.2h-5c-.2 0-.4-.1-.6-.2s-.2-.4-.2-.6zm15.8 2.5c2.1 0 3.8.7 5.3 2.2s2.2 3.2 2.2 5.3-.7 3.8-2.2 5.3-3.2 2.2-5.3 2.2-3.8-.7-5.3-2.2-2.2-3.2-2.2-5.3.7-3.8 2.2-5.3 3.2-2.2 5.3-2.2zm-15.8 22.5v-17.5h4.4c-.2.8-.3 1.6-.3 2.5 0 2.1.5 4.1 1.6 5.8s2.5 3.2 4.2 4.2 3.7 1.6 5.8 1.6 4.1-.5 5.8-1.6 3.2-2.5 4.2-4.2 1.6-3.7 1.6-5.8c0-.9-.1-1.7-.3-2.5h4.4v17.5c0 .2-.1.4-.2.6s-.4.2-.6.2h-30c-.2 0-.4-.1-.6-.2s0-.4 0-.6z"/></symbol><symbol viewBox="-620 447.6 42 42" id="symbol-lastfm"><title>Last.fm</title><path d="M-597.7 465.4c-.3-.8-.6-1.6-1-2.4s-.8-1.5-1.2-2-.9-1-1.5-1.5-1.2-.9-1.9-1.1-1.5-.5-2.4-.6-1.9-.2-3-.2c-1.4 0-2.8.2-4 .6s-2.3 1.1-3.3 2-1.7 2.1-2.3 3.6-.8 3.3-.8 5.3c0 1.6.2 3.1.6 4.3s.9 2.3 1.5 3.1 1.4 1.4 2.3 1.9 1.8.9 2.7 1.1 1.9.3 3 .3c.9 0 1.8-.1 2.7-.3s1.6-.4 2.1-.6 1.1-.4 1.5-.7.8-.5.9-.6l.3-.3-1.5-4-.3.3c-.2.2-.4.4-.8.7s-.8.5-1.2.8-1 .5-1.7.7-1.4.3-2.1.3c-1.4 0-2.6-.7-3.6-2s-1.5-3.2-1.5-5.5.5-4.1 1.5-5.5 2.4-2 4.1-2c.5 0 1 0 1.4.1l1.2.3s.7.3 1 .6.6.5.8.7.4.5.7 1 .4.8.6 1.1.3.7.5 1.2.3 1 .4 1.3.3.8.5 1.4.4 1.1.5 1.5c0 .1.1.2.1.4.2.5.3.9.4 1.2s.3.8.5 1.3.4 1 .7 1.3.5.8.9 1.3.7.9 1.2 1.2.9.7 1.5 1 1.2.6 1.8.8 1.4.4 2.3.5 1.8.2 2.7.2c1.8 0 3.4-.1 4.7-.4s2.3-.7 3.1-1.3 1.3-1.2 1.7-2 .5-1.6.5-2.6-.1-1.8-.4-2.6-.6-1.3-1.1-1.8-1-.8-1.5-1.1-1.2-.6-1.8-.7-1.3-.3-1.9-.4-1.2-.3-1.8-.4-1.1-.3-1.5-.5-.8-.5-1.1-.9-.4-.8-.4-1.4c0-.8.3-1.4.9-1.8s1.4-.7 2.4-.7c1.1 0 2 .2 2.5.7s.9 1.1 1 2.1l4.6-.5c-.4-3.9-3-5.8-7.9-5.8-2.4 0-4.4.5-5.9 1.6s-2.2 2.7-2.2 5c0 .9.1 1.7.4 2.4s.6 1.2 1.1 1.7 1 .8 1.5 1.1 1.2.5 1.8.7 1.3.3 1.9.5 1.2.3 1.8.4 1.1.3 1.5.6.8.5 1.1.9.4.8.4 1.4c0 1.7-1.6 2.5-4.8 2.5-.8 0-1.5-.1-2.1-.2s-1.2-.3-1.7-.6-.9-.6-1.3-.9-.8-.8-1-1.2-.6-.9-.8-1.5-.5-1.1-.7-1.7-.4-1.1-.6-1.8c-.6-1.2-.9-2.1-1.2-2.9z"/></symbol><symbol viewBox="-620 448 42 42" id="symbol-linkedin"><title>LinkedIn</title><path d="M-610.4 450.7c-.9-.9-2.1-1.3-3.6-1.3s-2.7.4-3.6 1.3-1.4 2-1.4 3.3c0 1.3.5 2.4 1.4 3.3s2.1 1.3 3.5 1.3h.1c1.5 0 2.7-.4 3.7-1.3s1.4-2 1.4-3.3c-.1-1.3-.6-2.4-1.5-3.3zm-7.8 37.9h8.3v-25.8h-8.3v25.8zm23-18.7c.9-.9 2-1.3 3.3-1.3 1.3 0 2.4.5 3.3 1.4s1.3 2.4 1.3 4.4v14.2h8.3v-15c0-3.7-.9-6.5-2.8-8.6s-4.3-3.1-7.2-3.1c-1.6 0-3 .4-4.3 1.2s-2.3 1.9-3.2 3.2l-.3-3.6h-8.2c0 .6 0 2.5.1 5.8v20h8.3v-15c.1-1.5.5-2.7 1.4-3.6z"/></symbol><symbol viewBox="-620 447.6 42 42" id="symbol-pinboard"><title>Pinboard</title><path d="M-618.8 487.2c-.1.2-.2.4-.2.6 0 .2.1.4.2.6.2.2.4.2.6.2.2 0 .4-.1.5-.2l16.4-13.4 7.5 7.5c.2.2.4.2.6.2.1 0 .3 0 .4-.1.4-.2.5-.6.4-1l-2.2-6.2 12.2-14.3 1 1c.2.3.6.4 1 .4s.7-.1 1-.4.4-.6.4-1-.1-.7-.4-1l-11.2-11.2c-.3-.3-.6-.4-1-.4s-.7.1-1 .4-.4.6-.4 1 .1.7.4 1l1 1-14.3 12.2-6.2-2.2c-.4-.1-.8 0-1 .4-.2.4-.2.7.1 1l7.5 7.5-13.3 16.4z"/></symbol><symbol viewBox="-620 447.6 42 42" id="symbol-pinterest"><title>Pinterest</title><path d="M-604 449.5c-1.8.6-3.4 1.3-4.6 2.3-1.3 1-2.3 2.1-3.2 3.3s-1.6 2.5-2 3.9-.6 2.7-.6 4c0 2.1.4 3.9 1.2 5.4.8 1.6 2 2.7 3.5 3.3.3.1.5.1.7 0 .2-.1.3-.3.4-.6.3-1 .4-1.6.5-1.8.1-.3.1-.5 0-.6s-.2-.3-.4-.6c-1-1.2-1.5-2.8-1.5-4.6 0-1.4.3-2.8.8-4.2.5-1.3 1.3-2.5 2.2-3.5s2.2-1.8 3.6-2.4 3-.9 4.7-.9c3 0 5.3.8 7 2.5s2.5 3.8 2.5 6.4c0 2.2-.3 4.2-.9 6.1-.6 1.8-1.5 3.3-2.6 4.5s-2.4 1.7-3.8 1.7c-1.2 0-2.2-.4-3-1.3-.7-.9-1-1.9-.7-3.1.2-.7.4-1.6.8-2.8s.7-2.2.9-3.1c.2-.9.3-1.6.3-2.2 0-1-.3-1.8-.8-2.5-.5-.6-1.3-1-2.3-1-1.2 0-2.3.6-3.1 1.7-.8 1.1-1.3 2.5-1.3 4.2 0 1.4.2 2.7.7 3.7l-2.9 12.5c-.1.6-.2 1.2-.3 1.9-.1.7-.1 1.3-.1 1.9v1.8c0 .6.1 1.1.1 1.5s.1.8.1 1.1c0 .4.1.5.1.5 0 .1.1.2.2.2s.2 0 .3-.1c.2-.3.6-.7 1-1.3.4-.6 1-1.5 1.7-2.7.7-1.2 1.2-2.4 1.5-3.5.2-.7.7-2.8 1.6-6.3.4.8 1.2 1.4 2.2 2 1.1.5 2.2.8 3.4.8 2.4 0 4.6-.7 6.4-2.1 1.9-1.4 3.3-3.2 4.4-5.6 1-2.4 1.5-5.1 1.5-8.1 0-1.7-.4-3.3-1.1-4.9s-1.7-3-2.9-4.2c-1.2-1.2-2.8-2.2-4.6-2.9-1.8-.7-3.8-1.1-6-1.1-1.8-.1-3.8.2-5.6.8z"/></symbol><symbol viewBox="-619.7 450.3 42 42" id="symbol-soundcloud"><title>Soundcloud</title><path d="M-600.7 462.5v18.3c0 .2.1.3.2.5s.3.2.4.2h15.9c1.6 0 3-.6 4.1-1.7s1.7-2.5 1.7-4.1-.6-3-1.7-4.1-2.5-1.7-4.1-1.7c-.8 0-1.5.1-2.2.4-.1-1.7-.7-3.3-1.6-4.7s-2.2-2.6-3.7-3.4-3.1-1.3-4.9-1.3c-1 0-2.2.3-3.6.8-.3.2-.4.4-.5.8zm-3 15.3c.2-1.2.2-2.1.2-2.6 0-.6-.1-2.3-.3-5.2s-.4-4.8-.6-5.9c0-.2-.1-.3-.3-.5s-.3-.2-.5-.2-.4.1-.5.2-.3.3-.3.5c-.2 1.1-.4 3.1-.6 5.9s-.3 4.5-.3 5.2c0 .5.1 1.4.2 2.6s.4 2.3.6 3.2c.1.2.2.4.3.5s.4.2.6.2c.2 0 .4-.1.6-.2s.3-.3.3-.5c.3-1 .5-2 .6-3.2zm-6 .1c.2-1.3.2-2.2.2-2.6 0-.5-.1-1.7-.3-3.5s-.4-3.2-.6-4.3c-.1-.2-.2-.4-.3-.5s-.3-.2-.5-.2-.4.1-.5.2-.3.3-.3.5c-.2 1.1-.4 2.5-.6 4.3s-.3 2.9-.3 3.5c0 .4.1 1.3.3 2.6s.4 2.3.5 2.9c.2.5.5.8 1 .8s.8-.3 1-.8c0-.6.2-1.6.4-2.9zm-9.1-4c-.2.8-.2 1.4-.2 1.7s.1.9.2 1.7.4 1.6.6 2.3c.1.4.4.6.9.6s.8-.2.9-.6c.2-.7.4-1.4.6-2.3s.2-1.4.2-1.7-.1-.9-.2-1.7-.4-1.6-.6-2.3c-.1-.4-.4-.7-.9-.7s-.8.2-.9.7c-.2.7-.4 1.4-.6 2.3z"/></symbol><symbol viewBox="-620 453 42 42" id="symbol-spotify"><title>Spotify</title><path d="M-606.8 455.6c-2.5 1.1-4.6 2.5-6.4 4.3s-3.2 3.9-4.3 6.4-1.6 5.1-1.6 7.8.5 5.3 1.6 7.8 2.5 4.6 4.3 6.4 3.9 3.2 6.4 4.3 5.1 1.6 7.8 1.6 5.3-.5 7.8-1.6 4.6-2.5 6.4-4.3 3.2-3.9 4.3-6.4 1.6-5.1 1.6-7.8-.5-5.3-1.6-7.8-2.5-4.6-4.3-6.4-3.9-3.2-6.4-4.3-5.1-1.6-7.8-1.6-5.3.5-7.8 1.6zm19.7 16.2c-3.9-2.3-8.9-3.4-15-3.4-2.8 0-5.5.4-8.2 1.1-.2.1-.4.1-.6.1-.5 0-.9-.2-1.3-.6s-.5-.8-.5-1.3c0-.4.1-.8.4-1.1s.6-.6 1-.7c2.8-.8 5.9-1.2 9.2-1.2 7 0 12.6 1.3 17 3.9.6.3.9.9.9 1.6 0 .5-.2 1-.6 1.3s-.8.5-1.3.5-.8-.1-1-.2zm0 4.8c0 .5-.1.8-.4 1.1s-.7.4-1.1.4c-.3 0-.5-.1-.8-.2-3.7-2.2-8-3.3-13-3.3-2.5 0-4.8.3-6.9 1-.2.1-.4.1-.5.1-.4 0-.8-.2-1.1-.5s-.5-.7-.5-1.1c0-.3.1-.6.3-.9s.5-.5.8-.5c2.4-.8 5.1-1.2 7.9-1.2 5.5 0 10.4 1.3 14.6 3.8.4.3.7.7.7 1.3zm-2.5 5.7c0 .3-.1.6-.4.8s-.5.3-.9.3c-.2 0-.5-.1-.7-.2-2.9-1.8-6.3-2.7-10.1-2.8-2.3 0-4.8.2-7.5.8h-.3c-.3 0-.6-.1-.9-.4s-.4-.5-.4-.9c0-.3.1-.5.3-.8s.4-.4.7-.4c2.9-.6 5.4-.9 7.6-.9 4.5 0 8.5 1 11.9 3.1.5.5.7.9.7 1.4z"/></symbol><symbol viewBox="0 0 42 42" id="symbol-strava"><title>Strava</title><path d="M25.6 37.5l-7.2-14.1h4.3l2.9 5.7 2.9-5.7h4.2l-7.1 14.1M18.9 15.8l3.8 7.6h5.7L18.8 4.5 9.3 23.4H15"/></symbol><symbol viewBox="-277 399.6 42 42" id="symbol-twitter"><title>Twitter</title><path d="M-236 408c-1.5.7-3.1 1.1-4.8 1.6 1.8-1.1 3-2.6 3.6-4.6-1.6 1-3.3 1.6-5.2 2-1.7-1.7-3.7-2.6-6-2.6s-4.2.8-5.8 2.4-2.4 3.5-2.4 5.8c0 .8.1 1.4.2 1.9-3.3-.2-6.4-1.1-9.4-2.5s-5.4-3.4-7.5-5.9c-.7 1.3-1.1 2.7-1.1 4 0 1.4.3 2.7 1 3.9s1.6 2.1 2.7 2.9c-1.3 0-2.5-.4-3.7-1v.1c0 2 .7 3.7 1.9 5.2s2.8 2.4 4.7 2.8c-.7.2-1.4.3-2.2.3-.4 0-1-.1-1.5-.2.5 1.7 1.4 3.1 2.9 4.1s3 1.6 4.8 1.6c-1.4 1.2-3 2.1-4.8 2.8s-3.6 1.1-5.4 1.1c-.8 0-1.4 0-2-.1 3.5 2.2 7.7 3.3 12.6 3.3 2.4 0 4.7-.3 6.9-1s4.1-1.5 5.8-2.7 3.3-2.5 4.6-4 2.4-3.1 3.3-4.9 1.5-3.6 2-5.4.7-3.7.7-5.5v-1.1c1.6-1.2 3-2.6 4.1-4.3z"/></symbol><symbol viewBox="0 0 250 127.6" id="symbol-economist"><title>The Economist</title><path d="M-.017 63.803V.003h250v127.6h-250v-63.8zm53.9 27.8c1.2-.4 2.7-1.4 3.6-2.4l.7-.8-.4-.8-.4-.8-.8.8c-1.6 1.5-3.8 2.2-5.5 1.8-2.8-.8-4.3-4.2-4.3-9.8 0-5.6 1.6-8.3 4.9-8.3 2 0 2.9.9 3.5 3.6.2 1 .3 1.2.8 1.1.3-.1.7-.1 1-.1.5 0 .5-.1.5-2.7v-2.6l-1.6-.4c-2.5-.6-5.3-.7-7.1-.2-4.7 1.2-7.3 5.2-7.3 11 0 4.9 1.9 8.6 5.2 10.2 2.3 1 5 1.2 7.2.4zm22.6 0c1.7-.5 2.8-1.1 4-2.1 2.8-2.6 4-6.7 3.3-10.9-1-5.6-5-9.1-10.6-9.1-6.4 0-10.5 4.4-10.4 11.3 0 5.2 2.3 9 6.5 10.6 2 .8 4.7.9 7.2.2zm-4.8-1.7c-2.3-1.4-3.5-4.9-3.5-10.5 0-3.6.4-5.3 1.5-6.7 2.2-2.7 6-1.5 7.6 2.3.9 2 1.2 3.9 1.2 6.8 0 4.3-.9 7-2.8 8-1.2.8-2.8.8-4 .1zm59.3 1.8c2.4-.5 5-2.4 6.2-4.5 1.3-2.3 1.9-5.7 1.5-8.4-.9-5.4-4.6-8.9-9.8-9.2-3.6-.2-6.4.8-8.4 2.9-1.9 2-2.9 4.9-2.9 8.4 0 7.9 5.7 12.5 13.4 10.8zm-4.3-1.7c-2.4-1.2-3.7-5-3.7-10.7 0-4.1.6-6.1 2.4-7.4.9-.7 2.8-.8 3.9-.2 2.6 1.3 4.1 4.9 4.1 10 0 4.1-.8 6.8-2.6 8-1 .8-2.8.9-4.1.3zm84.9 1.5c1.6-.6 3.3-2.3 3.9-3.8.4-1.2.5-3.3.1-4.3-.6-1.7-2.1-3.1-6.5-6.1-.9-.6-1.9-1.5-2.2-1.9-.5-.9-.6-2.3-.1-3 .7-1 2.5-1.5 3.9-1.2 1 .3 1.5.8 2 2.5.3.8.5 1.1.7 1.1.2 0 .7 0 1.1-.1h.8v-2c0-1.4-.1-2.1-.3-2.3-.2-.2-1.3-.5-2.4-.7-6.3-1.2-9.9 1.1-9.9 6.2 0 2.8 1 4.2 5 7 3.4 2.3 4.6 4 3.8 5.5-.6 1.1-1.4 1.5-3.1 1.5-1.3 0-1.6-.1-2.1-.6-.3-.3-.8-1.2-1.1-1.9-.6-1.4-1-1.7-2.3-1.3-.5.1-.5.2-.5 2.2 0 1.4.1 2.1.3 2.3.2.1.9.4 1.7.6 3.1 1.1 5 1.1 7.2.3zm21-.2c1.2-.5 1.3-.6 1.4-1.3.1-.6 0-.7-.3-.6-.2.1-1 .2-1.7.3-1.7.1-2.7-.3-3.3-1.6-.4-.8-.4-1.4-.5-8.1l-.1-7.2h4.8l.1-.6c.1-.4.2-.9.3-1.2l.1-.6h-5.4V64.703h-2.2l-.1.9c-.2 1.3-1.3 3.4-2.1 4.1-.7.6-1.9 1.1-2.9 1.1-.5 0-.5.1-.5 1.1v1.1h2.6l.1 7.2c.1 7.7.2 8.5 1.4 10 .3.4 1.1 1 1.7 1.3 1.1.6 1.3.6 3.2.5 1.4-.2 2.5-.3 3.4-.7zm-198.1.3l.8-.1.4-3c.2-1.7.4-3.3.5-3.6.1-.6.1-.6-.9-.6s-1 0-1 .6c0 1.1-.7 2.7-1.5 3.4-1 .9-2 1.1-5 1.1-3.9 0-3.6.5-3.7-6.8l-.1-5.9 3 .1c4 .1 4.5.4 5 2.9.1.8.2.8.9.8h.7v-9.8h-.7c-.7 0-.7 0-1 1.4-.1.8-.4 1.6-.7 1.8-.7.7-3.2 1-6 .7l-1.2-.1v-11.2h2.7c1.5 0 3.1.1 3.6.3 1.1.3 1.8 1.3 2 2.8l.2 1.1.8-.1.8-.1v-6.4h-19.9v.6c0 .5.1.6 1.3.8 2.8.5 2.7-.1 2.7 14.1 0 12.9 0 13-1.3 13.6-.3.2-1.1.4-1.7.5-.9.1-1.1.2-1.1.7v.5l7.1-.1c3.8 0 8.2.1 9.7.1s3.1 0 3.6-.1zm65.5-.3c0-.5-.3-.7-1.2-1.1-1.3-.5-1.4-.9-1.4-7.7 0-6.5.1-7.1 1.3-8.5.9-1.1 1.9-1.5 3.3-1.5 3.1 0 3.8 2.2 3.6 11.4-.1 5.7-.2 6.1-1.8 6.5-.6.2-.8.3-.8.7v.5h11.2l-.1-.5c-.1-.4-.3-.5-1-.7-1.3-.2-2-.7-2.1-1.6-.1-.4-.2-3.7-.2-7.3 0-5.4-.1-6.7-.4-7.6-.5-1.6-1.5-2.8-2.9-3.6-1.1-.6-1.4-.7-3.3-.7-2.6 0-3.6.4-5.6 2.2l-1.3 1.3v-1.1c0-.6-.1-1.4-.1-1.9l-.1-.8-1.4.3c-1.1.2-5.5.7-6.4.8-.1 0-.2.3-.2.6 0 .5.1.6.7.6 1.3 0 2.2.5 2.4 1.5.3 1.2.3 15.1-.1 16.1-.3.9-1 1.3-2.2 1.3-.7 0-.8.1-.8.6v.6h5.6c4.1-.1 5.3-.2 5.3-.4zm54.9-.2c-.1-.3-.3-.6-1-.8-.5-.2-1.1-.5-1.2-.8-.2-.3-.3-2.3-.3-6.7-.1-6-.1-6.3.4-7.4.9-2.1 2.6-3.1 4.7-2.8 1.2.2 1.9.9 2.4 2.4.3 1 .4 2.2.4 7.7 0 4.7-.1 6.6-.3 6.9-.2.3-.7.6-1.2.8-.7.2-1 .5-1 .8l-.1.5h10.2v-.5c0-.4-.1-.6-.8-.7-1.6-.3-1.6-.3-1.6-7.6l-.1-6.6.6-1.2c.7-1.5 1.9-2.3 3.5-2.5 1.6-.1 2.5.3 3.1 1.7.5 1 .5 1.3.5 8.1 0 6.6 0 7.1-.4 7.5-.2.3-.8.5-1.2.6-.6.1-.7.2-.7.7v.5h11l-.1-.5c-.1-.4-.3-.6-1-.6-1.2-.2-1.9-.7-2.2-1.7-.1-.5-.2-3.5-.2-7.2 0-6.9-.1-7.7-1.3-9.5-.4-.7-1-1.2-1.8-1.7-1.1-.6-1.4-.7-3.2-.7-1.7 0-2.2.1-3.3.6-.7.3-1.9 1.2-2.6 1.9l-1.3 1.3-.8-1.3c-.5-.9-1.1-1.5-1.9-1.9-1-.6-1.3-.6-3.2-.6-2.5 0-3.6.4-5.6 2.3l-1.3 1.2v-1.4c0-.8-.1-1.6-.1-1.9-.1-.5-.2-.5-1.5-.2-1.1.2-5.5.8-6.4.8-.1 0-.2.3-.2.6 0 .5.1.6.6.6 1.2 0 2.1.5 2.4 1.2.5 1.1.4 15.3 0 16.4-.4.8-1 1.2-2.2 1.2-.7 0-.8.1-.8.6v.6h11.2l-.1-.7zm42.6.1c-.1-.2-.1-.4-.1-.5 0-.1-.5-.2-1-.3-1.6-.2-1.9-.7-2.1-3-.1-1.1-.2-5.6-.2-10v-8l-1.6.3c-.9.2-2.8.4-4.2.5-1.4.1-2.6.3-2.6.3-.3.3.3 1 .7 1 .9 0 1.9.5 2.2 1.1.4.8.7 9.2.4 13.5-.2 3.6-.4 4-2.1 4.2-1 .1-1.3.4-1.3.9 0 .2 1.3.3 6 .3 5.4.1 6 0 5.9-.3zm-4.8-26.2c2.2-1.2 2-4.6-.4-5.4-3.3-1.1-5.4 3.5-2.4 5.3.8.5 1.9.6 2.8.1zm-39.2-11.5c1.2-.3 2.6-1.1 3.8-2.3 1.3-1.2 1.5-1.5 1.1-2.2l-.3-.6-1.1 1c-2.6 2.5-5.9 2.8-8 .8-1.3-1.2-2.4-4.3-2.4-6.7v-.9h12.2l-.2-1.6c-.2-2-.6-3.1-1.6-4.6-1.5-2.2-3.6-3.1-6.9-2.9-4.1.2-7.2 3.1-8.1 7.6-.4 2-.4 3.8 0 5.6.4 1.9 1.1 3 2.4 4.4 2.3 2.5 5.5 3.3 9.1 2.4zm-6.9-13.4c.4-2.1.8-3.3 1.7-4.1.8-.8.9-.8 2.1-.8.9 0 1.4.1 2 .5.9.6 1.9 2.4 2.1 3.9l.1.9-.8.1c-.5.1-2.3.2-4 .3l-3.2.1v-.9zm-35.9 12.7c0-.6-.1-.6-.8-.6-1.1 0-1.9-.4-2.3-1.3-.4-.7-.4-1.8-.4-12.1v-11.3l2.5.2c1.4.1 2.9.3 3.3.5 1 .4 1.5 1.4 1.5 2.7 0 .9 0 .9.8.9h.8v-6.2h-23.4v1.6c0 .9-.1 2.3-.1 3.1l-.1 1.5.9-.1c.9-.1.9-.1 1-1.2.1-.6.2-1.3.4-1.6.4-.7 1.7-1.1 4.6-1.3l2.6-.2v11.5c0 12.9 0 12.6-1.5 13-.5.1-1.1.3-1.4.3-.4 0-.6.2-.6.6l-.1.6h12.4v-.6zm16 .1c0-.4-.2-.5-.7-.6-.4-.1-.9-.4-1.1-.7-.4-.5-.4-.9-.4-6.3 0-4.7.1-5.9.3-6.6.7-1.7 2-2.5 3.7-2.5 2.1 0 2.7.9 3.1 4.3.3 2.7.1 10-.2 10.9-.2.4-.5.7-1.1.8-.7.2-.9.3-.9.7v.5h10v-.5c0-.3-.1-.5-.4-.5-.2 0-.7-.1-1.2-.2-1.3-.4-1.4-.7-1.5-8-.1-6.3-.1-6.6-.6-7.6-.6-1.3-1.9-2.4-3.1-2.8-.5-.1-1.5-.3-2.3-.3-1.7 0-3.6.8-4.9 2.1l-.8.8v-11.8l-.5.1c-1.4.3-3.2.5-5.1.7-1.3.1-2.2.3-2.2.4 0 .5.3.7 1.2.9 1.1.2 1.6.7 1.8 2 .1.5.1 5.7.1 11.6-.1 12.2 0 11.7-1.8 12-.9.1-1.4.6-1.2 1 0 .1 2.3.1 5 .1h4.9l-.1-.5z"/> </symbol><symbol viewBox="0 0 480.6 205.5" id="symbol-home-office"><title>Home Office</title><path d="M0 0h6.9v204H0V0z"/><path d="M75.5 9.3v4.1c2.1.1 3.6.5 4.4.7-.4-2.4-2.1-4.2-4.4-4.8M73 6.4c0 1.4-.3 2.3-.7 2.9 0 0 .7-.2 1.6-.2.6 0 1.5.2 1.6.2-.4-.6-.7-1.5-.7-2.9 3.1 0 3.8 1.4 3.8 2.6h.6V2h-.6c0 1.2-.8 2.6-3.8 2.6 0-3.1 1.4-3.8 2.6-3.8V.2h-7v.6c1.2 0 2.6.8 2.6 3.8-3.1 0-3.8-1.4-3.8-2.6h-.6v7h.6c0-1.2.7-2.6 3.8-2.6m-.7 2.9c-2.2.6-3.9 2.5-4.4 4.8.8-.2 2.3-.6 4.4-.7V9.3zm3.8 101.5c0 1.4 1.2 2.6 2.6 2.6s2.6-1.2 2.6-2.6-1.2-2.6-2.6-2.6c-1.5.1-2.6 1.2-2.6 2.6m1.3 0c0-.7.6-1.3 1.3-1.3.7 0 1.3.6 1.3 1.3s-.6 1.3-1.3 1.3c-.8 0-1.3-.5-1.3-1.3m-6-33.9c0-1.3-1-2.3-2.3-2.3h-13c-1.1 0-2 .9-2 2 0 .8.6 1.4 1.4 1.4.8 0 1.4-.6 1.4-1.5.3.3.6.5 1 .7-.2.8-.4 1.9-.5 3.2-.2-.3-.5-.4-.8-.4-.5 0-1 .4-1 1 0 .5.4 1 1 1 .3 0 .6-.2.8-.4 0 .7 0 1.4.1 2.2-.2-.1-.4-.2-.6-.2-.5 0-1 .4-1 1 0 .5.4 1 1 1 .3 0 .7-.2.8-.5 0 .1 0 .2.1.3.2.6.4 1.2.6 1.7-.1-.1-.3-.1-.5-.1-.5 0-1 .4-1 1 0 .5.4 1 1 1 .5 0 .9-.4 1-.8.3.6.7 1.2 1.2 1.8h-.2c-.5 0-1 .4-1 1s.4 1 1 1c.5 0 1-.4 1-1v-.1c1.5 1.5 3.4 2.8 5.7 3.7l-.4 3s.9.4 2.3.8 2.7.6 2.7.6l.2-22.1zm-11.8 1.2s.1 0 .2.1l7.1 14.4c-8.8-4-7.9-11.2-7.3-14.5m7.5 13.4l-6.5-13.1c.4.1.8.1 1.2.1l5.6 11.3-.3 1.7zm.4-2.9l-5-10.2c.4 0 .7-.1 1-.2l4.2 8.6-.2 1.8zm.4-2.9l-3.8-7.6c.3-.1.6-.2.9-.4l3.1 6.2-.2 1.8zm.4-2.9l-2.7-5.4c.3-.2.6-.4.8-.6l2.1 4.2-.2 1.8zm.7-5l-.3 2.2-1.7-3.5c.2-.1.4-.1.6-.1.8-.1 1.5.6 1.4 1.4M62.8 19c0-.8.7-1.5 1.5-1.5s1.5.7 1.5 1.5c0 .9-.7 1.5-1.5 1.5-.8.1-1.5-.6-1.5-1.5M42.9 29.6c0-.8.7-1.5 1.5-1.5.9 0 1.5.7 1.5 1.5 0 .9-.7 1.5-1.5 1.5s-1.5-.7-1.5-1.5m-.8-3.9c0-.9.7-1.5 1.5-1.5s1.5.7 1.5 1.5-.7 1.5-1.5 1.5c-.8.1-1.5-.6-1.5-1.5m.3-3.9c0-.8.7-1.5 1.5-1.5.9 0 1.5.7 1.5 1.5s-.7 1.5-1.5 1.5-1.5-.7-1.5-1.5m2.1-3.4c0-.8.7-1.5 1.5-1.5.9 0 1.5.7 1.5 1.5s-.7 1.5-1.5 1.5c-.8.1-1.5-.6-1.5-1.5m3.2-2.3c0-.8.7-1.5 1.5-1.5s1.5.7 1.5 1.5c0 .9-.7 1.5-1.5 1.5-.8.1-1.5-.6-1.5-1.5m3.9-.7c0-.8.7-1.5 1.5-1.5.9 0 1.5.7 1.5 1.5s-.7 1.5-1.5 1.5c-.8.1-1.5-.6-1.5-1.5m3.8.8c0-.8.7-1.5 1.5-1.5.9 0 1.5.7 1.5 1.5s-.7 1.5-1.5 1.5c-.8.1-1.5-.6-1.5-1.5m3.7 1.5c0-.8.7-1.5 1.5-1.5.9 0 1.5.7 1.5 1.5 0 .9-.7 1.5-1.5 1.5s-1.5-.7-1.5-1.5M85 19c0-.8-.7-1.5-1.5-1.5S82 18.2 82 19c0 .9.7 1.5 1.5 1.5.8.1 1.5-.6 1.5-1.5m19.9 10.6c0-.8-.7-1.5-1.5-1.5-.9 0-1.5.7-1.5 1.5 0 .9.7 1.5 1.5 1.5s1.5-.7 1.5-1.5m.8-3.9c0-.9-.7-1.5-1.5-1.5s-1.5.7-1.5 1.5.7 1.5 1.5 1.5c.8.1 1.5-.6 1.5-1.5m-.4-3.9c0-.8-.7-1.5-1.5-1.5-.9 0-1.5.7-1.5 1.5s.7 1.5 1.5 1.5c.9 0 1.5-.7 1.5-1.5m-2-3.4c0-.8-.7-1.5-1.5-1.5s-1.5.7-1.5 1.5.7 1.5 1.5 1.5c.8.1 1.5-.6 1.5-1.5m-3.2-2.3c0-.8-.7-1.5-1.5-1.5-.9 0-1.5.7-1.5 1.5 0 .9.7 1.5 1.5 1.5.8.1 1.5-.6 1.5-1.5m-3.9-.7c0-.8-.7-1.5-1.5-1.5-.9 0-1.5.7-1.5 1.5s.7 1.5 1.5 1.5c.8.1 1.5-.6 1.5-1.5m-3.9.8c0-.8-.7-1.5-1.5-1.5-.9 0-1.5.7-1.5 1.5s.7 1.5 1.5 1.5c.9.1 1.5-.6 1.5-1.5m-3.7 1.5c0-.8-.7-1.5-1.5-1.5s-1.5.7-1.5 1.5c0 .9.7 1.5 1.5 1.5.9 0 1.5-.7 1.5-1.5m-1.5 23.4c0-.9-.8-1.7-1.7-1.7-.9 0-1.7.8-1.7 1.7s.8 1.7 1.7 1.7 1.7-.8 1.7-1.7M76 51.3v19.4h17.2V51.3H76zm16.7 18.9H76.5V51.9h16.1l.1 18.3z"/><path d="M78.2 52.5h-1v17H92v-17H78.2zM91 53v.5h.5v15H91v.5H78.2v-.5h-.5v-15h.5V53H91z"/><path d="M90.3 57.4l-.8.8s-.1 0-.1.1l-1.5 1.4c-.5.4-.6 1.1-.2 1.6l.9 1.2c.1.1.1.2.1.4 0 .1-.1.3-.2.3-.1.1-.2.1-.4.1-.1 0-.3-.1-.3-.2 0 0-.9-1.2-1.3-1.8v-1.7l2.1-2v-1.7l-.7-.7.9-.9h-3.7l-.9.9v1c.1-.1.3-.1.4-.1.4 0 .8.4.8.8s-.4.8-.8.8c-.1 0-.3 0-.4-.1v1.2h-1.3l-1.5-2.1c.2-.2.3-.5.3-.8 0-.6-.5-1-1-1-.2 0-.4.1-.6.2v1.7h.1l1.4 2 .7 1H84l-.9.9h-1.8c-.1-.4-.5-.6-.9-.6s-.8.3-.9.6c0 .1-.1.2-.1.4s.1.5.2.6h4.1l.7 1h-2.8l1.1 1.5.6.8h-1.4c-.1-.4-.5-.7-1-.7-.4 0-.8.3-1 .7v.3c0 .3.1.5.3.7h5.1l-.7-1-.6-.8h1.6l.6.8.7 1h2.4v1.1H89c-.1-.4-.5-.7-1-.7s-.8.3-1 .7v.3c0 .3.1.5.3.7h3v-3.2h-2l-1-1.3c.2.2.4.4.7.4.3 0 .6 0 .9-.2s.4-.5.5-.8c0-.3 0-.6-.2-.9l-.9-1.2c-.2-.2-.1-.6.1-.7l.4-.4c.4.3.9.3 1.3 0 .2-.2.3-.4.3-.7l-.1-1.7zM71.6 41.1l2.3-2.3 2.3 2.3-2.3 2.3m-13.2-2.3c0-.9.8-1.7 1.7-1.7.9 0 1.7.8 1.7 1.7s-.8 1.7-1.7 1.7c-.9 0-1.7-.8-1.7-1.7M92 84.7v-.5c0-.7-.5-1.2-1.2-1.2h-4.3c0-.5-.5-1-1-1-.3 0-.5.1-.7.3l-1.3 1.3h7.3c.3 0 .5.2.5.5s-.2.5-.5.5h-8.5v-1.2l1.5-1.5h-5.9l1.5 1.5v2.2L77 83.7c.2-.2.3-.5.3-.8 0-.6-.5-1-1-1-.2 0-.5.1-.7.2v1.8l3.7 3-1.7.5c-.1-.4-.5-.7-1-.7-.6 0-1 .5-1 1 0 .2.1.5.2.6h2.1l9.2-2.9v1.4l-1.2.5c-.1-.5-.5-.8-1-.8-.6 0-1 .5-1 1 0 .2.1.5.2.6h2.3l1.4-.7.9-.4-.4-.9v-.2h3.4c0 .1-.1.3-.1.4-.1.2-.2.5-.3.7-.2-.2-.5-.3-.8-.3-.6 0-1 .5-1 1 0 .2.1.5.2.6h2.1c.3-.6.5-1.3.6-1.7.3-.9.5-1.7.5-2 .1.1-.9.1-.9.1m-11.1.1l-1-1h2l-1 1zm11.2-7.5c.1-.2.1-.3.1-.5 0-.7-.5-1.2-1.2-1.2h-4.5c0-.5-.5-1-1-1-.3 0-.5.1-.7.3l-1.3 1.3h7.6c.3 0 .5.2.5.5s-.2.5-.5.5h-8.8V76l1.5-1.5h-5.9l1.5 1.5v2.2L77 76.3c.2-.2.3-.5.3-.7 0-.6-.5-1-1-1-.2 0-.5.1-.7.2v1.8l3.6 2.9-1.7.5c-.1-.4-.5-.7-1-.7-.6 0-1 .5-1 1 0 .2.1.5.2.7h2.1l9.2-2.9v1.5l-1.2.4c-.1-.4-.5-.7-1-.7-.6 0-1 .5-1 1 0 .2.1.5.2.7h2.3l2.3-.7 1.1-.4-.9-.8-.6-.6h4.1v1.1c-.2-.2-.5-.4-.8-.4-.6 0-1 .5-1 1 0 .2.1.5.2.7h2.6v-3.7l-1.2.1zm-11.2.1l-1-1h2l-1 1zm7.4 12.9h-1.8c0-.5-.5-1-1-1-.3 0-.5.1-.7.3l-1.3 1.3h4.9c.3 0 .5.2.5.5s-.2.5-.5.5h-5.9v-1l1.5-1.5h-5.9l1.5 1.5v2.5l-2.4-2.2c.2-.2.4-.5.4-.8 0-.6-.5-1-1-1-.2 0-.5.1-.7.2v1.7l3.8 3.5.2-.2-2.4 2.9c-.2-.2-.5-.2-.7-.2-.6.1-1 .6-.9 1.1 0 .2.1.4.2.6.4 0 .9-.1 1.7-.2l2.7-3.2c.4-.1.7-.3 1.1-.4l1.1 1-.6.3c-.3-.2-.7-.3-1-.2-.5.2-.8.8-.6 1.3.1.2.2.3.3.4 0 0 .4-.1.8-.3s.8-.3.8-.3c.5-.2.9-.4 1.3-.6v-2.7c.7-.4 1.3-.8 1.8-1.3l1 .9c-.2.2-.4.3-.7.5-.3-.2-.7-.2-1 0-.2.1-.4.4-.5.6v.4c0 .1.1.3.1.4.1.2.3.3.5.4.5-.3.9-.6 1.4-.9.3-.2.7-.5 1-.8l.3-.3v-1.3h.7c.7 0 1.2-.5 1.2-1.2 0-.6-.5-1.2-1.2-1.2zm-7.4 1.9l-1-1h2l-1 1zM70.7 67.6c.1-.2.1-.3.1-.5 0-.7-.5-1.2-1.2-1.2h-4.5c0-.5-.5-1-1-1-.3 0-.5.1-.7.3l-1.3 1.3h7.6c.3 0 .5.2.5.5s-.2.5-.5.5H61v-1.2l1.5-1.5h-5.9l1.5 1.5v2.2l-2.4-1.9c.2-.2.3-.5.3-.7 0-.6-.5-1-1-1-.3 0-.5.1-.7.2v1.8l3.6 2.9-1.7.5c-.1-.4-.5-.7-1-.7-.6 0-1 .5-1 1 0 .3.1.5.2.7h2.1l9.2-2.9v1.5l-1.2.4c-.1-.4-.5-.7-1-.7-.6 0-1 .5-1 1 0 .3.1.5.2.7h2.1l2.3-.7 1.1-.3-.9-.8-.6-.6h4.1V70c-.2-.2-.5-.4-.8-.4-.6 0-1 .5-1 1 0 .3.1.5.2.7h2.6v-3.7h-1.1zm-11.3.1l-1-1h2l-1 1zm11.3-7.2c.1-.2.1-.3.1-.5 0-.7-.5-1.2-1.2-1.2h-4.5c0-.5-.5-1-1-1-.3 0-.5.1-.7.3l-1.3 1.3h7.5c.3 0 .5.2.5.5s-.2.5-.5.5h-8.7v-1.2l1.5-1.5h-5.9l1.5 1.5v2.2l-2.4-1.9c.2-.2.3-.5.3-.7 0-.6-.5-1-1-1-.3 0-.5.1-.7.2v1.8l3.6 2.9-1.7.5c-.1-.4-.5-.7-1-.7-.6 0-1 .5-1 1 0 .2.1.5.2.7h2.1l9.2-2.9v1.5l-1.2.4c-.1-.4-.5-.7-1-.7-.6 0-1 .5-1 1 0 .2.1.5.2.7h2.2l2.3-.7 1.1-.4-.9-.8-.6-.6h4.1v1.1c-.2-.2-.5-.4-.8-.4-.6 0-1 .5-1 1 0 .2.1.5.2.7h2.6v-3.8h-1.1v.2zm-11.3.1l-1-1h2l-1 1zm11.3-7.3c.1-.2.1-.3.1-.5 0-.7-.5-1.2-1.2-1.2h-4.5c0-.5-.5-1-1-1-.3 0-.5.1-.7.3l-1.3 1.3h7.5c.3 0 .5.2.5.5s-.2.5-.5.5h-8.7V52l1.5-1.5h-5.9L58 52v2.2l-2.4-1.9c.2-.2.3-.5.3-.7 0-.6-.5-1-1-1-.3 0-.5.1-.7.2v1.8l3.6 2.9-1.7.5c-.1-.4-.5-.7-1-.7-.6 0-1 .5-1 1 0 .3.1.5.2.7h2.1l9.2-2.9v1.5l-1.2.4c-.1-.4-.5-.7-1-.7-.6 0-1 .5-1 1 0 .3.1.5.2.7h2.1l2.3-.7 1.1-.3-.9-.8-.6-.6h4.1v1.1c-.2-.2-.5-.4-.8-.4-.6 0-1 .5-1 1 0 .3.1.5.2.7h2.6v-3.8l-1 .1zm-11.3.2l-1-1h2l-1 1zM102 71.6c.7-.2 1-.9.8-1.5-.1-.3-.3-.6-.6-.7-.3-.2-.6-.2-.9-.1-.3.1-.6.3-.7.6-.2.3-.2.6-.1.9.2.6.9.9 1.5.8m-3.5 2.7l.2 1.1 4-.6c.1 0 4 2 4 2l-.2-1.4-2.8-1.4c.2-.2 2.3-2.1 2.3-2.1l-.2-1.4-.1.1s-3.1 2.9-3.2 3c0 .1-4 .7-4 .7m3.1 3.9c0 .3.1.6.4.9.2.2.5.4.9.3.3 0 .6-.1.9-.4.2-.2.3-.5.3-.9 0-.3-.1-.6-.4-.9-.2-.2-.5-.4-.9-.4-.7.1-1.2.7-1.2 1.4m-2.8 2l-.1 1.1s3.1.4 3.3.5c0 .1-.1.9-.1.9v.5c0 .5.1 1 .4 1.4s.8.7 1.5.8c1.4.2 2.4-.5 2.6-1.9l.3-2.2-7.9-1.1zm6.4 2c0 .1-.1 1.1-.1 1.1-.1 1-.9 1-1.2.9-.6-.1-1-.5-1-1V83s.1-.8.1-1c.2-.1 2.1.1 2.2.2m-7.1 2.5l-1.3 3.8 1.1.4s.9-2.7.9-2.8c.1.1 1.9.6 2.1.7-.1.2-.9 2.6-.9 2.6l1.1.4s.8-2.5.9-2.6c.1.1 1.9.6 2 .7-.1.2-.9 2.7-.9 2.7l1.1.4 1.3-3.8-7.4-2.5zm-1.5 4.5l-.5.8s4.4 2.8 4.8 3.1c-.5 0-7.1.6-7.1.6l-.5.8 6.6 4.2.6-.9s-4.4-2.8-4.8-3.1c.5 0 7.2-.7 7.2-.7l.5-.8-6.8-4zM94 98.6c-.8.1-1.5.3-2-.2-.2-.2-.4-.8.1-1.3s1.2-.6 2-.5h.3l-1.2-1.2c-.8.1-1.4.3-1.9.9-.4.4-.6.9-.6 1.4 0 .6.2 1.1.7 1.6 1 1 2.1.8 3.1.6.7-.2 1.3-.3 1.8.1.1.2.2.3.2.5 0 .3-.1.5-.4.8-.4.4-.9.6-1.6.5h-.2l1.1 1.1c.6-.1 1.1-.3 1.5-.7.5-.5.7-1 .7-1.5s-.2-1.1-.7-1.5c-.9-1-2-.8-2.9-.6m-4.8-.4l-3.3 2.2.6 1s2.3-1.6 2.5-1.7c.1.1 1.1 1.7 1.2 1.8-.1.1-2.3 1.6-2.3 1.6l.6 1s2.2-1.5 2.3-1.5c.1.1 1.1 1.6 1.2 1.8-.1.1-2.4 1.6-2.4 1.6l.6 1 3.3-2.2-4.3-6.6zm-28.9 5.2c-.1-.1-3-1.9-3.1-2 .1-.1 1.8-2.8 1.8-2.8l-1-.6v.1l-4.1 6.5 1 .6s1.7-2.7 1.8-2.8c.1.1 3 1.9 3.1 2-.1.1-1.8 2.8-1.8 2.8l1 .6 4.2-6.6-1-.6c-.1 0-1.8 2.6-1.9 2.8m-4-5.8c.1-1-.3-1.9-.9-2.6-1.7-1.9-4-1.5-5.5-.2-.9.8-1.4 1.8-1.4 2.8-.1 1 .3 1.9 1 2.7 1.4 1.6 3.8 1.7 5.5.2.7-.8 1.2-1.8 1.3-2.9m-1.2 0c0 .7-.4 1.5-1 2-1.2 1.1-2.8 1.1-3.8-.1-.5-.5-.7-1.2-.6-1.8 0-.7.4-1.4 1-2 .6-.5 1.4-.8 2.1-.8.7 0 1.3.3 1.7.8.4.6.6 1.2.6 1.9m-2.9-6.5s-4.8 2.2-5.2 2.4c.2-.4 3.3-6.5 3.3-6.5l-.4-.9h-.1l-7 3.3.5 1s4.8-2.2 5.2-2.4c-.2.4-3.3 6.5-3.3 6.5l.4.8 7-3.3-.4-.9zM49.6 84l-.1.1-7.5 1.8.3 1.2 7.5-1.9M46 81.5c-.3-.2-.6-.3-.9-.2-.3 0-.6.2-.8.5s-.3.6-.2.9c0 .3.2.6.5.8s.6.3.9.2c.7-.1 1.1-.7 1-1.4-.1-.4-.3-.6-.5-.8m-.5-3c.5-.7.9-1.3 1.6-1.3.2 0 .4.1.6.3.2.2.3.5.3.8 0 .6-.4 1.2-1.1 1.7l-.2.2h1.7c.5-.6.7-1.2.7-2 0-.5-.2-1-.5-1.4-.4-.4-1-.6-1.6-.6-1.4 0-2 .9-2.6 1.8-.4.6-.7 1.2-1.3 1.2-.2 0-.4-.1-.5-.2-.2-.2-.3-.5-.3-.8 0-.5.3-1.1.8-1.5l.2-.1h-1.5c-.4.5-.6 1-.6 1.6 0 .7.2 1.2.6 1.6.4.4.9.6 1.5.6 1-.2 1.6-1.1 2.2-1.9m-.5-3.3c1.1.3 2.2.1 3.1-.4.8-.5 1.4-1.3 1.6-2.3.2-1 .1-2-.4-2.8-.5-.9-1.5-1.6-2.6-1.8-2.2-.6-4.3.6-4.8 2.7-.1.3-.1.6-.1.9 0 .7.2 1.3.5 1.8.7 1 1.6 1.7 2.7 1.9m-1.8-4.3c.2-.7.6-1.2 1.1-1.6.6-.4 1.4-.5 2.2-.3s1.5.7 1.8 1.3.4 1.2.3 1.9c-.4 1.4-1.8 2.2-3.4 1.8-1.5-.3-2.4-1.6-2-3.1"/><path d="M109.8 78.5c0-9.6-3.7-18.6-10.5-25.4-.8-.8-1.6-1.5-2.5-2.3v-1.4c1.4-.1 2.6-1.3 2.6-2.7 0-1.5-1.2-2.7-2.7-2.7h-.2l2.6-1.2-1-2.2 3.9-9.1-1.7-.7-4 9.3-2.1 1 1.4 3H52.2l1.4-3-2.2-1-4-9.3-1.7.7 3.9 9.1-1 2.2 2.6 1.2h-.1c-1.5 0-2.7 1.2-2.7 2.7 0 1.4 1.1 2.6 2.5 2.7v1.4c-.8.7-1.7 1.5-2.5 2.3-6.8 6.8-10.5 15.8-10.5 25.4 0 7.4 2.2 14.5 6.5 20.6 4.2 5.9 9.9 10.4 16.7 12.9 0 0 .4.1 1 .4.1 1 .7 1.9 1.6 2.2 1 .4 2.1 0 2.7-.7h.1v10.2c0 3.8 3.2 6.8 7.2 6.8s7.2-3.1 7.2-6.8v-6.8l17.6-8.4c.6-.2 1.1-.5 1.6-.9 1.4-1.3 1.6-3.3.7-5.9 1.6-1.8 3-3.7 4.1-5.8 3.2-5.4 4.9-11.5 4.9-17.8M91.1 45.7l5.2 1.1-5.2 1.1v-2.2zm-16.7 54.6v-27H95v5.1c0 5-.9 8.4-2.2 10.9-1.1 1.8-2.4 3.5-4 5l-.3.3c-3.8 3.6-8.9 5.6-14.1 5.7m6.2.9c-.4.9-.7 1.9-.9 3-2-.7-3.9-1.4-5.8-2.1 2.3.1 4.6-.3 6.7-.9m-6.2-28.8V49.5H95v22.9H74.4zm7.2-26.7l5.2 1.1-5.2 1.1v-2.2zm-9.6 0l5.2 1.1-5.2 1.1v-2.2zm-9.7 0l5.2 1.1-5.2 1.1v-2.2zm-9.4 0l5.2 1.1-5.2 1.1v-2.2zm0 21.8v-18h20.6v22.9H52.9v-4.9zm0 5.8h20.6v27c-4.2-.1-8.3-1.4-11.8-3.8-.1-.1-.3-.2-.4-.3l-.1-.1c-.1-.1-.2-.1-.3-.2-.1-.1-.2-.2-.3-.2l-.1-.1c-2.2-1.7-4.1-3.9-5.5-6.4-1.3-2.5-2.1-5.9-2.1-10.8v-5.1zm9.8 37.4c-.3-.1-.6-.2-.8-.3-6.4-2.4-11.9-6.7-15.8-12.3-4-5.7-6.2-12.5-6.2-19.6 0-9.1 3.5-17.6 10-24.1.4-.4.8-.8 1.2-1.1v9.3c-1.4-1-3-2-3.1-2.1.1-.1 1.3-2 1.3-2l-1-.6v.1l-3.2 4.8 1 .6s1.2-1.8 1.3-2c.1.1 2.2 1.4 3.7 2.5v3.3l-6.6-3v.1l-.5 1 7.1 3.3v4c-.5 1.9-.8 3.9-.8 6 0 4.3 1.2 8.3 3.2 11.8 1.3 2.5 3 4.2 4.6 5.7.7.6 1.4 1.2 2.2 1.8.1 0 .1.1.2.1.1.1.2.1.3.2.1.1.2.1.3.2l.1.1c.6.4 1.2.8 1.9 1.1.9.4 2.1 1 3.5 1.6l-1.5 3.7-.7-.3c-.4-.2-.9 0-1.1.4s0 .9.4 1.1l.7.3-1.7 4.3zm16.6 13.5c0 .7-.2 1.4-.5 2-.3.5-.8.8-1.3.8-.7 0-1.3-.4-1.5-1.1 0-.1-.1-.4-.2-.9.2.1.4.1.6.1.9 0 1.6-.7 1.6-1.5 0-.9-.7-1.5-1.6-1.5-.5 0-.9.2-1.2.5-.5-2-1-4.2-1-4.2h-.7s-.5 2.2-1 4.2c-.3-.3-.7-.5-1.1-.5-.9 0-1.5.7-1.5 1.5 0 .9.7 1.5 1.5 1.5.2 0 .4 0 .6-.1-.1.4-.2.8-.2.9-.2.6-.8 1.1-1.5 1.1-.6 0-1.1-.3-1.4-.8-.3-.6-.4-1.3-.4-2v-9.6c3.2 1 7.2 2.2 10.9 3l-.1 6.6zm.8-8.4c-5.6-1.2-12.1-3.3-15.9-4.6.4-.9 1-2.5 1.7-4.2l1 .4v.2c0 1.4 1.2 2.6 2.6 2.6s2.6-1.2 2.6-2.6c0-1.4-1.2-2.6-2.6-2.6-.8 0-1.4.3-1.9.9l-1.1-.5c.6-1.5 1.1-2.9 1.5-3.7 3.8 1.6 8.7 3.5 13.4 5 5 1.5 9 2.4 12 2.7-5.3 2.6-12.9 6.2-13.3 6.4m18.9-9.2c-.5.5-1.7 1-4.2 1 1.7-1.2 3.2-2.5 4.6-4 .4 1.4.3 2.4-.4 3m-7.1.8c-2.4-.3-5.7-1.1-10-2.4-.2-.1-.4-.1-.6-.2.4-2.5 1.2-4.1 2.6-4.9 2.2-1 4.2-2.4 6-4.1 1.6-1.4 3.2-3.1 4.4-5.5 2-3.5 3.2-7.6 3.2-11.9 0-2-.3-4.1-.8-6v-3.8l1.1 2.8 1.1-.4s-1.1-2.7-1.1-2.8c.2-.1 6.2-2.5 6.2-2.5l-.4-1.1h-.1l-6.7 2.7v-.5l4.5-6.4-.4-.7h-.1l-4 .9v-7.5c.4.4.8.7 1.2 1.1 6.4 6.4 10 15 10 24.1 0 5.9-1.5 11.8-4.5 16.9-2.8 5.1-6.8 9.2-11.6 12.2m5.3-42.9l-.4.6v-1.2l.4.6m-.3-2.6c.2 0 2.2-.5 2.5-.6-.2.3-1.4 2-1.5 2.1-.1-.1-.9-1.3-1-1.5"/><path d="M100.7 20.9c-1.4-2.1-3.7-3-5.4-3-2.4 0-4.9 1-7.3 2-2.7 1.1-5.5 2.2-8.3 2 .3-1 .7-2 1.2-2.8l-1.7-.8c.3-.6.6-1.3.7-2.1-.2-.1-2.5-.9-6.2-.9s-5.8.8-6 .9c.1.8.3 1.5.7 2.1l-1.7.8c.5.8.9 1.8 1.2 2.8-2.8.3-5.6-.9-8.3-2-2.4-1-4.9-2-7.3-2-1.7 0-4 .9-5.4 3-1.1 1.7-2 4.9.4 10v-.1l3.5-1.5.2.6c-1.1.5-2.2 1.8-.9 4.8 3-1.3 3.1-3 2.6-4.1l.6-.2 1.5 3.4 1.5 3.4-.6.2c-.5-1.1-1.8-2.2-4.8-.9 1.3 3 3.6 4.2 5.4 4.2 3.1 0 5.3-1.9 5-3.8-.2-1.4-1.5-1.9-2-1.8-.6.1-1 .8-.9 1.2 0 .1.1.2.1.3l-.1.1c-.8-.1-1.5-.7-1.7-1.5-.2-1 .5-2 1.5-2.2.6-.1 1.2.1 1.7.5l.2-.3c-.6-.3-1-.8-1.1-1.5-.3-1.6 1.5-3.2 1.6-3.2 0 0 2.3.8 2.6 2.4.1.7-.1 1.3-.5 1.8l.3.2c.2-.5.7-1 1.4-1.1 1-.2 2 .5 2.2 1.5.2.8-.3 1.7-1 2l-.1-.1v-.3c-.1-.5-.7-.9-1.3-.8-.5.1-1.5 1-1.2 2.4.5 2.4 2.5 4.1 4.9 4.1s5-2 5-5c-3.5 0-4.3 1.6-4.3 3h-.7v-8h.7c0 1.3.9 3 4.3 3 0-3.5-1.6-4.3-3-4.3v-.7h7.9v.7c-1.3 0-3 .9-3 4.3 3.5 0 4.3-1.6 4.3-3h.7v8h-.5c0-1.3-.9-3-4.3-3 0 3 2.5 5 5 5 2.4 0 4.5-1.7 4.9-4.1.3-1.4-.7-2.4-1.2-2.4-.6-.1-1.2.3-1.3.8v.3l-.1.1c-.7-.4-1.2-1.2-1-2 .2-1 1.2-1.7 2.2-1.5.6.1 1.1.5 1.4 1.1l.3-.2c-.4-.5-.6-1.1-.5-1.8.3-1.6 2.6-2.4 2.6-2.4s1.9 1.6 1.6 3.2c-.1.7-.6 1.2-1.1 1.5l.2.3c.4-.4 1-.6 1.7-.5 1 .2 1.7 1.2 1.5 2.2-.2.9-.9 1.5-1.7 1.5l-.1-.1c.1-.1.1-.2.1-.3.1-.5-.3-1.1-.9-1.2-.5-.1-1.8.4-2 1.8-.3 1.9 2 3.8 5 3.8 1.8 0 4.1-1.2 5.4-4.2-3-1.3-4.3-.2-4.8.9l-.6-.2 1.5-3.4 1.5-3.4.6.2c-.5 1.1-.4 2.8 2.6 4.1 1.3-3 .2-4.3-.9-4.8l.2-.6 3.5 1.5v.1c2.1-5.2 1.2-8.3.1-10m-32.1 4.4c-1.7 0-3.1.9-3.9 2.3-.9-1.6-2.9-2.6-4.8-2.2-1.4.3-2.6 1.3-3.1 2.5-.8-1.3-2.2-2.1-3.8-2.1-2 0-3.7 1.3-4.3 3.1-1.1-2.9-1.1-5.3 0-7s3-2.2 3.8-2.2c2.1 0 4.3.9 6.6 1.8 3 1.2 6.1 2.5 9.5 2 .1.6.2 1.1.3 1.7-.1.1-.2.1-.3.1m5.3-9.3c.9 0 1.7.7 1.8 1.6-.5-.4-1.1-.7-1.8-.7s-1.3.3-1.8.7c.1-.9.9-1.6 1.8-1.6m0 1.7c.9 0 1.7.7 1.8 1.6-.5-.4-1.1-.7-1.8-.7s-1.3.3-1.8.7c.1-.9.9-1.6 1.8-1.6m0 10.1c-1 0-1.8-.8-1.8-1.8s.8-1.8 1.8-1.8 1.8.8 1.8 1.8-.8 1.8-1.8 1.8m1.7-3.9c-.5-.4-1.1-.6-1.7-.6-.7 0-1.2.2-1.7.6-.1-.2-.1-.4-.1-.6 0-1 .8-1.8 1.8-1.8s1.8.8 1.8 1.8c0 .2 0 .4-.1.6m.1-2.5c-.5-.4-1.1-.7-1.8-.7s-1.3.3-1.8.7v-.1c0-1 .8-1.8 1.8-1.8s1.8.8 1.8 1.8v.1m23.4 7.5c-.6-1.8-2.3-3.1-4.3-3.1-1.6 0-3 .8-3.8 2.1-.6-1.2-1.7-2.2-3.1-2.5-2-.4-3.9.5-4.8 2.2-.8-1.3-2.2-2.3-3.9-2.3h-.3c.1-.5.2-1.1.3-1.7 3.4.5 6.5-.8 9.5-2 2.3-.9 4.5-1.8 6.6-1.8.8 0 2.7.5 3.8 2.2 1.1 1.6 1.1 4 0 6.9M84.6 50.8h-.7l.4.8h.4l-.1.3.1-.2h.1l.1-.1.4-.8m-9 .7l-.1.1v.3l-.7-.1v-.5l-.5-.9.1-.1.9.5h.5v.7l-.2-.1"/><path d="M76.8 51.3c-.1 0-.2-.1-.2-.2s.1-.2.2-.2.1 0 .2.1h.1v-.2c0-.3-.2-.5-.5-.5s-.5.2-.5.5.2.5.5.5h.2m-.8.8c0-.1-.1-.2-.2-.2s-.2.1-.2.2 0 .1.1.2v.1h-.2c-.3 0-.5-.2-.5-.5s.2-.5.5-.5.5.2.5.5v.2m.3 18.5l-.1-.1v-.3l-.7.1v.4l-.5.9.1.2.9-.6h.5v-.7l-.2.1"/><path d="M76.8 70.7c-.1 0-.2.1-.2.2s.1.2.2.2.1 0 .2-.1h.1v.2c0 .3-.2.5-.5.5s-.5-.2-.5-.5.2-.5.5-.5h.2M76 70c0 .1-.1.2-.2.2s-.2-.1-.2-.2 0-.1.1-.2v-.1h-.2c-.3 0-.5.2-.5.5s.2.5.5.5.5-.2.5-.5V70m16.9.6l.1-.1v-.3l.7.1v.4l.5.9-.1.2-.9-.6h-.5v-.7l.2.1"/><path d="M92.4 70.7c.1 0 .2.1.2.2s-.1.2-.2.2-.1 0-.2-.1h-.1v.2c0 .3.2.5.5.5s.5-.2.5-.5-.2-.5-.5-.5h-.2m.8-.7c0 .1.1.2.2.2s.2-.1.2-.2 0-.1-.1-.2v-.1h.2c.3 0 .5.2.5.5s-.2.5-.5.5-.5-.2-.5-.5V70m-.3-18.5l.1.1v.3l.7-.1v-.5l.5-.9-.1-.1-.9.5h-.5v.7l.2-.1"/><path d="M92.4 51.3c.1 0 .2-.1.2-.2s-.1-.2-.2-.2-.1 0-.2.1h-.1v-.2c0-.3.2-.5.5-.5s.5.2.5.5-.2.5-.5.5h-.2m.8.8c0-.1.1-.2.2-.2s.2.1.2.2 0 .1-.1.2v.1h.2c.3 0 .5-.2.5-.5s-.2-.5-.5-.5-.5.2-.5.5v.2zm-9.4.6h1.5v.6h-1.5v-.6zm.9 1.3h-.2l-.3-.6h.8"/><path d="M85.7 53.3l-.1.1c-.1 0-.2-.1-.2-.2s.1-.2.2-.2h-.2c-.2 0-.4.2-.4.4s.2.4.4.4.4-.2.4-.4c-.1 0-.1 0-.1-.1zm-2.2 0l.1.1c.1 0 .2-.1.2-.2s-.1-.2-.2-.2h.2c.2 0 .4.2.4.4s-.2.4-.4.4-.4-.2-.4-.4c.1 0 .1 0 .1-.1zm1.1 18h.7l-.4-.8-.3-.1h-.1l.2-.2-.2.2h-.1l-.1.1-.4.8m0-2.7h1.5v.6h-1.5v-.6z"/><path d="M84.5 68h.2l.3.7h-.8l.3-.7zm-1 .8l.1-.1c.1 0 .2.1.2.2s-.1.2-.2.2h.2c.2 0 .4-.2.4-.4s-.2-.4-.4-.4-.4.2-.4.4c.1 0 .1 0 .1.1zm2.2 0l-.1-.1c-.1 0-.2.1-.2.2s.1.2.2.2h-.2c-.2 0-.4-.2-.4-.4s.2-.4.4-.4.4.2.4.4c-.1 0-.1 0-.1.1zm8-7.8v-.7l-.8.4v.4l-.2-.1.2.2h-.1l.1.1.8.4m-2.6-1.4h.6v1.5h-.6v-1.5zm-.6.8v-.2l.6-.3v.8m.4.6v-.1.1"/><path d="M91.3 62.1l-.1-.1c0-.1.1-.2.2-.2s.2.1.2.2v-.2c0-.2-.2-.4-.4-.4s-.4.2-.4.4.2.4.4.4l.1-.1zm0-2.1l-.1.1c0 .1.1.2.2.2s.2-.1.2-.2v.2c0 .2-.2.4-.4.4s-.4-.2-.4-.4.2-.4.4-.4l.1.1zm-15.8 1v-.7l.8.4v.4l.2-.1-.2.2h.1l-.1.1-.8.4m1.9-1.4h.6v1.5h-.6v-1.5zm1.3.8v-.2l-.6-.3v.8m-.4.6v-.1.1"/><path d="M78 62.1l.1-.1c0-.1-.1-.2-.2-.2s-.2.1-.2.2v-.2c0-.2.2-.4.4-.4s.4.2.4.4-.2.4-.4.4c0 0-.1 0-.1-.1zm0-2.1l.1.1c0 .1-.1.2-.2.2s-.2-.1-.2-.2v.2c0 .2.2.4.4.4s.4-.2.4-.4-.2-.4-.4-.4c0 0-.1 0-.1.1zm-29.1 85.8v25.1h30.8v-25.1h7.8v58.4h-7.8v-26.7H48.9v26.7h-7.8v-58.4h7.8zm48.2 28.6c.9-2.7 2.2-5 3.9-7 1.7-2 3.9-3.6 6.5-4.7s5.5-1.7 8.8-1.7c3.4 0 6.3.6 8.9 1.7 2.5 1.1 4.7 2.7 6.4 4.7s3.1 4.3 3.9 7c.9 2.7 1.3 5.6 1.3 8.7s-.4 6-1.3 8.7c-.9 2.7-2.2 5-3.9 7s-3.9 3.5-6.4 4.7c-2.5 1.1-5.5 1.7-8.9 1.7-3.3 0-6.3-.6-8.8-1.7-2.6-1.1-4.7-2.7-6.5-4.7-1.7-2-3.1-4.3-3.9-7-.9-2.7-1.3-5.6-1.3-8.7s.4-6 1.3-8.7zm7.1 15.5c.7 2 1.6 3.7 2.8 5 1.2 1.3 2.6 2.4 4.2 3.1s3.3 1.1 5.1 1.1 3.5-.4 5.1-1.1 3-1.7 4.2-3.1c1.2-1.3 2.1-3 2.8-5s1-4.3 1-6.8c0-2.6-.3-4.8-1-6.8s-1.6-3.7-2.8-5c-1.2-1.4-2.6-2.4-4.2-3.1s-3.3-1.1-5.1-1.1-3.5.4-5.1 1.1-3 1.7-4.2 3.1-2.1 3-2.8 5c-.7 2-1 4.3-1 6.8s.3 4.8 1 6.8zm46.4-28v6.2h.2c3.2-4.8 7.7-7.2 13.7-7.2 2.6 0 5 .5 7.1 1.6s3.6 2.9 4.5 5.6c1.4-2.3 3.3-4.1 5.6-5.3 2.3-1.3 4.9-1.9 7.6-1.9 2.1 0 4 .2 5.8.7 1.7.5 3.2 1.2 4.4 2.2s2.2 2.2 2.9 3.8c.7 1.6 1 3.4 1 5.6v31h-7v-27.7c0-1.3-.1-2.5-.3-3.7-.2-1.1-.6-2.1-1.2-3-.6-.8-1.4-1.5-2.5-2s-2.4-.7-4.1-.7c-3.4 0-6.1 1-8.1 2.9s-2.9 4.6-2.9 7.9v26.3h-7v-27.7c0-1.4-.1-2.6-.4-3.8-.2-1.1-.7-2.1-1.3-3-.6-.8-1.4-1.5-2.4-2s-2.3-.7-3.9-.7c-2 0-3.7.4-5.2 1.2-1.4.8-2.6 1.8-3.5 2.9s-1.6 2.3-2 3.6c-.4 1.2-.6 2.2-.6 3.1v26.3h-7v-42.2h6.6zm92.2 39.6c-3.2 2.4-7.1 3.6-11.9 3.6-3.4 0-6.3-.5-8.8-1.6s-4.6-2.6-6.3-4.6-3-4.3-3.8-7-1.3-5.7-1.4-8.9c0-3.2.5-6.2 1.5-8.8 1-2.7 2.4-5 4.1-7 1.8-2 3.9-3.5 6.3-4.6 2.4-1.1 5.1-1.6 8-1.6 3.8 0 6.9.8 9.4 2.3 2.5 1.6 4.5 3.5 6 5.9s2.5 5 3.1 7.9c.6 2.8.8 5.5.7 8.1H218c-.1 1.9.2 3.6.7 5.3.5 1.7 1.3 3.1 2.4 4.4 1.1 1.3 2.5 2.3 4.2 3.1 1.7.8 3.7 1.1 6 1.1 2.9 0 5.4-.7 7.2-2 1.9-1.4 3.1-3.4 3.7-6.2h6.9c-1.1 4.6-3.2 8.2-6.3 10.6zm-1.7-27.2c-.6-1.5-1.5-2.7-2.5-3.8-1.1-1.1-2.3-1.9-3.8-2.5-1.4-.6-3-.9-4.8-.9s-3.4.3-4.9.9c-1.4.6-2.7 1.5-3.7 2.6s-1.9 2.4-2.5 3.8-1 3-1.1 4.6h24.3c0-1.6-.4-3.2-1-4.7zm36.1-10.8c1.2-3.7 2.9-6.9 5.3-9.8 2.3-2.8 5.3-5.1 8.8-6.8 3.5-1.7 7.6-2.5 12.2-2.5s8.7.8 12.2 2.5 6.4 4 8.8 6.8c2.3 2.8 4.1 6.1 5.3 9.8 1.2 3.7 1.8 7.5 1.8 11.5s-.6 7.8-1.8 11.5c-1.2 3.7-2.9 6.9-5.3 9.8-2.3 2.8-5.3 5.1-8.8 6.7-3.5 1.7-7.6 2.5-12.2 2.5s-8.7-.8-12.2-2.5-6.4-3.9-8.8-6.7c-2.3-2.8-4.1-6.1-5.3-9.8-1.2-3.7-1.8-7.5-1.8-11.5s.6-7.8 1.8-11.5zm7.1 20.2c.8 2.9 2 5.4 3.6 7.7s3.7 4.1 6.3 5.5c2.6 1.4 5.6 2.1 9.2 2.1 3.5 0 6.6-.7 9.2-2.1s4.7-3.2 6.3-5.5 2.8-4.9 3.6-7.7c.8-2.9 1.1-5.8 1.1-8.7s-.4-5.8-1.1-8.7c-.8-2.9-2-5.4-3.6-7.7s-3.7-4.1-6.3-5.5c-2.6-1.4-5.6-2.1-9.2-2.1-3.5 0-6.6.7-9.2 2.1s-4.7 3.2-6.3 5.5-2.8 4.9-3.6 7.7c-.8 2.9-1.1 5.8-1.1 8.7s.4 5.8 1.1 8.7zm50.2-15.7v-6.1h7.1v-6.3c0-3.4 1-6 3-7.8s4.9-2.7 8.7-2.7c.7 0 1.4.1 2.2.2.8.1 1.6.3 2.2.5v6.1c-.6-.2-1.3-.4-2-.4-.7-.1-1.4-.1-2-.1-1.7 0-3 .3-3.9 1s-1.4 1.9-1.4 3.8v5.9h8.2v6.1h-8.2v36.2h-7v-36.2h-6.9v-.2z"/><path d="M356.2 168v-6.1h7.1v-6.3c0-3.4 1-6 3-7.8s4.9-2.7 8.7-2.7c.7 0 1.4.1 2.2.2.8.1 1.6.3 2.2.5v6.1c-.6-.2-1.3-.4-2-.4-.7-.1-1.4-.1-2-.1-1.7 0-3 .3-3.9 1s-1.4 1.9-1.4 3.8v5.9h8.2v6.1h-8v36.2h-7v-36.2h-7.1v-.2zm27.9-13.7v-8.5h7v8.5h-7zm7 7.6v42.3h-7v-42.3h7zm35 7.4c-1.7-1.5-4.1-2.2-7-2.2-2.5 0-4.6.5-6.3 1.4-1.7.9-3 2.2-4 3.7s-1.7 3.3-2.2 5.3c-.4 2-.7 4-.7 6.2 0 2 .2 3.9.7 5.7.5 1.9 1.2 3.5 2.2 4.9s2.3 2.6 3.8 3.5c1.6.9 3.5 1.3 5.6 1.3 3.4 0 6.1-.9 8.1-2.7 1.9-1.8 3.1-4.3 3.6-7.6h7.1c-.8 5.2-2.7 9.3-5.8 12.1-3.1 2.8-7.4 4.3-12.8 4.3-3.2 0-6.1-.5-8.5-1.6-2.5-1-4.6-2.5-6.2-4.4-1.7-1.9-2.9-4.2-3.8-6.8-.8-2.6-1.3-5.5-1.3-8.7s.4-6.1 1.2-8.9c.8-2.8 2.1-5.2 3.7-7.2 1.7-2 3.7-3.7 6.3-4.8 2.5-1.2 5.4-1.8 8.8-1.8 2.4 0 4.6.3 6.7.9s4 1.5 5.6 2.7 2.9 2.7 4 4.5c1 1.8 1.7 4 2 6.5h-7.2c-.7-2.8-1.8-4.9-3.6-6.3zm47.6 32.2c-3.2 2.4-7.1 3.6-11.9 3.6-3.4 0-6.3-.5-8.8-1.6s-4.6-2.6-6.3-4.6c-1.7-2-3-4.3-3.8-7s-1.3-5.7-1.4-8.9c0-3.2.5-6.2 1.5-8.8 1-2.7 2.4-5 4.1-7 1.8-2 3.9-3.5 6.3-4.6s5.1-1.6 8-1.6c3.8 0 6.9.8 9.4 2.3 2.5 1.6 4.5 3.5 6 5.9s2.5 5 3.1 7.9c.6 2.8.8 5.5.7 8.1h-31.7c-.1 1.9.2 3.6.7 5.3.5 1.7 1.3 3.1 2.4 4.4s2.5 2.3 4.2 3.1c1.7.8 3.7 1.1 6 1.1 2.9 0 5.4-.7 7.2-2 1.9-1.4 3.1-3.4 3.7-6.2h6.9c-1.1 4.6-3.1 8.2-6.3 10.6zm-1.6-27.2c-.6-1.5-1.5-2.7-2.5-3.8-1.1-1.1-2.3-1.9-3.8-2.5-1.4-.6-3-.9-4.8-.9s-3.4.3-4.9.9c-1.4.6-2.7 1.5-3.7 2.6s-1.9 2.4-2.5 3.8-1 3-1.1 4.6h24.3c0-1.6-.4-3.2-1-4.7z"/></symbol><symbol viewBox="0 0 288.9 53.3" id="symbol-jaeger"><title>Jaeger</title><path d="M59.2 36.1c.6 0 1.4-.1 1.9-.1 0-.2.6-1.1.4-1.1-.2-.1-1.5 0-1.8 0-.1 0-.4.5-.5 1.2m-4.5-1.3c-.2.4-.4.6-.6 1.1.7.1 1.6.1 2.1.1.1 0 .3-.5.5-1.1-.7 0-.9 0-2-.1m22-.3c-3.9.3-9.3.1-12.5.4-.3.7-.7 1.1-.3 1.1 3.3.1 9.2-.3 13.3-.2-.1-.7-.3-.7-.5-1.3m2.5-.3c-.1.6.6 1.2.7 1.5 0 0 1.2.1 1.6.1-.1-.5-.5-1.2-.7-1.6-.3 0-1.5-.1-1.6 0M84 36c.5-.1 1 .1 1.5 0-.4-.9-.6-1.3-1.2-2.2-.8.1-1-.1-1.5.1.5.9.7 1.3 1.2 2.1m-23.9-2.8c.2 0 2.1.2 2.1 0 .2-.4.2-.7.4-1.2-.3 0-1.8.1-2 0-.2.4-.3.4-.5 1.2M56 32c-.2.4-.3.5-.4.9.5.1 1.2.2 1.8.2.1 0 .2-.3.5-.9-.9-.2-1.2-.2-1.9-.2m21.8-.9c.1.5.6 1.2.6 1.2.7 0 .7 0 1.4-.2-.2-.5-.4-1.1-.7-1.3-.3.1-1.1.2-1.3.3M76 32.4s-.2-.3-.6-1.1c0-.1-7.9.3-9.6.3-.3 0-.6 0-.8 1 2.8.1 7.9.2 11-.2m5.3-1.6c.1.5.2.7.5 1.2.1.2 1.3.2 1.8 0-.3-.8-.4-1-.5-1.2-.2-.1-1.1 0-1.8 0M69.9 20.6c-.1.2-.5 1.2-.6 1.4-.3.7-.3.8-.5 1.3-.4.9-.7 1.9-.7 2-.1.2-.6 1.5-.7 1.6-.4.9-.7 1.5-1.2 2.6 2.8.1 5.4-.2 8.5-.2-.3-.8-.5-1.2-.7-1.8-.2-.5-.4-1.4-.6-2-.4-1.1-.6-1.9-1-2.9-.3-.9-1.2-3.6-1.4-4.5-.1 0-1 2.3-1.1 2.5m2.2-5.5c.4 1.5.9 2.8 1.4 4.3.9 2.8 2.5 6.9 3.3 9.3.1.4.3.7 1.7.4-.4-1.1-.7-1.6-1.1-2.7-.6-1.8-1.2-3.1-1.7-4.5-.5-1.5-1-2.9-1.6-4.4-.4-.9-.9-2.3-1.5-3.5.1 0-.4 1.1-.5 1.1m-3-1.7c-1.1 2.6-2.7 5.7-3.8 8.2-.2.5-1.2 2.7-1.5 3.2-1.2 2.4-1.9 4-2.5 5.3.7.1 1.2-.1 1.9 0 .6-.9 2.1-4.4 2.4-5 .6-1.3.7-1.6 1.2-2.7s.7-1.8 1.3-3.2c.4-1.1.7-1.6 1.2-3.1.2-.7.5-1 .4-1.1 0 .1-.5-1.7-.6-1.6m6 2c.8 2 .9 2.2 1.7 4 .1.3.7 1.8.9 2.4 1.1 2.7 1.9 4.7 2.8 7.3.8 0 1.3.1 1.8-.2-.4-1-1-2.4-1.6-3.4-.5-.9-.7-1.3-1-2.1-.3-.8-.7-1.4-.9-2-.9-2.2-2-4.7-2.8-6.7-.5-1.2-.7-2.4-1.5-3.7 0-.1-.3.9-.4.9 0 .3.5 2.4 1 3.5m-4.4-4.7c-.1.4.2 1.1.4 1.6.3-.4.6-1.1.6-1.3 0-.2-.4-1.1-.5-1.4-.3.1-.3.7-.5 1.1m-3.6-.9c-1.3 2.8-2.3 4.4-3.4 7-1 2.1-1.5 2.6-2.5 4.4-.3.5-.8 1.4-1.2 2.3-.1.2-1.1 2.2-1.2 2.5-.5 1-1.4 3-1.8 4 .9.1 1.4.1 1.9 0 1.6-3.6 2.8-5.5 4.3-8.9.6-1 .8-1.5 1.5-2.8.8-1.5 1.2-2.5 1.9-4 1.1-2.4 1.3-2.9 1.7-3.9-.4-.5-.7-2-1.2-.6m5.8-.8c.5-1.1.8-1.6 1-2.5.6-1.2.6-.3 1.1-.5.4.2.3.4.5.6.7 2.2 1.1 2.8 1.5 4.6.4.9.8 2.2 1 2.7.8 1.4.7 2.1 1.5 3.5.6 1.3 1 2.1 1.1 2.3 1 2.6 2.1 4.9 3.3 7.3 1.5 3.3 3 6.3 4.3 9.1 1 .6 3.4-.1 3.7 1.3.5.2-.9.7-1.8.6-.5.2-1.1 0-1.1.3 0 .6 1.1 2.3 1.4 2.9.3.7.8 2 .9 2.4.4 1.2.7 3 .1 4.3-.9-1.1-1.4-2.5-2-3.9-1.3-1.7-1.8-3.9-2.9-5.8-.4 0-1.1-.2-1.7-.1 1.1 3.1 3.9 6.1 3.6 9.7-.3.2-.1.6-.4.5-.7-.4-.8-1.1-1.4-1.9-.8-1.2-1.5-2.8-2.2-4.4-.5-1.2-1.2-2.5-1.8-4-1 0-1.9-.1-1.8.2.4 1.3 2.1 5 2.4 6.5.3.7.6 1.4.8 2.1.2.7.5 1.8.4 2-.2.3-1.1-.6-1.6-.6-.2.1-.5-.6-.6-.8-.3-.4-.7-1.3-1-2.1-.4-1-.7-1.8-1.2-2.8-.3-.6-.8-1.5-1.2-2.3-.2-.5-.6-1.3-.9-2.1-3.3-.3-6 .1-9.5 0H65c-1.1 0-2.4 0-2.6.4-.3 1-.5 1.3-1.5 3.7-.7 1.8-1 2-1.9 3.7-.3.6-.3 1.1-1 2.1-.2.6-.6 1.1-.8 1.5-.3.6-.6.5-.9.6-.3-.3-1.1-.4-.5-1.3.3-1 .2-.7.8-1.7.4-.6.3-1.2.7-1.9.4-1 .7-1.8 1.2-3.2.5-1.7 1.1-2.6 1.4-3.7-.1-.1-1.6-.2-1.8-.1-.5 1.2-.5 1.2-.9 2-.1.3-.3.7-1 2.1-.2.6-.4 1.1-.7 1.8-.2.3-.5 1-.7 1.5-1.1 2-.9 2.5-2.3 4.2-.3.1-.5 1-1 1.2-.5 0-.3 0-.6-.5.3-.4-.3-.1 0-1.1 1.4-4 3.2-8.4 4.4-11.3-.7-.1-2.2-.2-2.2-.2-.6 1.4-1.9 3.9-2.7 5.2-.6 1-.7 1.2-1.3 2.5-.5.9-.7.9-1 1.5-.3.7-.6.7-.8 1.4-1.6 2.2-3 4.3-4.9 3.7-.1-.3.3-.5.4-.7.4-.5.6-.8 1-1.4.1-.2 1.1-1.7 1.2-1.9 1-2.2 1.3-2.6 1.6-3.2.6-1 1.1-2.1 1.5-3 .6-1.4 1.3-2.5 1.6-3.3.4-.8 2.4-4.6 2.7-5.4.4-.9.7-1.4 1.2-2.6.5-1.1 1.2-2.6 1.8-3.7 1-1.9.9-1.7 1.9-3.6.3-.5.9-1.8 1.4-2.6.6-1.2.9-1.7 1.4-2.5.7-1.2 1-1.7 1.3-2.4.5-.7 1-1.6 1.7-3 1.3-2.5 2.3-4.3 3.4-6.2.5 0 .9 0 1.2.1.6.5.6 1.2 1.3 2.2.3-.7.8-2.7.9-3.1.6-.4.7 0 1.2.3 1.4.1 1.4 1.7 1.8 2.8M12.8 50.5c8.9 1.2 13.4-2.1 15.9-5.1.3-.4.4-.7.8-1.1.5-.8 1.7-2.6 2-2.9 1.1-1.7 2.3-4.4 3.5-8.1.6-1.9 1.2-3.7 1.7-5.7.4-1.5.8-3 1.1-4.4.2-.8.4-1.7.5-2.4.4-2.1.6-3.4.9-5.5.2-.9.5-3 .6-4 .2-1.5.5-2.8.8-4.3.3-1.6.5-2.9.8-4.2.2-.9 1.4-2.4 1.4-1.6-.1 3-.4 7.3-1 11.3-.2 1.3-.3 2.5-.4 3.7-.3 3.2-1.3 6.4-1.9 9.4-.6 3.4-1.5 6.2-2.5 9.3-.3 1-.6 1.9-1 2.8-.2.5-.6 1.1-.9 1.6-.1.2-.1.3-.2.5-.2.3-.3.5-.5 1.1-.5 1-.8 1.6-1.8 3-.7 1-1.1 1.7-1.9 2.6-.1.1-.5.6-.6.7-1.1 1.4-2.6 2.4-4.3 3.5-1.2.7-2.4 1.4-4 1.9-1.2.3-3.1.6-4.8.6-.5 0-1.8.1-2.4 0-1.7 0-2.3-.1-4.3-.4-.7-.1-2.7-.6-3.4-.9-2.1-.8-3-1.8-3.4-2.1-.9-.8-1.3-1.4-1.9-2.8C.9 45.3.2 43.2 0 40.9v-1.8c0-1.6 0-2 .2-3.4 0-.3.2-1.6.3-2 .1-.4.3-1 .4-1.3.2-.7.3-1 .6-1.7.4-.4.5-.7.8-1.3.8-1.2 1.7-2.7 2.5-3.4.1-.1 1.3-1.1 1.5-1.1-.9 2.7-1.6 4.9-2.5 7-.3.9-.4 1.2-.5 1.6-.2 1.1-.3 1.8-.3 2.5-.1.9 0 1.3-.1 2.2-.1 3 .1 5.6 1.4 7.9 1.2 2.3 5.3 3.9 8.5 4.4M9 23.7c.5-.5-.5 2-.6 2.6-.3.9-.4 1.8-.7 2.8-.8 2.7-.7 5.8-.2 8.9 0 .1.1.6.1.8.3 1.5 1 3.2 1.8 4.5 1 1.7 2.6 2.7 4.6 3.3 1.7.2 3.1.5 5 .1.4-.1.8-.3 1.3-.4.5-.1 1-.3 1.3-.4.2-.1.5-.4.7-.5.5-.4.5-.3 1.1-.7.7-.5 1.7-1.6 2.3-2.4 1.3-1.7 2-3 3-5.4.8-2 1.5-3.9 2.1-5.8.5-1.6.6-2.7.9-4 .1-.4.2-.6.2-1 .1-.5.4-1.2.5-1.7.1-.6.3-1.7.5-2.3.6-2.4 1-5.2 1.7-7.9.2-.6.3-1.1.4-1.7.2-.9.5-2 .7-3.2.1-.3.2-.9.3-1.1.2-.7.1-.7.4-1.6l.3-1.2c.6-1.9 1.1-3.7 1.9-5.4.7 1.3.4 3.1.3 4.5-.1.5-.2 1.2-.3 1.7-.1.5-.2 1.1-.2 1.4-.1.7-.1 1.1-.3 1.8-.3 1.6-.9 3.2-1.1 4.9-.1.4-.2.8-.2 1.2-.1 1.1-.3 1.5-.5 2.3 0 .3-.1.5-.1.8-.1.5-.5 2.7-.6 3.3-.5 2.6-1.1 4.4-1.6 7.1-.2 1-.4 1.5-.7 2.5-.4 1.8-.9 2.9-1.1 3.6-.4 1.2-1.2 2.5-1.7 3.7-.8 2-1.2 2.6-2.7 4.6-.3.4-.7.9-1.1 1.3-.4.4-.9.8-1.3 1.2-.4.4-.9.6-1.3 1-.3.3-.7.5-1.1.8-.4.3-1.5 1-2.1 1.1-1.9.7-4.6.9-7 .8-1.5-.1-3.6-.6-5.1-1.7-.5-.3-1.1-.9-1.6-1.4-.6-.7-.7-.7-1.2-1.6-.5-.9-.9-2.2-1.2-3.6-.2-.7-.2-1.5-.2-2 0-.6-.1-1.3 0-2 0-.5 0-1.2.1-1.7.1-1.2.2-3.7.6-4.8.4-1.2.9-2.8 1.5-4 .9-1.1 1.4-2 2.2-3.1m.8.7c.5-1.7 1.5-2.4 2.1-2.7-.8 2.8-.8 5.3-1.2 7.8-.1.4-.1.8-.1 1.2-.1.8 0 .9 0 1.3V33.7c0 .5 0 .5.1 1s0 .3.1.7c.1.4.1.8.2 1 .1.6.3.9.4 1.3.3.9.1.6.7 1.5.9 1.6 2.3 3.4 4.1 3.7 3.9.4 5.5-2.3 6.4-4 .1-.2 1-1.8 1.1-1.9.2-.4.4-.9.6-1.4.6-1.4 1-2.8 1.3-3.4.1-.3.4-.9.5-1.2.4-1.1 1-2.9 1.4-4.2 1.3-4.2 1.9-7.5 3.3-12 .4-1.5.8-2.8 1.2-4.3.1-.4.2-.8.3-1.3.4-1.9.5-2.7.8-4.4.3-.9 1-2.8 2.2-3.4-.5 1.9-.5 4.4-1 6.8-.2 1.2-.3 2.6-.6 3.8-.8 3.4-1.6 7-2.4 10.1-.5 1.8-1.1 4.8-2.2 7.9-.2.5-.5 1.6-.7 2.1-.5 1.7-.7 1.9-.9 2.6-.7 2.1-1.1 2.8-1.8 4.1-.5 1-.8 1.5-1.7 2.7-.3.3-.9.9-1.4 1.5-.4.6-.7.7-1.3 1.2-4 2.4-8.8.7-11.3-3.9-2.3-4.8-2-10.9-.2-15.9M202 47.6c.5.2 1.1.1 1.7 0 0-.2.1-.8-.1-.9-.2-.1-1.5-.1-1.6.1-.1.4-.1.6 0 .8m-3.3.1c.3-.1 1 .1 1.1-.1 0 0 .2-.3 0-.7-.1-.2-1 0-1.2-.1.1.6 0 .5.1.9m3.5-2.9c.4 0 1.4.3 1.5-.1-.1-.2 0-.7-.1-.9h-1.5c0 .5.1.5.1 1m-3.6-1c-.1.4 0 .6.1 1.1.3-.1.9-.1 1.2-.1 0-.6 0-.3-.1-1.1-.5 0-.2 0-1.2.1m4.1-11.5c-.3 3.1-.4 6-.6 9.4.3 0 1.1-.1 1.4 0 0-2.6.2-2.5.3-4.8 0-.7.2-1.7.2-2.4 0-.2 0-.4.1-2-.1-.2-1.3-.2-1.4-.2m-3.5 0c-.1 0-.2 1.6-.2 1.7-.2 1.8 0 1.4-.2 3-.1.7-.1 1.3-.2 2 0 1 .1 1.9 0 2.7.5 0 .8.1 1.1 0 0-1.9.3-3.9.4-6.3 0-1 .2-1.8.3-2.9-.2-.2-1-.2-1.2-.2m3.5-2.3c.2 0 1.4.2 1.5 0 .1-.2 0-.5.1-.8-.6-.2-1.4.1-1.4.1-.1.2-.1.5-.2.7m-3.5.2h1.2c.1-.5.2-.3.2-1-.2 0-1.2-.2-1.3.1-.1.6 0 .1-.1.9m3.9-2.8c.5.1.8.2 1.2.1.1-.3.2-1 0-1-.4-.1-1-.2-1.1.1-.2.2-.2.4-.1.8m-3.6.2h1c.1-.5.1-.9.1-1.2 0-.2-.7-.2-1.1-.2 0 .5.1.8 0 1.4m3.8-5.8v2.5c.3-.1 1.1.2 1.2-.1.2-.9.1-2.3.2-3 .1-1 .2-2.1.1-3-.5-.1-1.2 0-1.2 0-.2.6-.2 2.3-.3 3.6m-3.3-3.5c-.3 1.8-.3 1.8-.3 3.1 0 .5-.2 2.1-.1 2.8.6 0 1 .3 1.1-.2.1-.6.2-2.1.3-2.7.1-.9.2-1.8.4-3.2-.8 0-1.1-.1-1.4.2m4-3.8c-.1.2 0 0 0 1.1.3 0 1 .2 1.2.1.2-.2.1-.8.2-1.1-.4-.1-.8-.2-1.4-.1m-2.6 1.4c.4-.4.1-.7.2-1.4-.4-.1-.5-.1-1.1-.1-.3.6-.2.7-.3 1.3-.1.1.7.1 1.2.2m2.7-4.3c0 .5-.2.8 0 .8.4.1 1 .1 1.6-.1.2-.5 0-.5.1-.7-.5-.3-1.7 0-1.7 0m-3.6.9c0 .1 1.4.2 1.4-.1.1-.4.1-.8.1-.8-.5-.1-1.3-.2-1.4 0-.1.3-.1.8-.1.9m7.5-1.1c0 .7-.1 1 .1 1 .9.1 2.8-.1 3.1-.1.9 0 2-.1 3-.1h1.4c.6 0 1.3-.2 2-.2 1.2 0 2.7-.1 4.4-.2 1.5 0 4.7-.1 6.3.1 1.8 0 .6.4.4.7-.3.4-.5.6-.3.9-3.8 0-14.6.4-20.6.9-.2 0-.4-.3-.2 1.1 1.3.1 3.2 0 4.7-.1 6-.3 11.1-.4 17.8-.2.5.1-.2 1.1-.5 1.9-.1.2-.5-.3-.4.1-6.3.5-13.4.6-20 .9-.5.1-1.4-.1-1.9.1 0 0-.1 1.6-.2 2-.1 1.6-.1 2.6-.2 4.1 6.6 0 12-.7 18.5-.1 0 .2.3.3.2.5-.1.2 2 1 .6 1.1-.2 0-1-.1-.9 0-1.8.1-1.4.2-3.4.3-3.1.1-7.4.2-11.7.3-.5 0-2.3 0-3.3.1-.3 0-.1.5-.1 1 1.6.1 2.8 0 4 0 1.4-.1 2.9-.1 4.5-.2 2.4-.1 5-.1 7.4 0 2 0 2.9.3 4.8.2.1.1.5 0 .5.1s.2.5.1.7c0 .1-.5.6-.5.7-.4.3-.7 0-1.2.1-.1 0-.5.1-.7 0-.1 0-1.1-.1-1-.1h-1.8c-1.3 0-2.3.1-3.6 0-1.4 0-2.1.1-3.4.2-1.7.1-3.9.1-5.9.2-.7 0-2.5 0-3.2.1 0 0 .1.4.1.8h4.2c2.6 0 5.4-.3 8.1-.4 3.3-.1 4.6.2 7.2.2h.6c.1.1.9.4.9.5.1.4.2.9-.5.8-.2.2-.4.2-.8.3-.5.1-.8 0-1.4.1-1 .1-.3 0-1.7 0-1.2 0-2.4.2-3.5.3-1.2.1-2 .1-2.8.1-.9.1-1.4.2-2.4.2h-2.6c-.5 0-1.6-.1-2.1 0-1 0-2.1-.1-3.5.1-.2 2.5-.3 4.1-.4 5.7-.1 1.3-.3 2.2-.2 3.8 6.9 0 14.8.1 22.3.4.1.1.9.4.8.6v.1c-.1.3-.6.5-.7.9-4.6.1-11.5-.1-16 .1-1.7.1-4.3-.1-6.1 0-.2 0-.2.1-.2.8 1.6-.1 2.7.1 4.1.1 1.2 0 2.3 0 3.4.1 4.4.1 6.6 0 12.8.4.5.1.5.2.7.2 1.3.2 0 .7.1.9.1.3.1.4-.3.4-4 0-5.6.3-10 .2h-1.4-1.1c-.3 0-1.1-.1-2.2 0-1.7.1-3.4.1-5.4.1-.6 0-.6.2-.5.8 1.1-.1 2 .1 2.9.1 1.9 0 3.7.1 5.7.2 4 .1 8.2.3 12.1.6.1.1.4.3.5.5.1.2.7.6.7.8 0 .2-.8.2-.7.4-4.8.2-6.2.3-10.9 0-.3 0-2.9-.1-3.2 0-3 .1-4.9-.1-8.6.4-.6-.4-1.8-.2-3.2-.3-1.2-.1-2.1-.3-2.6-.1-.8.4-.8 1-1 1.8-1.4.9-1.7-1.9-1.7-4.1 0-1.8-.1-3.1-.1-4.6 0-1 0-2.1.1-2.9.1-2.5.1-4.2.3-6.5.1-1.6.3-3.5.4-5.1 0-2.6.4-5.2.5-7.6 0-.5.1-1.4.2-2 0-1.2.2-2.1.4-3.3.4-2.3.4-4.9.8-7.2 0-.2.2 0 .2-.2.3 0 1.1-.1 1.2.2.2-.1.2 0 .4.1s.7.1.8.1c.4 0 1.1-.2 1.3-.3.3-.1.2 0 .5 0s.5.5.7.4c1.6.2 2.7-.1 4.5-.2.5 0 2.1 0 2.9.1 3.6-.1 6.6-.4 10.6-.6 3-.1 5.9-.1 8.3-.2 0 .5 2-.1 0 1.6.2 0-.8.1-.7.1-.6.2-2 .4-2 .3-2.8.6-3.2.1-5.8.5-2.1.3-4.2.3-6.6.5-2.5-.4-5.1-.5-7.2-.2M288.1 49.8c-.1 0-4.1.1-6.2.4-1.4.2-2.3 0-3.1 0-.4 0-1.3-.3-2.2-.8-1.2-.5-1-.4-2.4-1.1 0 0-1.1-.7-1.4-.8-.2-.1-1.6-1.2-1.7-1.3-1.5-1.4-2.2-2-3.7-3.9-1.4-1.5-2.2-3.1-3.5-4.4-1.4-1.5-2.7-3.1-4.6-4.4-1.8-1.3-3.3-1.8-4.1-2.1-.1 0-.9.5-1.6.8 5.9 2.5 7.7 4.8 9.4 6.6.8.9 1.3 1.5 2 2.3 2.3 2.6 2.3 3.4 5.2 5.8.7.6 2 1.4 2.7 1.9.3.2.9.5 1.1.6.5.2 1.4.6 2 .9 1.3.5 2.2.7 3.6.7 2.1 0 5.5-.7 7.4-.8 1.4 0 1.5.3 1.6.4.8.1-1.4.5-2.6.8-1.3.4-1.1.4-2.3.7-1.3.4-1.8.4-3.1.5-1 .1-2 0-2.9-.1-1.6-.2-2.1-.2-4.1-1-1.3-.6-1.2-.4-2.8-1.5-.9-.6-2.3-1.8-3.2-2.5-1.2-1.1-4.4-4.9-5.1-5.6-.5-.5-1.3-1.4-1.8-2.1-.7-.7-1.9-1.8-2.7-2.4-.9-.8-1.9-1.4-2.7-1.8-1.4-.7-2.9-1.9-4.8-1.6-.1 5.3-.2 11.6-1.1 16.7-1.2.7-1.1.2-1.1-.4-.1-6.6.1-11-.2-15.9-.4.1-1.2.2-1.2.4 0 .8.1 2.2.1 3.1v4.5c-.1 1.7 0 7.5-.5 8.5-.4.9-.8.3-1.6-.3-.4-4.3.3-10.1 0-15.2-.7.1-1.1.2-1.6.4-.1 4.7-.5 7.5-.5 11.1 0 .1-.1 1.5-.1 1.5 0 .1-.1 1.2-.1 1.3 0 .6 0 .6-.1 1.1-.1.5 0 .4-.5.8-.8.2-.9.3-1.1-.2-.3-.9-.5-.7-.6-1.5 0-1 .1-2.4.1-3.9s0-2.9.1-4.2c.3-8.3.4-16.8 1.2-23.5.2-1.9.5-4 .9-5.8.2-1 .3-2 .5-3.3 4.6-.9 10.6-1.3 16.3-.9 2.7.2 4.6.7 6.9 1.3 1.1.3 2.7.8 3.7 1.3 1.9.9 2.6 1.7 3.1 3 .5 1.4.3 2.6-.2 4.2-.7 2.6-2.6 4.8-4.9 6.3-1.8 1.2-4.6 2.7-6.4 3.8 1 .3 2.7 1.3 3.4 1.9.4.3 1.4 1.2 1.8 1.5.9.9 1.5 1.9 2.2 2.6.6.6 1.3 2.1 1.8 2.9 1 1.6 2.6 3.4 4.3 5 1.8 1.6 3.6 2.2 6.3 3.9.9.5 3.4 1.5 3.9 1.9.8.4.7.5 1.4.9 2.2 1 .2.1-.7 0-.3-.1-2.1-.3-2.4-.5-.3-.1-1.6-.5-2.1-.7-.9-.3-1.8-.5-2.2-.7-1-.4-1.9-.8-3.8-1.9-.7-.5-1.3-1.1-2.2-1.9-.7-.6-1.2-1.2-2.1-2.1-.2-.2-1.4-1.5-2.1-2.6-.3-.5-1.1-1.4-1.5-2.2-.8-1-1.2-1.7-2.4-2.8-1.7-1.6-3.5-3.4-5.6-4.1-.3.2-.7.5-1 .7 2.6 1.3 3.7 2.9 5.2 4.3 2.9 2.8 4.6 5.5 7.4 8.9 1.5 1.7 2.8 2.7 4.6 3.7 1.3.7 1.6.8 3.5 1.5 1.7.6 3.6.2 6 .6.6.1 1.2.3 1.8.5.5 0 .8.1 1 .3m-40.8-22.1c.2 0 1.3-.2 1.4-.3.1-.1.1-1.4.1-1.5-.4.1-1 .2-1.3.2-.1.3-.2 1.2-.2 1.6m-.3 4.6c.2 0 1.2-.2 1.3-.3.1-.1.1-1.8.1-2-.4.1-1 .3-1.4.3v2m6.9-4.3c.7.3 1 .5 1.6.7.4-.3.9-.6 1.1-.8-.1 0-.7-.3-1.6-.6-.9.5-1.1.7-1.1.7m-3.1 3c.7-.2 1.5-.5 2.3-.9-.2-.2-1.2-.5-1.5-.8-.1-.1-.4.1-.8.2-.1.6-.1 1.1 0 1.5m-7.3 2.4c.6-.1 1-.2 1.4-.4v-2.1c-.5 0-.8.2-1.4.2-.1 1.8.1-.1 0 2.3m4.4-18c-.3 2.1-.3 3.5-.4 5.7 0 .8-.1 1.9 0 2.9.6 0 1.4-.2 1.4-.2.1-1.4.1-3.4.2-5 .1-1.1.1-2.4.2-3.6-.6 0-.8-.1-1.4.2m10.7 3.8c.8-.5 2.4-2 2.3-3-.1-1-1.9-1.6-3.5-1.7-2.1-.2-4.4.1-6.1.4 0 .8-.1 2-.1 2.9-.1 1-.1 1.1-.1 2.3V23c2.6-1 5.1-2.1 7.5-3.8M248 12.9c0 .2 0 .5-.1.9.4-.1 1-.1 1.5-.2 0-.1.1-.8.1-.9-.7 0-.9 0-1.5.2m15.6 3.5c.2 1.1-.8 2.5-3.7 4.5-1.9 1.4-6.3 3.2-9 4.5l-.1 1.6c1.9-.5 5.1-2.3 7-3.3 1.4-.7 4.8-2.9 7-4.9 1.2-1.1 1.7-2.3 1.3-3.2-.4-.7-1-1.4-2.2-1.9-2.5-1.1-6.5-1.6-8.3-1.6-2.9 0-4 .4-4.2.4-.1 0 0 .5-.1.9 0 0 1.6-.3 3.3-.4 1.5-.1 3.1 0 3.8.1 3.3.4 5 1.7 5.2 3.3m-18.4 8c.1-2.6.2-5.2.4-7.7.1-.5.1-.9.1-1.2 0-.1-1.4.2-1.4.1 0-.2.2-1.3.3-1.4 0-.2 1.4-.1 1.4-.2 0-.2.1-.5.1-.8 0-.1-1.2.1-1.4.1 0 .2-.2 1.7-.3 1.8-.2 1-.3 2.8-.4 3.9-.3 3.6-.4 5.6-.5 9.4.6.1 1-.1 1.5-.2 0 0 0-1.2.1-2.2 0-.3-.9 0-1.4-.2-.2-.1-.1-.5-.1-.8 0-.1 1.6-.6 1.6-.6m-.3-12.7c.4.1.8-.1 1.5-.2.1-.4.1-.8.1-1.1-.7-.1-1.4 0-1.5.2-.1.4-.1.5-.1 1.1m3.3-.5c.8-.1 1.1-.1 1.6-.2 0 0 .1-.6.1-1-.6.1-1.2.1-1.7.2-.1 0 0 .6 0 1m10.6 15.7c2-1 3.5-2 5.3-3.1.5-.3 1.6-1.2 2.1-1.5.9-.7 1.8-1.6 2.5-2.4.6-.6.9-1 1.3-1.7.7-1.2 1.3-1.9.9-3.8-.2-.7-1.2-1.6-1.9-1.9-4-2.1-9.4-2.6-14.2-2.6-.5 0-2.1.1-3 .2 0 0-.1.4-.1.9 1.6-.1 2.9-.2 4-.2 1.4 0 2.8.1 4.2.3 1.4.2 1.8.2 3 .5 1.3.3 2.6 1 3.6 1.6.8.5 1.4.9 1.9 2 .6 2.3-.4 3.3-1.3 4.4-1.4 1.8-3.2 2.8-5.3 4.1-1.2.7-1.6 1-2.7 1.6-.4.2-1.2.7-1.9 1.2.6 0 1.1.2 1.6.4M181.1 44.6c0-.3 0-.5.1-.7 0 .1-1 .4-1 .4v.6c0 .2.6-.1.9-.3m.1-2.5c.1-.2.1-.8.1-1.2 0 .1-.9.4-1 .5-.1.2-.1.8 0 1 0 0 .8-.3.9-.3m-3.7 4.1c.1-.3 0-.4.1-.8 0 .1-.9.2-.9.4v.8c.3-.2.3-.2.8-.4m.1-2.7c0-.3.1-.6.1-1.1 0 .1-.7.3-.7.5 0 .3-.1.8-.1.8-.1.1.4-.1.7-.2m4.4-27.4c-.8-.2-2.2-1-3.3-1.4-.1 0-1-.4-2.4-.7-1.6-.4-2.6-.7-2.9-.7-4.7-.5-9.6.8-12.5 2.6-2.6 1.7-5.5 4.4-7.1 6.5-1.2 1.6-1 1.3-2 3.3-.3.6-.7 1.8-1.1 3.3-.5 2.5-1.1 5.9.1 10.4.6 1.8 1.1 2.3 2.2 3.5 1.2 1.3 2.8 2.2 4.5 2.9 1.3.5 2.1.7 3.7.8 2.1.2 4-.2 5.8-.4 2.8-.3 4.6-.5 7.5-1.7 0-.3.2-1.1 0-1.1-4.6 1.5-7.7 1.9-11.4 2-3.4.1-6.1-1.1-8.2-2.7-.5-.4-.9-.8-1.3-1.3-.2-.3-.2-.4-.4-.5-.1-.1-.2-.3-.4-.6-1.6-2.5-1.3-7.3-.7-10.1.8-3.7 2.4-6.8 4.6-9.2 1.4-1.6 2.8-2.7 4.5-3.7 1.7-1.1 3.2-1.8 4.5-2.2.7-.2 2.1-.8 2.9-.9 1.8-.3 3.6-.2 5.8.3 1.9.3 2.8.9 5 1.4 1.1.5 2.4.9 2.8 1.1-2.3.7-5.4-.2-7.5-.7-1.3-.3-2.6-.2-4.7-.2-2.3.1-4.3 1-6.4 2.3-1.5.9-3.2 2.2-4.1 3.1-1.6 1.5-3.2 4.1-4.1 6.7-1.2 3.3-2 9.1.5 12.2.5.6 1.2 1.1 2 1.5 1.4.8 2.8 1.4 5 1.4 2.3 0 3.8-.2 5.7-.7 2.3-.6 4.3-1 6.1-1.7.8-3.4.8-6.7 1.5-10.1.5-.3 1.4-.2 1.9-.4-.1 3-.8 7.2-.9 9.8.3-.3.6-.3.6-.4.1-.4.4-2.7.5-3.2.2-1.4.1-2.1.5-3.5 0-.1.1-1 .1-1.2 0-.4.2-.9.3-1.6.3-.3.5-.7 1.2-.7.4 0 .6 1 .6 1.2.3 3.2-.3 5.4-.4 8.3.1-.4.9.4.9 0 .5-3.6.6-5.7 1-8.9.3-.2.4-.4.8-.5.8 0 1 .6 1.5.9-.1 1.9-.6 4.1-.7 6.3 0 .7-.1 1.7-.1 2.4-.1.8-.1 1.2-.1 1.8-.2 1.6.1 5.3-.1 6.8-.3 2.5 0 4.8-2.7 3.9-.4-.3.6-3.9.3-4.3-.2.1-1.1.3-1.2.5-.1.3-.3 3.7-.4 3.9-.3.4-.4 1.2-.6 1.1-1.3-.5-1.8-2-1.7-4-.3 0-.6.1-.8.3-.3.4-.4.8-.6 1.1-.3.3-.8.3-1 .7-.5 0-.3-1.3-.6-1.4-3.5 1.2-5.7 1.7-9.4 2-2.8.3-4 .2-7.6-.2-2.2-.2-4-.9-5.2-1.5-1.2-.6-2.2-1.2-3.1-1.8-.6-.4-1-.8-1.6-1.3-2.3-2.2-4.2-6.7-4.7-10.6-.2-1.3-.1-2.9.1-4.3 0-.3.1-1 .1-1.3.3-2.1.5-2.5 1.2-4.9.3-.9.8-1.7.9-1.8l.9-1.8c.7-1.1 1.3-2.3 2.1-3.4.9-1.3 2.1-2.7 3.2-3.9.9-1 1.4-1.4 2.1-2 .3-.2 1.2-.8.8-.6.2-.2.8-.6 1.2-.9 1.2-.9 2.1-1.3 3.8-2 .6-.3 1.2-.5 1.8-.7 1.3-.5 3-.7 3.4-.8.5-.1 1.8-.2 2.8-.3 1.2-.1 2.4 0 2.9 0 1.6.2 4.3.7 5.7 1.1 1.9.5 5.8 2.7 6.6 4-.2.1 1.5 1.8.7 1.3-1.7-1.3-5.5-3-6.9-3.3-1.8-.4-3.7-.9-5.6-1-1.4-.1-2.3.1-4.3.2-.6 0-1.6.2-2.4.5-.6.2-2.3.6-2.9.8-1.9.8-4.8 2.2-6.3 3.6-2.6 2.4-4.9 5.5-7.1 9.6-.5.9-1.2 2.6-1.4 3.7-.4 1.7-.6 2.8-.7 4.2-.5 4.8 1 8.8 3.1 11.6 1 1.3 3.3 3.6 5.8 4.5 5.3 1.8 7.9 1.2 10.4 1.1 2.9-.1 2.9-.2 5.6-.8.9-.2 3-1 4-1.5v-.8c0-.3-2.3 1-7.3 1.6-2.3.3-5 .4-7.3.2-5.1-.5-8.7-3.7-8.9-3.9-.9-1-1.8-2.2-2.3-3.4-1.2-2.7-1.4-4.7-1.4-5.7-.1-2.9 0-2.9.6-5.5.1-.4.2-.9.3-1.3.2-.9 1.5-4.7 2.6-6.3 1-1.4 1.9-2.6 3.2-4 1.3-1.4 2.3-2.2 3.7-3.1 1.2-.7 2.1-1.5 3.5-2.1 1.5-.6 2.7-1 3.2-1.1 1.1-.2 1.6-.3 3.2-.5 1 0 1.9-.2 2.6-.2 2.6 0 3.9.3 4.8.5 1.6.4 3.2.9 4.7 1.7 1.2.7 5.7 3.8 2.3 2.8M108.9 47.2c.7 0 1.6.3 2.1 0 .1-.1 0-.7 0-.8-.7-.1-1.2 0-1.8-.1-.3 0-.3.6-.3.9m-4-.9c-.3.4-.3.6-.3 1.2.9 0 1.5.2 2.1 0 .2-.1.1-1.1.3-1.3-1.1-.2-1 .2-2.1.1m4.3-1.9c.5.3 1.2.4 1.8.2.2-.1 0-.8.1-1-.1-.2-1.3-.4-1.8-.2-.3 0 0 .9-.1 1m-4.5-.1c.4.5 2.1.3 2.5-.2.1-.3 0-.8 0-1-.4-.3-1.5-.2-2.1-.1-.4 0-.4 1-.4 1.3m5.2-11.9c0 .1-.1.1-.1.2 0 .5-.1 1.2-.2 2-.1 1.9-.3 2.6-.3 3.9 0 .7-.3 2.3-.1 2.6.6-.1 1.3.1 1.8-.1.2-2.7.4-5.9.6-8.5-.2-.2-1.4-.3-1.7-.1m-3.8-.3c-.5 2-.5 5.3-.7 7.2-.1.5-.2 1.7.1 1.6.6.1 1.3.1 1.8-.2-.2-3 .5-5.6.4-8.5-.4-.2-1-.1-1.6-.1m3.7-2.7c0 .5 1 .2 1.8.2 0-.3.1-.5.1-.8-.4-.1-1.4-.1-1.8 0-.2 0-.1.3-.1.6m-3.5.3c.4.2.7.1 1.3 0 0-.3.1-.5.1-.8-.2-.1-1.4-.3-1.4 0 0 .4-.1.2 0 .8m3.7-3.3c.3.3 1.1.2 1.5.1.1-.4.3-.8.1-1-.2-.1-1.5-.3-1.5 0 .1.4-.1.6-.1.9m-3.1-1c0 .3-.2.8-.3 1.1.3.1.8.1 1.3.1 0-.4.2-.5.1-1.3-.5.1-.8 0-1.1.1m3.7-6.4c-.1 1.4-.2 2.7-.4 3.8.2.2 1 .2 1.5.2.3-1.1.1-3.1.3-3.9-.7-.1-.8 0-1.4-.1m-2.8 0c-.4 1-.5 2.7-.5 4.1.4.1.5 0 .8 0 0-1.1.4-3 .4-4.1h-.7m3.2-3.5c-.2.2-.1.7-.1 1.1.5-.1.8.2 1.1 0 .2-.2.1-.6.1-1-.3-.2-.6-.3-1.1-.1m-3 1.2c.3 0 .9.2 1-.1.2-.5 0-.8 0-1.3-.3 0-.9-.2-.9 0-.1.4-.1 1.1-.1 1.4m3.2-3.6c.3.1.7.1 1.3.1V12c-.6-.2-1.4-.3-1.5 0 0 .5 0 .6.2 1.1m-3 .1c.2 0 .9.3.9 0 0-.5.2-1.3 0-1.5-.3-.1-.7-.1-.8.2-.2.3-.2 1-.1 1.3m2.3-5.1c.3.2.3.6.5.9.9.2 2.6.5 2.9-.5.4-.5.4.5 2.1.5 7.1.2 16.2.4 22.8.1.4.3.4.6-.2.6-.1.5-.1.5-.6.6-.6.6-1.3.5-2.1.6-3.3.5-7.1.6-10.5.8-1.7.1-3.4.1-5 .2-1.9.1-3.8-.1-5.6.1 0 .2-.2.8-.2 1 1.2 0 2.2 0 3.3-.1 5.6-.1 12.7-.1 18.5.2.8 0 1.5-.1 2.3.1-.2.6 0 .1-.1.7.2.3.1.3-.3.5-.2.2-.6.2-1 .2-3.3.5-6.6.5-9.9.6-3 .1-5.8.1-9.7.2h-1.8c-.4 0-.5-.1-1.5 0 0 1-.3 1.1.3 1.1 7.2-.2 16.2-.5 22.4-.5.3 0 .5 0 .9.1.1.1.4.4-.2.9 0 0 .1.3-.4.3-7.5 1.1-16.2.8-23.2 1.2-.2.9-.2 2.9-.3 4 7.1-.1 12.8-.6 19.6-.2-.1.5.6.5.3.8 0 .4.1.4-.4.6-.6.6-.7 0-1 .2-1.9.5-5 .3-6.7.6-2.8.4-6 .3-9 .5-.9.1-1.5.2-2.7.2.2.6-.3 1 .3 1 5.1-.4 13.1-.6 18.1-.9 1.1 0 .3.2.3.9-.2.9-1.2.5-1.3.8-1.9.5-3.7.3-5.8.6-2.2.3-4.6.1-6.8.3-1.7.1-3 .3-4.7.3 0 .3-.4 1 .4.9 5.7-.3 13.3-.4 18.5-.3-.1 1.8-.8 2.6-3 2.3-.3.1-1.1.1-2 0-.9 0-2.3.2-2.7.2-4.3.2-6.8 0-11.2.6-.2 2.4 0 3.5-.3 6.6 0 .1 0 2.1-.1 2.1.9.1 1.9.1 2.5.1h1.8c2.6.1 6.3-.1 9 0 2.4.1 5.1 0 7.1 0-.4.5.3.9-1 1.8-4.5.5-13.7.6-18.9.6-.9 0-.7 0-.8.9.8.3 1.8 0 3.1 0 3.5-.1 6.6-.1 9.2-.1.6.1 3.5-.1 3.8-.1 1.9-.1 1.4 0 3-.1.7-.1 1.3-.5 1.8-.1 0 .7-.1.3-.4.7-.1.9-2.2 1.2-3.5 1.4-3.2.5-7.2.6-10.6.8-2.5.2-4.4-.1-6.7-.1.1.5-.1 1 .2 1 6.7.3 13.4.1 20.5 0 .1 0 .2-.2.3-.1.2.1.1.4.4.7-.6.9-.9.9-1.6 1.4-4.5.5-8.4.6-13.1.2-.4 0-3.3.2-3.6.1h-1.8c-.8 0-.8-.4-1.4 0-.7.5.1.8-1.1 1.6-1.1.4-.8-1-.9-1.7-1-.2-2.8-.3-3.3.4-.4-.1-.6-.7-1-.8-1.5-.2-3.2-.1-4.2.2-.4-.6 0-1.6.1-2.2.1-1.1.2-3.2.3-4.3.2-7.4 2.1-18.6 3.5-33.7.3-.8 1-.6 1.4-.9.5.1.7.7 1.3.8.7.4.5-.8 1.4-1"/></symbol><symbol viewBox="0 0 425.9 287.2" id="symbol-mtv"><title>MTV</title><path d="M135.756 173.346v113.607l19.587-14.364v-79.656l-19.587-19.588zM176.884 199.853l24.81-5.223 10.447-7.835V172.43l-35.256 27.423zM173.754 19.33L138.497 3.66l31.34 35.258 13.058-11.752-9.14-7.835z"/><path d="M417.163 37.653c-2.612-2.612-9.14-3.918-14.364-2.612-5.225 0-9.142 2.613-11.754 5.225L383.21 48.1l-2.61 3.917-6.53 9.14V12.843L353.177-.216v86.184l-5.223 6.53V-.216H217.37l-47.008 45.704L128.575-.216H-.702v287.282H129.88V160.4l39.176 39.175 47.01-40.48V285.76h130.582V164.318c1.306 0 2.612-1.306 2.612-1.306l1.306-1.306s1.305-1.305 2.61-3.917v129.276l20.894-14.364V119.92c1.306-1.306 2.612-3.918 2.612-3.918l2.612-5.223 5.223-6.53 1.306-2.612 5.223-6.53c1.306-2.61 3.918-3.916 3.918-3.916l2.61-2.612 3.92-3.917 6.528-2.612 6.53-3.917 5.222-7.834 2.612-9.142 1.306-9.14c2.61-5.224-1.306-10.448-6.53-14.365m-156.698 78.35v27.422c0 3.916 1.305 7.834 1.305 9.14v39.173c0 3.918-1.306 9.14 0 13.06v3.916c0 1.306 1.305 3.918 1.305 5.223 0 1.305 1.306 6.53 1.306 7.834 0 1.306 2.613 6.53 2.613 7.835 1.306 2.61 1.306 6.528 1.306 9.14-1.307 2.612-2.613 7.835-2.613 9.14l-2.612 2.613c0 1.305-1.306 1.305-2.61 2.61-2.613 1.307-7.836 1.307-11.754 0-1.305 0-3.916 0-7.834-2.61-2.61-1.306-3.917-5.224-3.917-7.835v-3.918s-1.307-5.223-1.307-6.53V227c0-2.612-1.306-6.53-1.306-6.53 0-1.305-1.306-5.223-1.306-5.223-1.305-2.61-1.305-5.223-1.305-6.53 0-3.916 0-6.528 1.306-10.446 0-1.306 1.307-2.612 1.307-5.224 0-1.306-1.306-6.53 0-7.835 0-1.305 0-2.61 1.306-3.916v-6.53-7.834-3.918-6.53-5.222-7.835-6.53-6.528c-1.306-13.06-2.612-15.67-3.918-15.67h-3.917c-1.306 0-2.612 2.61-5.223 3.917-1.306 1.306-5.224 2.612-6.53 3.918-1.305 1.305-3.917 2.61-7.834 5.223-1.305 0-1.305 1.306-2.61 2.612-3.92 2.61-6.53 6.53-10.448 7.834-2.61 1.307-3.917 2.613-5.223 3.92 0 0-2.613 3.916-3.92 6.528-2.61 1.306-2.61 2.612-3.916 3.918-1.306 1.305-1.306 3.917-2.612 5.223-2.61 1.305-7.835 2.61-11.752 1.305-2.612-1.306-6.53-3.918-7.835-7.835-1.306-5.224 0-10.447 3.917-14.364 2.612-2.612 6.53-3.918 9.14-5.224 2.613 0 3.92-1.305 6.53-2.61 1.306 0 3.918-2.613 3.918-2.613 1.306 0 3.917-1.307 3.917-2.613 0 0 3.918-2.61 5.224-3.917 3.918-1.306 6.53-3.918 7.836-3.918 0 0 5.223-2.61 7.835-5.223 1.306-1.307 3.918-1.307 6.53-3.918 1.305 0 3.917-1.306 5.223-1.306 0 0 2.612-2.612 3.917-2.612 2.612-1.306 3.918-3.917 3.918-7.835 0-1.307-1.306-2.612 0-5.224 0 0 1.306-3.918 1.306-5.223 0-1.306 1.306-1.306 1.306-1.306 0-1.306 2.61-1.306 3.917-2.612 1.306-1.306 2.612-1.306 3.918-1.306 3.917-1.307 9.14 2.61 10.446 2.61h5.224s1.306-1.305 2.612-1.305 3.918-1.306 3.918-1.306c1.305 0 5.223-2.612 5.223-2.612 1.306 0 3.917-1.306 3.917-1.306 1.306-1.306 5.224-2.612 6.53-3.918 1.305-1.305 3.917-3.917 3.917-5.223 1.307-1.305 3.918-3.916 5.224-3.916 1.306-1.306 3.918-2.612 6.53-3.918h5.223c1.306 0 3.917 0 6.53 2.612 1.305 1.306 2.61 2.61 2.61 5.223 1.306 6.53-3.917 13.06-6.53 14.365l-2.61 1.306c-1.306 0-2.612 1.307-3.918 1.307-2.612 0-2.612 1.306-3.918 2.61-1.306 0-3.918 2.613-3.918 2.613-1.306 0-1.306 2.612-3.917 2.612-1.306 0-3.918 1.306-6.53 2.61-1.305 1.307-5.223 1.307-6.528 1.307 0 0-5.225 2.61-5.225 5.223 0 2.61 0 3.917-1.306 7.834-1.306 2.612-1.306 6.53-1.306 7.835m160.616-56.15c0 1.306-1.306 6.53-2.612 9.14 0 1.307-2.61 5.224-5.223 6.53-1.306 1.306-3.917 2.61-5.223 2.61s-6.53 2.613-7.835 3.92l-3.918 3.916c0 1.306-1.306 1.306-2.612 2.612 0 0-5.224 2.612-6.53 5.223-1.305 2.612-5.223 6.53-6.528 7.835-1.306 2.612-2.612 5.224-3.918 6.53 0 0-1.306 1.305-1.306 2.61 0 1.307-1.306 1.307-1.306 2.613v1.307c-1.305 1.305-2.61 3.917-2.61 3.917-2.613 1.306-3.92 3.918-3.92 5.223 0 1.306-2.61 5.224-3.916 7.835 0 1.306-2.612 5.224-2.612 6.53 0 1.305-3.917 3.917-3.917 5.223s-1.306 2.61-1.306 3.917c-1.307 0-2.613 2.612-2.613 2.612 0 1.306-1.306 1.306-1.306 2.612 0 1.305-1.304 1.305-1.304 2.61-1.306 1.307-1.306 2.613-2.612 3.92l-1.306 1.305c0 1.306-5.223 9.14-6.53 10.447 0 1.306-1.305 2.612-1.305 2.612-1.306 2.61-2.612 3.916-3.917 6.528 0 1.306-1.306 3.917-1.306 3.917-1.306 5.224-2.612 10.447-2.612 11.753v13.058c-1.306 3.918-2.61 6.53-3.917 9.14 0 1.307-2.61 2.613-3.917 5.224-1.306 1.306-3.917 1.306-7.835 2.612-6.53 0-9.14-2.612-11.752-6.53 0-1.305-1.306-2.61-2.612-5.223-1.306-3.918-2.61-6.53-3.917-10.447 0-1.306-1.306-2.612-1.306-3.918s-1.305-5.223-1.305-6.53c0-1.305-1.306-5.222-1.306-5.222 0-2.612-1.307-5.223-2.612-7.835-1.306-2.612-1.306-5.223-1.306-7.835s-1.306-6.53-2.612-9.14c0 0-1.306-6.53-2.612-7.836-1.305-2.61-3.917-10.446-3.917-10.446-1.305-2.61-3.917-9.14-3.917-10.446-2.61-10.447-2.61-18.282-1.305-20.893 1.305-1.305 2.61-2.61 5.223-3.917l3.918-2.61c1.306 0 5.224-1.307 7.835 0 0 0 3.918 0 5.224 1.304 3.917 2.612 3.917 6.53 5.223 14.365 0 0 1.306 7.835 1.306 10.446 0 2.612 0 3.918 1.306 6.53v5.223c0 2.612 1.305 7.836 1.305 7.836 1.306 3.917 1.306 6.53 5.224 7.835h3.918c1.306-1.305 3.918-6.53 5.224-10.446 0 0 0-1.306 1.305-1.306 1.306-1.306 2.612-2.612 2.612-6.53 0-1.305 1.305-2.61 2.61-5.222 1.307-1.306 2.612-2.612 2.612-3.918l3.918-6.53s1.306-3.916 2.61-5.222c1.307-1.306 1.307-2.612 1.307-3.918s1.306-3.917 2.612-6.53c2.61-2.61 3.916-7.834 3.916-7.834 0-1.306 1.306-2.61 2.612-5.223 0-1.305 1.306-1.305 1.306-2.61l3.917-3.918 2.613-2.612c1.306-1.306 2.612-2.612 3.917-5.223 1.306-1.306 2.612-3.918 3.918-5.224 1.306-1.305 6.53-7.834 6.53-9.14l3.917-3.918 2.61-2.61c2.613-1.307 3.92-2.613 5.225-3.92l3.917-3.916s1.306-2.613 2.612-3.92l6.528-6.528c2.61-2.612 5.223-3.917 10.446-5.223 5.224 0 10.447 0 13.06 2.61 3.916 2.612 6.528 7.835 6.528 10.447-1.306 3.917-1.306 5.223-2.612 7.835"/></symbol><symbol viewBox="0 0 207.7 32.6" id="symbol-topshop"><title>Topshop</title><path d="M0 2.7h12.4v29.4h2.1V2.7h12.4v-2H0v2M43 0c-8.1 0-13.9 6.7-13.9 16.2S34.8 32.4 43 32.4s13.9-6.7 13.9-16.2S51.1 0 43 0m11.7 16.2c0 8.4-4.8 14.2-11.7 14.2s-11.7-5.8-11.7-14.2S36.1 2.1 43 2.1c6.9 0 11.7 5.8 11.7 14.1zM75.5.7H64.6V32h2.2V19.6h8c7.1 0 11.1-3.5 11.1-9.7 0-6-3.5-9.2-10.4-9.2m-.7 17h-8v-15h8.6c5.6 0 8.4 2.5 8.4 7.4-.1 5-3.1 7.6-9 7.6zm27.7-3.1c-6.6-1.5-7.9-3.6-7.9-6.7 0-2.6 1.9-5.7 7.3-5.7 3.6 0 5.8 1 7.9 2.6l.1.1 1.4-1.7-.1-.2c-2.5-1.8-5-2.9-9.2-2.9-5.8 0-9.6 3.1-9.6 7.8 0 4.5 2.6 7 9.2 8.6 5.6 1.3 8.2 3.7 8.2 7.8 0 5.6-4.8 6.4-7.7 6.4-3.2 0-6.1-1-8.8-3.3l-.1-.1-1.5 1.5.1.1c2.9 2.4 6.4 3.7 10.2 3.7 6.2 0 10-3.2 10-8.4 0-5.1-3-8.1-9.5-9.6m38.4.4h-18V.5h-2.2v31.4h2.2V17h18v14.9h2.1V.5h-2.1V15m23.8-15c-8.1 0-13.9 6.7-13.9 16.2s5.7 16.2 13.9 16.2c8.1 0 13.9-6.7 13.9-16.2S172.9 0 164.7 0m11.7 16.2c0 8.4-4.8 14.2-11.7 14.2S153 24.6 153 16.2 157.8 2 164.7 2c6.9.1 11.7 5.8 11.7 14.2zM197.2.7h-10.9V32h2.1V19.6h8.1c7.1 0 11.1-3.5 11.1-9.7.1-6-3.5-9.2-10.4-9.2m-.7 17h-8V2.6h8.6c5.6 0 8.4 2.5 8.4 7.4 0 5.1-3 7.7-9 7.7z"/></symbol><symbol viewBox="0 0 209.4 34.2" id="symbol-viacom"><title>Viacom</title><path class="site-logo__viacom" d="M20 .2v14.7c0 1.1.6 2 2 2h2.2V.2H20zm73.7 11.9l-3.2-9.6c-.3-1-.8-2.3-3-2.3h-5v16.6h1.7c1.3 0 2.1-.6 2.1-2V3.2h.1l4.9 13.6h4.6l4.9-13.6h.1v11.6c0 1.2.6 2 2.1 2h2.1V.2h-4.7c-1.7 0-2.7.5-3.2 2-.5 1.1-3.4 9.9-3.5 9.9zm-84.6.2S5.4 2.2 5.2 1.6C4.9.8 4.6.2 3.2.2H0l6.5 16.6h4.7L18 .2h-2.8c-1.2 0-1.7.5-2 1.3L9.1 12.3zm46.7-8.6H58c1.6 0 2.5-.6 2.5-2.1V.2h-6.2c-5.2 0-7.7 3.2-7.7 8.3 0 6.4 3.8 8.3 7.7 8.3h6.2v-1.4c0-1.5-1-2.1-2.4-2.1h-2.3c-2.5 0-4.7-.9-4.7-4.8 0-3.4 1.7-4.8 4.7-4.8m-16.6 6.9c0 1.7-.7 3-2.9 3h-2.2c-1.5 0-2.5-.4-2.5-1.8 0-1.3.9-1.8 2.5-1.8h5.1v.6zM37.2.2h-8.7v1.3c0 1.1.6 2.2 2.1 2.2h5.6c2.3 0 3.2.8 3.2 2.8v.3h-5.9c-4.4 0-6 2.1-6 5 0 3.5 2.2 5.1 6 5.1h3.9c5.1 0 6.2-2.7 6.2-6.3V6.4C43.5 2.6 42.2.2 37.2.2m33.2 13.3c2.8 0 4.4-2 4.4-5 0-3.1-1.7-5-4.4-5-2.8 0-4.4 2-4.4 5 0 2.9 1.6 5 4.4 5m0-13.5c5.2 0 8.9 3 8.9 8.5 0 5.3-3.4 8.5-8.9 8.5-5.3 0-8.9-3.1-8.9-8.5 0-5.3 3.6-8.5 8.9-8.5"/><path class="site-logo__supporting" d="M2.7 20.7h206v.3H2.7zM111.1.2h.8v6.5h-.8zm9.7 6.5c-.1 0-.2 0-.3-.1l-3.6-4.9v5h-.8V.6c0-.2.2-.4.4-.4.1 0 .2 0 .3.2l3.6 4.9v-5h.8v6.1c0 .2-.2.3-.4.3m6.4-5.7v5.7h-.9V1h-2.1V.2h5V1m3.5 5.7c-.2 0-.4-.2-.4-.4V.6c0-.2.2-.4.4-.4h3.8V1h-3.4v2h2.8c.2 0 .4.2.4.4s-.2.4-.4.4h-2.8V6h3.4v.8h-3.8zM143.3 1h-2.1v2.3h2.1c.6 0 1.2-.4 1.2-1.2 0-.7-.6-1.1-1.2-1.1m1.4 5.7l-1.5-2.6h-2v2.6h-.8V.6c0-.2.2-.4.4-.4h2.6c1.2 0 2 .9 2 1.9 0 .8-.5 1.6-1.3 1.8l1.6 2.7h-1zm9.1 0c-.1 0-.2 0-.3-.1l-3.6-4.9v5h-.8V.6c0-.2.2-.4.4-.4.1 0 .2 0 .3.2l3.6 4.9v-5h.8v6.1c0 .2-.2.3-.4.3m6.4-5.3l-1.1 2.9h2.2l-1.1-2.9zm2 5.3l-.6-1.7h-2.7l-.6 1.7h-.9l2.5-6.3c.1-.2.2-.3.4-.3s.3.1.4.3l2.5 6.3h-1zm5.6-5.7v5.7h-.8V1h-2.1V.2h5V1m3.2-.8h.8v6.5h-.8zm7.6.7c-1.3 0-2.3 1.1-2.3 2.6s.9 2.6 2.3 2.6c1.3 0 2.3-1.1 2.3-2.6s-.9-2.6-2.3-2.6m0 5.9c-1.8 0-3.1-1.5-3.1-3.4s1.3-3.3 3.1-3.3 3.1 1.5 3.1 3.3c0 1.9-1.3 3.4-3.1 3.4m11.3-.1c-.1 0-.2 0-.3-.1l-3.6-4.9v5h-.8V.6c0-.2.2-.4.4-.4.1 0 .2 0 .3.2l3.6 4.9v-5h.8v6.1c0 .2-.2.3-.4.3m6.4-5.3l-1.1 2.9h2.2l-1.1-2.9zm2 5.3l-.6-1.7h-2.7l-.6 1.7h-.9l2.5-6.3c.1-.2.2-.3.4-.3s.3.1.4.3l2.5 6.3h-1zm4.6 0c-.2 0-.4-.2-.4-.4V.2h.8v5.7h3.4v.8H205zm-88.9 10.1V12l-1.8 3c-.1.1-.2.2-.3.2-.2 0-.3-.1-.3-.2l-1.8-3v4.8h-.8v-6.1c0-.2.2-.4.4-.4.1 0 .3.1.3.2l2.2 3.6 2.2-3.6c.1-.1.2-.2.4-.2s.4.2.4.4v6.1h-.9zm12.8-5.7h-.7V16h.7c1.5 0 2.8-.8 2.8-2.5 0-1.5-1.3-2.4-2.8-2.4m-.1 5.7h-1c-.2 0-.4-.2-.4-.4v-5.6c0-.2.2-.4.4-.4h1c2.3 0 3.8 1.3 3.8 3.2s-1.6 3.2-3.8 3.2m6.1-6.5h.8v6.5h-.8zm5.9 1.3l-1.1 2.9h2.2l-1.1-2.9zm2 5.2l-.6-1.7h-2.7l-.6 1.7h-.9l2.5-6.3c.1-.2.2-.3.4-.3s.3.1.4.3l2.5 6.3h-1zm11 .1c-.1 0-.2 0-.3-.1l-3.6-4.9v5h-.8v-6.1c0-.2.2-.4.4-.4.1 0 .2 0 .3.2l3.6 4.9v-4.9h.8v6.1s-.2.2-.4.2m4.1-.1c-.2 0-.4-.2-.4-.4v-5.6c0-.2.2-.4.4-.4h3.8v.8h-3.4v2h2.8c.2 0 .4.2.4.4s-.2.4-.4.4h-2.8v2.2h3.4v.8h-3.8zm8.9-5.7v5.7h-.8v-5.7h-2.1v-.8h5v.8m7.8 5.5c-.1.2-.2.3-.4.3s-.3-.1-.4-.3l-1.4-4.7-1.4 4.7c0 .2-.2.3-.4.3s-.3-.1-.4-.3l-1.6-6.2h.8l1.3 4.8 1.4-4.6c0-.2.2-.3.4-.3s.3.1.4.3l1.4 4.6 1.3-4.8h.8l-1.8 6.2zm6.9-5.6c-1.3 0-2.3 1.1-2.3 2.6s.9 2.6 2.3 2.6c1.3 0 2.3-1.1 2.3-2.6-.1-1.5-1-2.6-2.3-2.6m0 5.9c-1.8 0-3.1-1.5-3.1-3.4s1.3-3.3 3.1-3.3 3.1 1.5 3.1 3.3c0 2-1.3 3.4-3.1 3.4m8.6-5.8h-2.1v2.3h2.1c.6 0 1.2-.4 1.2-1.2 0-.7-.5-1.1-1.2-1.1m1.4 5.7l-1.5-2.6h-2v2.6h-.8v-6.1c0-.2.2-.4.4-.4h2.6c1.2 0 2 .9 2 1.9 0 .8-.5 1.6-1.3 1.8l1.6 2.7h-1zm7.7 0l-3.1-2.9v2.9h-.9v-6.5h.9v2.8l2.9-2.8h1.1l-3.3 3.2 3.5 3.3m4.2.1c-.8 0-1.7-.2-2.5-.5l.2-.7c.7.2 1.5.4 2.3.4 1 0 1.6-.4 1.6-.9s-.4-.7-1.9-1.4c-1.4-.7-2-1.2-2-2 0-1.1.8-1.6 2.4-1.6.6 0 1.6.1 2.2.3l-.1.7c-.6-.2-1.4-.3-2-.3-1.1 0-1.5.2-1.5.8 0 .5.3.7 1.8 1.5 1.6.8 2 1.2 2 2-.1 1.2-1.2 1.7-2.5 1.7m-85.9-.1c-.2 0-.4-.2-.4-.4v-5.6c0-.2.2-.4.4-.4h3.8v.8h-3.4v2h2.8c.2 0 .4.2.4.4s-.2.4-.4.4h-2.8v2.2h3.4v.8h-3.8zM5.7 28.9l-.9 2.5h1.9l-1-2.5zm1.9 5.2L7 32.5H4.4l-.6 1.6H2.4l2.7-6.8c.1-.2.3-.4.5-.4s.4.1.5.4l2.7 6.8H7.6zm4.7-5.9h-.5v4.7h.5c1.4 0 2.7-.7 2.7-2.3 0-1.7-1.3-2.4-2.7-2.4m-.3 5.9h-.9c-.4 0-.7-.3-.7-.7v-5.8c0-.4.3-.7.7-.7h.9c2.7 0 4.3 1.5 4.3 3.6s-1.6 3.6-4.3 3.6m8.7-.3c-.1.2-.3.4-.6.4-.2 0-.5-.1-.5-.4L17 27h1.3l1.9 5 1.9-5h1.3l-2.7 6.8zm4.7.3c-.4 0-.7-.3-.7-.7v-5.8c0-.4.3-.7.7-.7h4.2v1.2H26v1.7h2.7c.3 0 .6.3.6.6s-.3.6-.6.6H26v1.9h3.6v1.2h-4.2zm9.7-6H33v2.1h2.1c.6 0 1.1-.4 1.1-1.1 0-.6-.5-1-1.1-1m1.3 6l-1.5-2.7H33v2.7h-1.3v-6.4c0-.4.3-.7.7-.7h3c1.3 0 2.2 1 2.2 2.2 0 .9-.5 1.7-1.3 2l1.6 2.9h-1.5zm6-5.9v5.9h-1.3v-5.9h-2.2V27h5.8v1.2m1.6-1.2h1.3v7.1h-1.3zm6 7.2c-.9 0-1.8-.2-2.7-.6l.2-1.1c.8.3 1.7.5 2.5.5 1 0 1.4-.3 1.4-.8 0-.4-.5-.7-1.9-1.4-1.3-.6-2-1.2-2-2.2 0-1.3.8-1.9 2.7-1.9.7 0 1.8.2 2.4.4l-.2 1.1c-.7-.1-1.5-.2-2.2-.2-1 0-1.4.2-1.4.6 0 .5.3.6 1.8 1.3 1.5.7 2.1 1 2.1 2.2.1 1.4-1.1 2.1-2.7 2.1m4.8-7.2h1.3v7.1h-1.3zm9.1 7.1c-.2 0-.4 0-.6-.2l-3.4-4.6v4.8h-1.3v-6.5c0-.4.3-.7.7-.7.2 0 .4.1.5.2l3.4 4.6V27h1.3v6.5c-.1.3-.3.6-.6.6m6 .1c-2 0-3.6-1.5-3.6-3.7 0-2.3 1.6-3.7 3.7-3.7.9 0 1.6.2 2.3.4l-.3 1.1c-.5-.2-1.2-.3-1.9-.3-1.5 0-2.5 1-2.5 2.5 0 1.4.9 2.4 2.3 2.4.7 0 1.2-.2 1.6-.6v-1.7h1.3v2.1c-.5.8-1.6 1.5-2.9 1.5m10.1-5.3l-.9 2.5h1.9l-1-2.5zm1.9 5.2l-.6-1.6H81l-.6 1.6h-1.3l2.7-6.8c.1-.2.3-.4.5-.4s.4.1.5.4l2.7 6.8h-1.3zm8.3 0c-.2 0-.4 0-.6-.2l-3.4-4.6v4.8h-1.3v-6.5c0-.4.3-.7.7-.7.2 0 .4.1.5.2l3.4 4.6V27H93v6.5c0 .3-.2.6-.5.6m4.7-5.9h-.5v4.7h.5c1.4 0 2.7-.7 2.7-2.3 0-1.7-1.3-2.4-2.7-2.4m-.2 5.9h-.9c-.4 0-.7-.3-.7-.7v-5.8c0-.4.3-.7.7-.7h.9c2.7 0 4.3 1.5 4.3 3.6-.1 2.1-1.7 3.6-4.3 3.6m12.1-3.1h-2v2h2c.6 0 1-.4 1-1s-.4-1-1-1m-.4-2.9h-1.6V30h1.5c.7 0 1-.4 1-1 .1-.6-.3-.9-.9-.9m.5 6h-2.7c-.4 0-.7-.3-.7-.7v-5.8c0-.4.3-.7.7-.7h2.2c1.4 0 2.4.7 2.4 1.9 0 .6-.3 1.1-.7 1.4.7.3 1.2.9 1.2 1.7-.1 1.3-1.1 2.2-2.4 2.2m7.7-6h-2.1v2.1h2.1c.6 0 1.1-.4 1.1-1.1 0-.6-.5-1-1.1-1m1.2 6l-1.5-2.7h-1.9v2.7h-1.3v-6.4c0-.4.3-.7.7-.7h3c1.3 0 2.2 1 2.2 2.2 0 .9-.5 1.7-1.3 2l1.6 2.9h-1.5zm6.1-5.2l-.9 2.5h1.9l-1-2.5zm1.9 5.2l-.6-1.6h-2.6l-.6 1.6H121l2.7-6.8c.1-.2.3-.4.5-.4s.4.1.5.4l2.7 6.8h-1.3zm8.2 0c-.2 0-.4 0-.6-.2l-3.4-4.6v4.8H129v-6.5c0-.4.3-.7.7-.7.2 0 .4.1.5.2l3.4 4.6V27h1.3v6.5c0 .3-.2.6-.6.6m4.8-5.9h-.5v4.7h.5c1.4 0 2.7-.7 2.7-2.3 0-1.7-1.3-2.4-2.7-2.4m-.2 5.9h-.9c-.4 0-.7-.3-.7-.7v-5.8c0-.4.3-.7.7-.7h.9c2.7 0 4.3 1.5 4.3 3.6-.1 2.1-1.7 3.6-4.3 3.6m11.1.1c-.9 0-1.8-.2-2.7-.6l.2-1.1c.8.3 1.7.5 2.5.5 1 0 1.4-.3 1.4-.8 0-.4-.5-.7-1.9-1.4-1.3-.6-2-1.2-2-2.2 0-1.3.8-1.9 2.7-1.9.7 0 1.8.2 2.4.4l-.2 1.1c-.8-.2-1.6-.3-2.2-.3-1 0-1.4.2-1.4.6 0 .5.3.6 1.8 1.3 1.5.7 2.1 1 2.1 2.2 0 1.5-1.1 2.2-2.7 2.2m7.7-6.1c-1.3 0-2.2 1-2.2 2.5 0 1.4.8 2.5 2.2 2.5 1.3 0 2.2-1 2.2-2.5-.1-1.5-.9-2.5-2.2-2.5m0 6.1c-2 0-3.5-1.6-3.5-3.7 0-2 1.4-3.7 3.5-3.7 2 0 3.5 1.6 3.5 3.7-.1 2.1-1.5 3.7-3.5 3.7m6-.1c-.3 0-.6-.3-.6-.7V27h1.3v5.9h3.6v1.2h-4.3zm8.5.1c-1.8 0-3-1.4-3-3V27h1.3v4.3c0 1.1.7 1.8 1.7 1.8s1.7-.7 1.7-1.8V27h1.3v4.3c-.1 1.5-1.2 2.9-3 2.9m8-6v5.9h-1.3v-5.9h-2.3V27h5.8v1.2M184 27h1.3v7.1H184zm6.7 1.1c-1.3 0-2.2 1-2.2 2.5 0 1.4.8 2.5 2.2 2.5 1.3 0 2.2-1 2.2-2.5s-.8-2.5-2.2-2.5m0 6.1c-2 0-3.5-1.6-3.5-3.7 0-2 1.4-3.7 3.5-3.7 2 0 3.5 1.6 3.5 3.7s-1.4 3.7-3.5 3.7m10.7-.1c-.2 0-.4 0-.6-.2l-3.4-4.6v4.8h-1.3v-6.5c0-.4.3-.7.7-.7.2 0 .4.1.5.2l3.4 4.6V27h1.3v6.5c0 .3-.3.6-.6.6m5.2.1c-.9 0-1.8-.2-2.7-.6l.2-1.1c.8.3 1.7.5 2.5.5 1 0 1.4-.3 1.4-.8 0-.4-.5-.7-1.9-1.4-1.3-.6-2-1.2-2-2.2 0-1.3.8-1.9 2.7-1.9.7 0 1.8.2 2.4.4l-.2 1.1c-.8-.2-1.6-.3-2.2-.3-1 0-1.4.2-1.4.6 0 .5.3.6 1.8 1.3 1.5.7 2.1 1 2.1 2.2.1 1.5-1.1 2.2-2.7 2.2"/></symbol></svg>