<svg xmlns="http://www.w3.org/2000/svg" width="134" height="68" viewBox="0 0 250 127.6">
  <path d="M-.017 63.803V.003h250v127.6h-250v-63.8zm53.9 27.8c1.2-.4 2.7-1.4 3.6-2.4l.7-.8-.4-.8-.4-.8-.8.8c-1.6 1.5-3.8 2.2-5.5 1.8-2.8-.8-4.3-4.2-4.3-9.8 0-5.6 1.6-8.3 4.9-8.3 2 0 2.9.9 3.5 3.6.2 1 .3 1.2.8 1.1.3-.1.7-.1 1-.1.5 0 .5-.1.5-2.7v-2.6l-1.6-.4c-2.5-.6-5.3-.7-7.1-.2-4.7 1.2-7.3 5.2-7.3 11 0 4.9 1.9 8.6 5.2 10.2 2.3 1 5 1.2 7.2.4zm22.6 0c1.7-.5 2.8-1.1 4-2.1 2.8-2.6 4-6.7 3.3-10.9-1-5.6-5-9.1-10.6-9.1-6.4 0-10.5 4.4-10.4 11.3 0 5.2 2.3 9 6.5 10.6 2 .8 4.7.9 7.2.2zm-4.8-1.7c-2.3-1.4-3.5-4.9-3.5-10.5 0-3.6.4-5.3 1.5-6.7 2.2-2.7 6-1.5 7.6 2.3.9 2 1.2 3.9 1.2 6.8 0 4.3-.9 7-2.8 8-1.2.8-2.8.8-4 .1zm59.3 1.8c2.4-.5 5-2.4 6.2-4.5 1.3-2.3 1.9-5.7 1.5-8.4-.9-5.4-4.6-8.9-9.8-9.2-3.6-.2-6.4.8-8.4 2.9-1.9 2-2.9 4.9-2.9 8.4 0 7.9 5.7 12.5 13.4 10.8zm-4.3-1.7c-2.4-1.2-3.7-5-3.7-10.7 0-4.1.6-6.1 2.4-7.4.9-.7 2.8-.8 3.9-.2 2.6 1.3 4.1 4.9 4.1 10 0 4.1-.8 6.8-2.6 8-1 .8-2.8.9-4.1.3zm84.9 1.5c1.6-.6 3.3-2.3 3.9-3.8.4-1.2.5-3.3.1-4.3-.6-1.7-2.1-3.1-6.5-6.1-.9-.6-1.9-1.5-2.2-1.9-.5-.9-.6-2.3-.1-3 .7-1 2.5-1.5 3.9-1.2 1 .3 1.5.8 2 2.5.3.8.5 1.1.7 1.1.2 0 .7 0 1.1-.1h.8v-2c0-1.4-.1-2.1-.3-2.3-.2-.2-1.3-.5-2.4-.7-6.3-1.2-9.9 1.1-9.9 6.2 0 2.8 1 4.2 5 7 3.4 2.3 4.6 4 3.8 5.5-.6 1.1-1.4 1.5-3.1 1.5-1.3 0-1.6-.1-2.1-.6-.3-.3-.8-1.2-1.1-1.9-.6-1.4-1-1.7-2.3-1.3-.5.1-.5.2-.5 2.2 0 1.4.1 2.1.3 2.3.2.1.9.4 1.7.6 3.1 1.1 5 1.1 7.2.3zm21-.2c1.2-.5 1.3-.6 1.4-1.3.1-.6 0-.7-.3-.6-.2.1-1 .2-1.7.3-1.7.1-2.7-.3-3.3-1.6-.4-.8-.4-1.4-.5-8.1l-.1-7.2h4.8l.1-.6c.1-.4.2-.9.3-1.2l.1-.6h-5.4V64.703h-2.2l-.1.9c-.2 1.3-1.3 3.4-2.1 4.1-.7.6-1.9 1.1-2.9 1.1-.5 0-.5.1-.5 1.1v1.1h2.6l.1 7.2c.1 7.7.2 8.5 1.4 10 .3.4 1.1 1 1.7 1.3 1.1.6 1.3.6 3.2.5 1.4-.2 2.5-.3 3.4-.7zm-198.1.3l.8-.1.4-3c.2-1.7.4-3.3.5-3.6.1-.6.1-.6-.9-.6s-1 0-1 .6c0 1.1-.7 2.7-1.5 3.4-1 .9-2 1.1-5 1.1-3.9 0-3.6.5-3.7-6.8l-.1-5.9 3 .1c4 .1 4.5.4 5 2.9.1.8.2.8.9.8h.7v-9.8h-.7c-.7 0-.7 0-1 1.4-.1.8-.4 1.6-.7 1.8-.7.7-3.2 1-6 .7l-1.2-.1v-11.2h2.7c1.5 0 3.1.1 3.6.3 1.1.3 1.8 1.3 2 2.8l.2 1.1.8-.1.8-.1v-6.4h-19.9v.6c0 .5.1.6 1.3.8 2.8.5 2.7-.1 2.7 14.1 0 12.9 0 13-1.3 13.6-.3.2-1.1.4-1.7.5-.9.1-1.1.2-1.1.7v.5l7.1-.1c3.8 0 8.2.1 9.7.1s3.1 0 3.6-.1zm65.5-.3c0-.5-.3-.7-1.2-1.1-1.3-.5-1.4-.9-1.4-7.7 0-6.5.1-7.1 1.3-8.5.9-1.1 1.9-1.5 3.3-1.5 3.1 0 3.8 2.2 3.6 11.4-.1 5.7-.2 6.1-1.8 6.5-.6.2-.8.3-.8.7v.5h11.2l-.1-.5c-.1-.4-.3-.5-1-.7-1.3-.2-2-.7-2.1-1.6-.1-.4-.2-3.7-.2-7.3 0-5.4-.1-6.7-.4-7.6-.5-1.6-1.5-2.8-2.9-3.6-1.1-.6-1.4-.7-3.3-.7-2.6 0-3.6.4-5.6 2.2l-1.3 1.3v-1.1c0-.6-.1-1.4-.1-1.9l-.1-.8-1.4.3c-1.1.2-5.5.7-6.4.8-.1 0-.2.3-.2.6 0 .5.1.6.7.6 1.3 0 2.2.5 2.4 1.5.3 1.2.3 15.1-.1 16.1-.3.9-1 1.3-2.2 1.3-.7 0-.8.1-.8.6v.6h5.6c4.1-.1 5.3-.2 5.3-.4zm54.9-.2c-.1-.3-.3-.6-1-.8-.5-.2-1.1-.5-1.2-.8-.2-.3-.3-2.3-.3-6.7-.1-6-.1-6.3.4-7.4.9-2.1 2.6-3.1 4.7-2.8 1.2.2 1.9.9 2.4 2.4.3 1 .4 2.2.4 7.7 0 4.7-.1 6.6-.3 6.9-.2.3-.7.6-1.2.8-.7.2-1 .5-1 .8l-.1.5h10.2v-.5c0-.4-.1-.6-.8-.7-1.6-.3-1.6-.3-1.6-7.6l-.1-6.6.6-1.2c.7-1.5 1.9-2.3 3.5-2.5 1.6-.1 2.5.3 3.1 1.7.5 1 .5 1.3.5 8.1 0 6.6 0 7.1-.4 7.5-.2.3-.8.5-1.2.6-.6.1-.7.2-.7.7v.5h11l-.1-.5c-.1-.4-.3-.6-1-.6-1.2-.2-1.9-.7-2.2-1.7-.1-.5-.2-3.5-.2-7.2 0-6.9-.1-7.7-1.3-9.5-.4-.7-1-1.2-1.8-1.7-1.1-.6-1.4-.7-3.2-.7-1.7 0-2.2.1-3.3.6-.7.3-1.9 1.2-2.6 1.9l-1.3 1.3-.8-1.3c-.5-.9-1.1-1.5-1.9-1.9-1-.6-1.3-.6-3.2-.6-2.5 0-3.6.4-5.6 2.3l-1.3 1.2v-1.4c0-.8-.1-1.6-.1-1.9-.1-.5-.2-.5-1.5-.2-1.1.2-5.5.8-6.4.8-.1 0-.2.3-.2.6 0 .5.1.6.6.6 1.2 0 2.1.5 2.4 1.2.5 1.1.4 15.3 0 16.4-.4.8-1 1.2-2.2 1.2-.7 0-.8.1-.8.6v.6h11.2l-.1-.7zm42.6.1c-.1-.2-.1-.4-.1-.5 0-.1-.5-.2-1-.3-1.6-.2-1.9-.7-2.1-3-.1-1.1-.2-5.6-.2-10v-8l-1.6.3c-.9.2-2.8.4-4.2.5-1.4.1-2.6.3-2.6.3-.3.3.3 1 .7 1 .9 0 1.9.5 2.2 1.1.4.8.7 9.2.4 13.5-.2 3.6-.4 4-2.1 4.2-1 .1-1.3.4-1.3.9 0 .2 1.3.3 6 .3 5.4.1 6 0 5.9-.3zm-4.8-26.2c2.2-1.2 2-4.6-.4-5.4-3.3-1.1-5.4 3.5-2.4 5.3.8.5 1.9.6 2.8.1zm-39.2-11.5c1.2-.3 2.6-1.1 3.8-2.3 1.3-1.2 1.5-1.5 1.1-2.2l-.3-.6-1.1 1c-2.6 2.5-5.9 2.8-8 .8-1.3-1.2-2.4-4.3-2.4-6.7v-.9h12.2l-.2-1.6c-.2-2-.6-3.1-1.6-4.6-1.5-2.2-3.6-3.1-6.9-2.9-4.1.2-7.2 3.1-8.1 7.6-.4 2-.4 3.8 0 5.6.4 1.9 1.1 3 2.4 4.4 2.3 2.5 5.5 3.3 9.1 2.4zm-6.9-13.4c.4-2.1.8-3.3 1.7-4.1.8-.8.9-.8 2.1-.8.9 0 1.4.1 2 .5.9.6 1.9 2.4 2.1 3.9l.1.9-.8.1c-.5.1-2.3.2-4 .3l-3.2.1v-.9zm-35.9 12.7c0-.6-.1-.6-.8-.6-1.1 0-1.9-.4-2.3-1.3-.4-.7-.4-1.8-.4-12.1v-11.3l2.5.2c1.4.1 2.9.3 3.3.5 1 .4 1.5 1.4 1.5 2.7 0 .9 0 .9.8.9h.8v-6.2h-23.4v1.6c0 .9-.1 2.3-.1 3.1l-.1 1.5.9-.1c.9-.1.9-.1 1-1.2.1-.6.2-1.3.4-1.6.4-.7 1.7-1.1 4.6-1.3l2.6-.2v11.5c0 12.9 0 12.6-1.5 13-.5.1-1.1.3-1.4.3-.4 0-.6.2-.6.6l-.1.6h12.4v-.6zm16 .1c0-.4-.2-.5-.7-.6-.4-.1-.9-.4-1.1-.7-.4-.5-.4-.9-.4-6.3 0-4.7.1-5.9.3-6.6.7-1.7 2-2.5 3.7-2.5 2.1 0 2.7.9 3.1 4.3.3 2.7.1 10-.2 10.9-.2.4-.5.7-1.1.8-.7.2-.9.3-.9.7v.5h10v-.5c0-.3-.1-.5-.4-.5-.2 0-.7-.1-1.2-.2-1.3-.4-1.4-.7-1.5-8-.1-6.3-.1-6.6-.6-7.6-.6-1.3-1.9-2.4-3.1-2.8-.5-.1-1.5-.3-2.3-.3-1.7 0-3.6.8-4.9 2.1l-.8.8v-11.8l-.5.1c-1.4.3-3.2.5-5.1.7-1.3.1-2.2.3-2.2.4 0 .5.3.7 1.2.9 1.1.2 1.6.7 1.8 2 .1.5.1 5.7.1 11.6-.1 12.2 0 11.7-1.8 12-.9.1-1.4.6-1.2 1 0 .1 2.3.1 5 .1h4.9l-.1-.5z"/>
</svg>