<svg xmlns="http://www.w3.org/2000/svg" viewBox="0 0 207.7 32.6" width="208" height="33" fill="currentColor"><title>Topshop</title><path d="M0 2.7h12.4v29.4h2.1V2.7h12.4v-2H0v2M43 0c-8.1 0-13.9 6.7-13.9 16.2S34.8 32.4 43 32.4s13.9-6.7 13.9-16.2S51.1 0 43 0m11.7 16.2c0 8.4-4.8 14.2-11.7 14.2s-11.7-5.8-11.7-14.2S36.1 2.1 43 2.1c6.9 0 11.7 5.8 11.7 14.1zM75.5.7H64.6V32h2.2V19.6h8c7.1 0 11.1-3.5 11.1-9.7 0-6-3.5-9.2-10.4-9.2m-.7 17h-8v-15h8.6c5.6 0 8.4 2.5 8.4 7.4-.1 5-3.1 7.6-9 7.6zm27.7-3.1c-6.6-1.5-7.9-3.6-7.9-6.7 0-2.6 1.9-5.7 7.3-5.7 3.6 0 5.8 1 7.9 2.6l.1.1 1.4-1.7-.1-.2c-2.5-1.8-5-2.9-9.2-2.9-5.8 0-9.6 3.1-9.6 7.8 0 4.5 2.6 7 9.2 8.6 5.6 1.3 8.2 3.7 8.2 7.8 0 5.6-4.8 6.4-7.7 6.4-3.2 0-6.1-1-8.8-3.3l-.1-.1-1.5 1.5.1.1c2.9 2.4 6.4 3.7 10.2 3.7 6.2 0 10-3.2 10-8.4 0-5.1-3-8.1-9.5-9.6m38.4.4h-18V.5h-2.2v31.4h2.2V17h18v14.9h2.1V.5h-2.1V15m23.8-15c-8.1 0-13.9 6.7-13.9 16.2s5.7 16.2 13.9 16.2c8.1 0 13.9-6.7 13.9-16.2S172.9 0 164.7 0m11.7 16.2c0 8.4-4.8 14.2-11.7 14.2S153 24.6 153 16.2 157.8 2 164.7 2c6.9.1 11.7 5.8 11.7 14.2zM197.2.7h-10.9V32h2.1V19.6h8.1c7.1 0 11.1-3.5 11.1-9.7.1-6-3.5-9.2-10.4-9.2m-.7 17h-8V2.6h8.6c5.6 0 8.4 2.5 8.4 7.4 0 5.1-3 7.7-9 7.7z"/></svg>
