<svg xmlns="http://www.w3.org/2000/svg" viewBox="0 0 207.7 32.6" width="208px" height="33px" fill="currentColor">
<g>
	<path d="M0,2.7h12.4v29.4h2.1V2.7h12.4V0.7H0V2.7 M43,0c-8.1,0-13.9,6.7-13.9,16.2S34.8,32.4,43,32.4
		s13.9-6.7,13.9-16.2S51.1,0,43,0 M54.7,16.2c0,8.4-4.8,14.2-11.7,14.2s-11.7-5.8-11.7-14.2S36.1,2.1,43,2.1
		C49.9,2.1,54.7,7.9,54.7,16.2z M75.5,0.7H64.6V32h2.2V19.6h8c7.1,0,11.1-3.5,11.1-9.7C85.9,3.9,82.4,0.7,75.5,0.7 M74.8,17.7h-8
		v-15h8.6c5.6,0,8.4,2.5,8.4,7.4C83.7,15.1,80.7,17.7,74.8,17.7z M102.5,14.6c-6.6-1.5-7.9-3.6-7.9-6.7c0-2.6,1.9-5.7,7.3-5.7
		c3.6,0,5.8,1,7.9,2.6l0.1,0.1l1.4-1.7L111.2,3c-2.5-1.8-5-2.9-9.2-2.9c-5.8,0-9.6,3.1-9.6,7.8c0,4.5,2.6,7,9.2,8.6
		c5.6,1.3,8.2,3.7,8.2,7.8c0,5.6-4.8,6.4-7.7,6.4c-3.2,0-6.1-1-8.8-3.3l-0.1-0.1l-1.5,1.5l0.1,0.1c2.9,2.4,6.4,3.7,10.2,3.7
		c6.2,0,10-3.2,10-8.4C112,19.1,109,16.1,102.5,14.6 M140.9,15h-18V0.5h-2.2v31.4h2.2V17h18v14.9h2.1V0.5h-2.1V15 M164.7,0
		c-8.1,0-13.9,6.7-13.9,16.2s5.7,16.2,13.9,16.2c8.1,0,13.9-6.7,13.9-16.2C178.6,6.7,172.9,0,164.7,0 M176.4,16.2
		c0,8.4-4.8,14.2-11.7,14.2S153,24.6,153,16.2s4.8-14.2,11.7-14.2C171.6,2.1,176.4,7.8,176.4,16.2z M197.2,0.7h-10.9V32h2.1V19.6
		h8.1c7.1,0,11.1-3.5,11.1-9.7C207.7,3.9,204.1,0.7,197.2,0.7 M196.5,17.7h-8V2.6h8.6c5.6,0,8.4,2.5,8.4,7.4
		C205.5,15.1,202.5,17.7,196.5,17.7L196.5,17.7z"/>
</g>
</svg>
