<svg xmlns="http://www.w3.org/2000/svg" width="212.95" height="143.6" viewBox="0 0 425.9 287.2"><title>MTV</title><path d="M135.756 173.346v113.607l19.587-14.364v-79.656l-19.587-19.588zM176.884 199.853l24.81-5.223 10.447-7.835V172.43l-35.256 27.423zM173.754 19.33L138.497 3.66l31.34 35.258 13.058-11.752-9.14-7.835z"/><path d="M417.163 37.653c-2.612-2.612-9.14-3.918-14.364-2.612-5.225 0-9.142 2.613-11.754 5.225L383.21 48.1l-2.61 3.917-6.53 9.14V12.843L353.177-.216v86.184l-5.223 6.53V-.216H217.37l-47.008 45.704L128.575-.216H-.702v287.282H129.88V160.4l39.176 39.175 47.01-40.48V285.76h130.582V164.318c1.306 0 2.612-1.306 2.612-1.306l1.306-1.306s1.305-1.305 2.61-3.917v129.276l20.894-14.364V119.92c1.306-1.306 2.612-3.918 2.612-3.918l2.612-5.223 5.223-6.53 1.306-2.612 5.223-6.53c1.306-2.61 3.918-3.916 3.918-3.916l2.61-2.612 3.92-3.917 6.528-2.612 6.53-3.917 5.222-7.834 2.612-9.142 1.306-9.14c2.61-5.224-1.306-10.448-6.53-14.365m-156.698 78.35v27.422c0 3.916 1.305 7.834 1.305 9.14v39.173c0 3.918-1.306 9.14 0 13.06v3.916c0 1.306 1.305 3.918 1.305 5.223 0 1.305 1.306 6.53 1.306 7.834 0 1.306 2.613 6.53 2.613 7.835 1.306 2.61 1.306 6.528 1.306 9.14-1.307 2.612-2.613 7.835-2.613 9.14l-2.612 2.613c0 1.305-1.306 1.305-2.61 2.61-2.613 1.307-7.836 1.307-11.754 0-1.305 0-3.916 0-7.834-2.61-2.61-1.306-3.917-5.224-3.917-7.835v-3.918s-1.307-5.223-1.307-6.53V227c0-2.612-1.306-6.53-1.306-6.53 0-1.305-1.306-5.223-1.306-5.223-1.305-2.61-1.305-5.223-1.305-6.53 0-3.916 0-6.528 1.306-10.446 0-1.306 1.307-2.612 1.307-5.224 0-1.306-1.306-6.53 0-7.835 0-1.305 0-2.61 1.306-3.916v-6.53-7.834-3.918-6.53-5.222-7.835-6.53-6.528c-1.306-13.06-2.612-15.67-3.918-15.67h-3.917c-1.306 0-2.612 2.61-5.223 3.917-1.306 1.306-5.224 2.612-6.53 3.918-1.305 1.305-3.917 2.61-7.834 5.223-1.305 0-1.305 1.306-2.61 2.612-3.92 2.61-6.53 6.53-10.448 7.834-2.61 1.307-3.917 2.613-5.223 3.92 0 0-2.613 3.916-3.92 6.528-2.61 1.306-2.61 2.612-3.916 3.918-1.306 1.305-1.306 3.917-2.612 5.223-2.61 1.305-7.835 2.61-11.752 1.305-2.612-1.306-6.53-3.918-7.835-7.835-1.306-5.224 0-10.447 3.917-14.364 2.612-2.612 6.53-3.918 9.14-5.224 2.613 0 3.92-1.305 6.53-2.61 1.306 0 3.918-2.613 3.918-2.613 1.306 0 3.917-1.307 3.917-2.613 0 0 3.918-2.61 5.224-3.917 3.918-1.306 6.53-3.918 7.836-3.918 0 0 5.223-2.61 7.835-5.223 1.306-1.307 3.918-1.307 6.53-3.918 1.305 0 3.917-1.306 5.223-1.306 0 0 2.612-2.612 3.917-2.612 2.612-1.306 3.918-3.917 3.918-7.835 0-1.307-1.306-2.612 0-5.224 0 0 1.306-3.918 1.306-5.223 0-1.306 1.306-1.306 1.306-1.306 0-1.306 2.61-1.306 3.917-2.612 1.306-1.306 2.612-1.306 3.918-1.306 3.917-1.307 9.14 2.61 10.446 2.61h5.224s1.306-1.305 2.612-1.305 3.918-1.306 3.918-1.306c1.305 0 5.223-2.612 5.223-2.612 1.306 0 3.917-1.306 3.917-1.306 1.306-1.306 5.224-2.612 6.53-3.918 1.305-1.305 3.917-3.917 3.917-5.223 1.307-1.305 3.918-3.916 5.224-3.916 1.306-1.306 3.918-2.612 6.53-3.918h5.223c1.306 0 3.917 0 6.53 2.612 1.305 1.306 2.61 2.61 2.61 5.223 1.306 6.53-3.917 13.06-6.53 14.365l-2.61 1.306c-1.306 0-2.612 1.307-3.918 1.307-2.612 0-2.612 1.306-3.918 2.61-1.306 0-3.918 2.613-3.918 2.613-1.306 0-1.306 2.612-3.917 2.612-1.306 0-3.918 1.306-6.53 2.61-1.305 1.307-5.223 1.307-6.528 1.307 0 0-5.225 2.61-5.225 5.223 0 2.61 0 3.917-1.306 7.834-1.306 2.612-1.306 6.53-1.306 7.835m160.616-56.15c0 1.306-1.306 6.53-2.612 9.14 0 1.307-2.61 5.224-5.223 6.53-1.306 1.306-3.917 2.61-5.223 2.61s-6.53 2.613-7.835 3.92l-3.918 3.916c0 1.306-1.306 1.306-2.612 2.612 0 0-5.224 2.612-6.53 5.223-1.305 2.612-5.223 6.53-6.528 7.835-1.306 2.612-2.612 5.224-3.918 6.53 0 0-1.306 1.305-1.306 2.61 0 1.307-1.306 1.307-1.306 2.613v1.307c-1.305 1.305-2.61 3.917-2.61 3.917-2.613 1.306-3.92 3.918-3.92 5.223 0 1.306-2.61 5.224-3.916 7.835 0 1.306-2.612 5.224-2.612 6.53 0 1.305-3.917 3.917-3.917 5.223s-1.306 2.61-1.306 3.917c-1.307 0-2.613 2.612-2.613 2.612 0 1.306-1.306 1.306-1.306 2.612 0 1.305-1.304 1.305-1.304 2.61-1.306 1.307-1.306 2.613-2.612 3.92l-1.306 1.305c0 1.306-5.223 9.14-6.53 10.447 0 1.306-1.305 2.612-1.305 2.612-1.306 2.61-2.612 3.916-3.917 6.528 0 1.306-1.306 3.917-1.306 3.917-1.306 5.224-2.612 10.447-2.612 11.753v13.058c-1.306 3.918-2.61 6.53-3.917 9.14 0 1.307-2.61 2.613-3.917 5.224-1.306 1.306-3.917 1.306-7.835 2.612-6.53 0-9.14-2.612-11.752-6.53 0-1.305-1.306-2.61-2.612-5.223-1.306-3.918-2.61-6.53-3.917-10.447 0-1.306-1.306-2.612-1.306-3.918s-1.305-5.223-1.305-6.53c0-1.305-1.306-5.222-1.306-5.222 0-2.612-1.307-5.223-2.612-7.835-1.306-2.612-1.306-5.223-1.306-7.835s-1.306-6.53-2.612-9.14c0 0-1.306-6.53-2.612-7.836-1.305-2.61-3.917-10.446-3.917-10.446-1.305-2.61-3.917-9.14-3.917-10.446-2.61-10.447-2.61-18.282-1.305-20.893 1.305-1.305 2.61-2.61 5.223-3.917l3.918-2.61c1.306 0 5.224-1.307 7.835 0 0 0 3.918 0 5.224 1.304 3.917 2.612 3.917 6.53 5.223 14.365 0 0 1.306 7.835 1.306 10.446 0 2.612 0 3.918 1.306 6.53v5.223c0 2.612 1.305 7.836 1.305 7.836 1.306 3.917 1.306 6.53 5.224 7.835h3.918c1.306-1.305 3.918-6.53 5.224-10.446 0 0 0-1.306 1.305-1.306 1.306-1.306 2.612-2.612 2.612-6.53 0-1.305 1.305-2.61 2.61-5.222 1.307-1.306 2.612-2.612 2.612-3.918l3.918-6.53s1.306-3.916 2.61-5.222c1.307-1.306 1.307-2.612 1.307-3.918s1.306-3.917 2.612-6.53c2.61-2.61 3.916-7.834 3.916-7.834 0-1.306 1.306-2.61 2.612-5.223 0-1.305 1.306-1.305 1.306-2.61l3.917-3.918 2.613-2.612c1.306-1.306 2.612-2.612 3.917-5.223 1.306-1.306 2.612-3.918 3.918-5.224 1.306-1.305 6.53-7.834 6.53-9.14l3.917-3.918 2.61-2.61c2.613-1.307 3.92-2.613 5.225-3.92l3.917-3.916s1.306-2.613 2.612-3.92l6.528-6.528c2.61-2.612 5.223-3.917 10.446-5.223 5.224 0 10.447 0 13.06 2.61 3.916 2.612 6.528 7.835 6.528 10.447-1.306 3.917-1.306 5.223-2.612 7.835"/></svg>
