<svg xmlns="http://www.w3.org/2000/svg" viewBox="-619 448.6 40 40" width="42" height="42"><title>Instagram</title><path d="M-613.2 448.6c-1.6 0-3 .6-4.1 1.7s-1.7 2.5-1.7 4.1v28.3c0 1.6.6 3 1.7 4.1s2.5 1.7 4.1 1.7h28.3c1.6 0 3-.6 4.1-1.7s1.7-2.5 1.7-4.1v-28.3c0-1.6-.6-3-1.7-4.1s-2.5-1.7-4.1-1.7h-28.3zm-1.6 10v-5c0-.2.1-.4.2-.6s.4-.2.6-.2h5c.2 0 .4.1.6.2s.2.4.2.6v5c0 .2-.1.4-.2.6s-.4.2-.6.2h-5c-.2 0-.4-.1-.6-.2s-.2-.4-.2-.6zm15.8 2.5c2.1 0 3.8.7 5.3 2.2s2.2 3.2 2.2 5.3-.7 3.8-2.2 5.3-3.2 2.2-5.3 2.2-3.8-.7-5.3-2.2-2.2-3.2-2.2-5.3.7-3.8 2.2-5.3 3.2-2.2 5.3-2.2zm-15.8 22.5v-17.5h4.4c-.2.8-.3 1.6-.3 2.5 0 2.1.5 4.1 1.6 5.8s2.5 3.2 4.2 4.2 3.7 1.6 5.8 1.6 4.1-.5 5.8-1.6 3.2-2.5 4.2-4.2 1.6-3.7 1.6-5.8c0-.9-.1-1.7-.3-2.5h4.4v17.5c0 .2-.1.4-.2.6s-.4.2-.6.2h-30c-.2 0-.4-.1-.6-.2s0-.4 0-.6z"/></svg>