<svg xmlns="http://www.w3.org/2000/svg" viewBox="-619.7 450.3 42 42" width="42" height="42"><title>Soundcloud</title><path d="M-600.7 462.5v18.3c0 .2.1.3.2.5s.3.2.4.2h15.9c1.6 0 3-.6 4.1-1.7s1.7-2.5 1.7-4.1-.6-3-1.7-4.1-2.5-1.7-4.1-1.7c-.8 0-1.5.1-2.2.4-.1-1.7-.7-3.3-1.6-4.7s-2.2-2.6-3.7-3.4-3.1-1.3-4.9-1.3c-1 0-2.2.3-3.6.8-.3.2-.4.4-.5.8zm-3 15.3c.2-1.2.2-2.1.2-2.6 0-.6-.1-2.3-.3-5.2s-.4-4.8-.6-5.9c0-.2-.1-.3-.3-.5s-.3-.2-.5-.2-.4.1-.5.2-.3.3-.3.5c-.2 1.1-.4 3.1-.6 5.9s-.3 4.5-.3 5.2c0 .5.1 1.4.2 2.6s.4 2.3.6 3.2c.1.2.2.4.3.5s.4.2.6.2c.2 0 .4-.1.6-.2s.3-.3.3-.5c.3-1 .5-2 .6-3.2zm-6 .1c.2-1.3.2-2.2.2-2.6 0-.5-.1-1.7-.3-3.5s-.4-3.2-.6-4.3c-.1-.2-.2-.4-.3-.5s-.3-.2-.5-.2-.4.1-.5.2-.3.3-.3.5c-.2 1.1-.4 2.5-.6 4.3s-.3 2.9-.3 3.5c0 .4.1 1.3.3 2.6s.4 2.3.5 2.9c.2.5.5.8 1 .8s.8-.3 1-.8c0-.6.2-1.6.4-2.9zm-9.1-4c-.2.8-.2 1.4-.2 1.7s.1.9.2 1.7.4 1.6.6 2.3c.1.4.4.6.9.6s.8-.2.9-.6c.2-.7.4-1.4.6-2.3s.2-1.4.2-1.7-.1-.9-.2-1.7-.4-1.6-.6-2.3c-.1-.4-.4-.7-.9-.7s-.8.2-.9.7c-.2.7-.4 1.4-.6 2.3z"/></svg>