<svg version="1.1" xmlns="http://www.w3.org/2000/svg" xmlns:xlink="http://www.w3.org/1999/xlink" x="0px" y="0px" viewBox="-620 447.6 42 42" xml:space="preserve" width="42px" height="42px">
<path d="M-616.1,461c-1.9,2.5-2.9,5.3-2.9,8.4c0,2.3,0.3,4.4,0.9,6.2s1.4,3.3,2.5,4.5s2.5,2.2,4.1,3s3.5,1.3,5.5,1.7
	s4.3,0.5,6.9,0.5c3.2,0,6-0.3,8.4-0.8s4.5-1.5,6.2-2.7s3.1-2.9,4-4.9s1.3-4.5,1.3-7.4c0-3.2-1-6-2.9-8.4c0.7-3.7,0.5-6.8-0.4-9.1
	c-3.2,0.2-6,1.4-8.7,3.5c-2.5-0.7-5.2-1-8-1c-2.8,0-5.4,0.3-7.9,1c-2.7-2.1-5.7-3.3-8.8-3.5C-616.6,454.3-616.8,457.3-616.1,461z
	 M-599,482.8c-9.8,0-14.7-2.8-14.7-8.3c0-1.1,0.2-2.1,0.5-3s0.8-1.6,1.3-2.1s1.1-0.9,1.8-1.2s1.3-0.5,1.9-0.7s1.2-0.2,1.7-0.2
	c0.6,0,1.6,0.1,2.8,0.2s2.8,0.2,4.7,0.2s3.4-0.1,4.7-0.2s2.2-0.2,2.8-0.2c0.6,0,1.1,0.1,1.7,0.2s1.2,0.3,1.9,0.7s1.3,0.7,1.8,1.2
	s1,1.2,1.3,2.1s0.5,1.9,0.5,3C-584.3,480-589.2,482.8-599,482.8z M-592.8,471.1c-1.4,0-2.1,1.2-2.1,3.8s0.7,3.8,2.1,3.8
	s2.1-1.2,2.1-3.8S-591.4,471.1-592.8,471.1z M-605.2,471.1c-1.4,0-2.1,1.2-2.1,3.8s0.7,3.8,2.1,3.8s2.1-1.2,2.1-3.8
	S-603.9,471.1-605.2,471.1z"/>
</svg>
