<svg xmlns="http://www.w3.org/2000/svg" viewBox="-620 447.6 42 42" width="42" height="42"><path d="M-616.1 461c-1.9 2.5-2.9 5.3-2.9 8.4 0 2.3.3 4.4.9 6.2s1.4 3.3 2.5 4.5 2.5 2.2 4.1 3 3.5 1.3 5.5 1.7 4.3.5 6.9.5c3.2 0 6-.3 8.4-.8s4.5-1.5 6.2-2.7 3.1-2.9 4-4.9 1.3-4.5 1.3-7.4c0-3.2-1-6-2.9-8.4.7-3.7.5-6.8-.4-9.1-3.2.2-6 1.4-8.7 3.5-2.5-.7-5.2-1-8-1s-5.4.3-7.9 1c-2.7-2.1-5.7-3.3-8.8-3.5-.7 2.3-.9 5.3-.2 9zm17.1 21.8c-9.8 0-14.7-2.8-14.7-8.3 0-1.1.2-2.1.5-3s.8-1.6 1.3-2.1 1.1-.9 1.8-1.2 1.3-.5 1.9-.7 1.2-.2 1.7-.2c.6 0 1.6.1 2.8.2s2.8.2 4.7.2 3.4-.1 4.7-.2 2.2-.2 2.8-.2c.6 0 1.1.1 1.7.2s1.2.3 1.9.7 1.3.7 1.8 1.2 1 1.2 1.3 2.1.5 1.9.5 3c0 5.5-4.9 8.3-14.7 8.3zm6.2-11.7c-1.4 0-2.1 1.2-2.1 3.8s.7 3.8 2.1 3.8 2.1-1.2 2.1-3.8-.7-3.8-2.1-3.8zm-12.4 0c-1.4 0-2.1 1.2-2.1 3.8s.7 3.8 2.1 3.8 2.1-1.2 2.1-3.8-.8-3.8-2.1-3.8z"/></svg>