<svg xmlns="http://www.w3.org/2000/svg" viewBox="-620 447.4 42 42"><path d="M-585.7 457.8v-6.7h-1.7v6.7h-6.7v1.7h6.7v6.7h1.7v-6.7h6.7v-1.7h-6.7zm-17.8 12c-.6-.7-.9-1.2-.9-1.7 0-.6.1-1.1.4-1.4s.8-.9 1.6-1.6c2-1.5 2.9-3.3 2.9-5.4 0-1.4-.3-2.6-.9-3.8s-1.4-1.9-2.5-2.3h3.3l2.4-1.7h-10.5c-1.5 0-3 .3-4.4 1s-2.5 1.6-3.4 2.8-1.3 2.5-1.3 3.8c0 2.1.7 4 2.2 5.4s3.4 2.2 5.7 2.2h1c-.3.6-.5 1.3-.5 2 0 1 .5 2 1.4 2.9h-1.8c-2.8 0-5.2.8-7.3 2.3s-3 3.3-3 5.3c0 1.2.5 2.3 1.5 3.3s2.3 1.7 3.9 2.2 3.4.7 5.3.7c1.6 0 3.1-.2 4.4-.6s2.4-1 3.3-1.7 1.5-1.5 2-2.4.7-1.8.7-2.8c0-1.5-.3-2.8-.8-3.8s-1.5-2-2.8-3c-.6-.5-1.3-1.1-1.9-1.7zm-7.4-5.7c-1.1-1.3-1.8-2.8-2-4.6-.2-1.8 0-3.2.8-4.4s1.9-1.8 3.2-1.7c1.4 0 2.6.7 3.7 1.9s1.8 2.8 2 4.5c.2 1.8 0 3.3-.8 4.5s-1.9 1.8-3.2 1.8c-1.4 0-2.6-.7-3.7-2zm-2.3 18.3c-1.3-1.1-2-2.4-2-4 0-1 .4-1.9 1.1-2.7s1.6-1.5 2.8-2 2.4-.7 3.7-.7c1 .1 1.8.2 2.6.4.2.1.5.3 1 .7s.8.6 1 .7.4.3.7.6.6.5.7.7.3.4.4.7.3.5.4.8c.1.5.1.9.1 1.1 0 1.7-.6 3-1.8 4s-3.1 1.5-5.8 1.5c-2-.1-3.6-.7-4.9-1.8z"/></svg>