<svg version="1.1" id="Layer_1" xmlns="http://www.w3.org/2000/svg" xmlns:xlink="http://www.w3.org/1999/xlink" x="0px" y="0px"
	 viewBox="-620 447.4 42 42" enable-background="new -620 447.4 42 42" xml:space="preserve">
<path d="M-585.7,457.8v-6.7h-1.7v6.7h-6.7v1.7h6.7v6.7h1.7v-6.7h6.7v-1.7H-585.7z M-603.5,469.8c-0.6-0.7-0.9-1.2-0.9-1.7
	c0-0.6,0.1-1.1,0.4-1.4s0.8-0.9,1.6-1.6c2-1.5,2.9-3.3,2.9-5.4c0-1.4-0.3-2.6-0.9-3.8s-1.4-1.9-2.5-2.3h3.3l2.4-1.7h-10.5
	c-1.5,0-3,0.3-4.4,1s-2.5,1.6-3.4,2.8s-1.3,2.5-1.3,3.8c0,2.1,0.7,4,2.2,5.4s3.4,2.2,5.7,2.2c0.4,0,0.8,0,1,0
	c-0.3,0.6-0.5,1.3-0.5,2c0,1,0.5,2,1.4,2.9h-1.8c-2.8,0-5.2,0.8-7.3,2.3s-3,3.3-3,5.3c0,1.2,0.5,2.3,1.5,3.3s2.3,1.7,3.9,2.2
	s3.4,0.7,5.3,0.7c1.6,0,3.1-0.2,4.4-0.6s2.4-1,3.3-1.7s1.5-1.5,2-2.4s0.7-1.8,0.7-2.8c0-1.5-0.3-2.8-0.8-3.8s-1.5-2-2.8-3
	C-602.2,471-602.9,470.4-603.5,469.8z M-610.9,464.1c-1.1-1.3-1.8-2.8-2-4.6c-0.2-1.8,0-3.2,0.8-4.4s1.9-1.8,3.2-1.7
	c1.4,0,2.6,0.7,3.7,1.9s1.8,2.8,2,4.5c0.2,1.8,0,3.3-0.8,4.5s-1.9,1.8-3.2,1.8C-608.6,466.1-609.8,465.4-610.9,464.1z M-613.2,482.4
	c-1.3-1.1-2-2.4-2-4c0-1,0.4-1.9,1.1-2.7s1.6-1.5,2.8-2s2.4-0.7,3.7-0.7c1,0.1,1.8,0.2,2.6,0.4c0.2,0.1,0.5,0.3,1,0.7s0.8,0.6,1,0.7
	s0.4,0.3,0.7,0.6s0.6,0.5,0.7,0.7s0.3,0.4,0.4,0.7s0.3,0.5,0.4,0.8c0.1,0.5,0.1,0.9,0.1,1.1c0,1.7-0.6,3-1.8,4s-3.1,1.5-5.8,1.5
	C-610.3,484.1-611.9,483.5-613.2,482.4z"/>
</svg>
