<svg version="1.1" xmlns="http://www.w3.org/2000/svg" xmlns:xlink="http://www.w3.org/1999/xlink" x="0px" y="0px" viewBox="-619 448.6 40 40" xml:space="preserve" width="42px" height="42px">
<path d="M-613.2,448.6c-1.6,0-3,0.6-4.1,1.7s-1.7,2.5-1.7,4.1v28.3c0,1.6,0.6,3,1.7,4.1s2.5,1.7,4.1,1.7h28.3c1.6,0,3-0.6,4.1-1.7
	s1.7-2.5,1.7-4.1v-28.3c0-1.6-0.6-3-1.7-4.1s-2.5-1.7-4.1-1.7H-613.2z M-614.8,458.6v-5c0-0.2,0.1-0.4,0.2-0.6s0.4-0.2,0.6-0.2h5
	c0.2,0,0.4,0.1,0.6,0.2s0.2,0.4,0.2,0.6v5c0,0.2-0.1,0.4-0.2,0.6s-0.4,0.2-0.6,0.2h-5c-0.2,0-0.4-0.1-0.6-0.2
	S-614.8,458.8-614.8,458.6z M-599,461.1c2.1,0,3.8,0.7,5.3,2.2s2.2,3.2,2.2,5.3s-0.7,3.8-2.2,5.3s-3.2,2.2-5.3,2.2s-3.8-0.7-5.3-2.2
	s-2.2-3.2-2.2-5.3s0.7-3.8,2.2-5.3S-601.1,461.1-599,461.1z M-614.8,483.6v-17.5h4.4c-0.2,0.8-0.3,1.6-0.3,2.5
	c0,2.1,0.5,4.1,1.6,5.8s2.5,3.2,4.2,4.2s3.7,1.6,5.8,1.6s4.1-0.5,5.8-1.6s3.2-2.5,4.2-4.2s1.6-3.7,1.6-5.8c0-0.9-0.1-1.7-0.3-2.5
	h4.4v17.5c0,0.2-0.1,0.4-0.2,0.6s-0.4,0.2-0.6,0.2h-30c-0.2,0-0.4-0.1-0.6-0.2S-614.8,483.8-614.8,483.6z"/>
</svg>
