<svg version="1.1" xmlns="http://www.w3.org/2000/svg" xmlns:xlink="http://www.w3.org/1999/xlink" x="0px" y="0px"
	 viewBox="-620 447.6 42 42" enable-background="new -620 447.6 42 42" xml:space="preserve" width="42px" height="42px">
<path d="M-597.7,465.4c-0.3-0.8-0.6-1.6-1-2.4s-0.8-1.5-1.2-2s-0.9-1-1.5-1.5s-1.2-0.9-1.9-1.1s-1.5-0.5-2.4-0.6s-1.9-0.2-3-0.2
	c-1.4,0-2.8,0.2-4,0.6s-2.3,1.1-3.3,2s-1.7,2.1-2.3,3.6s-0.8,3.3-0.8,5.3c0,1.6,0.2,3.1,0.6,4.3s0.9,2.3,1.5,3.1s1.4,1.4,2.3,1.9
	s1.8,0.9,2.7,1.1s1.9,0.3,3,0.3c0.9,0,1.8-0.1,2.7-0.3s1.6-0.4,2.1-0.6s1.1-0.4,1.5-0.7s0.8-0.5,0.9-0.6s0.2-0.2,0.3-0.3l-1.5-4
	l-0.3,0.3c-0.2,0.2-0.4,0.4-0.8,0.7s-0.8,0.5-1.2,0.8s-1,0.5-1.7,0.7s-1.4,0.3-2.1,0.3c-1.4,0-2.6-0.7-3.6-2s-1.5-3.2-1.5-5.5
	c0-2.3,0.5-4.1,1.5-5.5s2.4-2,4.1-2c0.5,0,1,0,1.4,0.1s0.8,0.2,1.2,0.3s0.7,0.3,1,0.6s0.6,0.5,0.8,0.7s0.4,0.5,0.7,1
	s0.4,0.8,0.6,1.1s0.3,0.7,0.5,1.2s0.3,1,0.4,1.3s0.3,0.8,0.5,1.4s0.4,1.1,0.5,1.5c0,0.1,0.1,0.2,0.1,0.4c0.2,0.5,0.3,0.9,0.4,1.2
	s0.3,0.8,0.5,1.3s0.4,1,0.7,1.3s0.5,0.8,0.9,1.3s0.7,0.9,1.2,1.2s0.9,0.7,1.5,1s1.2,0.6,1.8,0.8s1.4,0.4,2.3,0.5s1.8,0.2,2.7,0.2
	c1.8,0,3.4-0.1,4.7-0.4s2.3-0.7,3.1-1.3s1.3-1.2,1.7-2s0.5-1.6,0.5-2.6c0-1-0.1-1.8-0.4-2.6s-0.6-1.3-1.1-1.8s-1-0.8-1.5-1.1
	s-1.2-0.6-1.8-0.7s-1.3-0.3-1.9-0.4s-1.2-0.3-1.8-0.4s-1.1-0.3-1.5-0.5s-0.8-0.5-1.1-0.9s-0.4-0.8-0.4-1.4c0-0.8,0.3-1.4,0.9-1.8
	s1.4-0.7,2.4-0.7c1.1,0,2,0.2,2.5,0.7s0.9,1.1,1,2.1l4.6-0.5c-0.4-3.9-3-5.8-7.9-5.8c-2.4,0-4.4,0.5-5.9,1.6s-2.2,2.7-2.2,5
	c0,0.9,0.1,1.7,0.4,2.4s0.6,1.2,1.1,1.7s1,0.8,1.5,1.1s1.2,0.5,1.8,0.7s1.3,0.3,1.9,0.5s1.2,0.3,1.8,0.4s1.1,0.3,1.5,0.6
	s0.8,0.5,1.1,0.9s0.4,0.8,0.4,1.4c0,1.7-1.6,2.5-4.8,2.5c-0.8,0-1.5-0.1-2.1-0.2s-1.2-0.3-1.7-0.6s-0.9-0.6-1.3-0.9s-0.8-0.8-1-1.2
	s-0.6-0.9-0.8-1.5s-0.5-1.1-0.7-1.7s-0.4-1.1-0.6-1.8C-597.1,467.1-597.4,466.2-597.7,465.4z"/>
</svg>
