<svg xmlns="http://www.w3.org/2000/svg" viewBox="-620 447.6 42 42" width="42" height="42"><path d="M-597.7 465.4c-.3-.8-.6-1.6-1-2.4s-.8-1.5-1.2-2-.9-1-1.5-1.5-1.2-.9-1.9-1.1-1.5-.5-2.4-.6-1.9-.2-3-.2c-1.4 0-2.8.2-4 .6s-2.3 1.1-3.3 2-1.7 2.1-2.3 3.6-.8 3.3-.8 5.3c0 1.6.2 3.1.6 4.3s.9 2.3 1.5 3.1 1.4 1.4 2.3 1.9 1.8.9 2.7 1.1 1.9.3 3 .3c.9 0 1.8-.1 2.7-.3s1.6-.4 2.1-.6 1.1-.4 1.5-.7.8-.5.9-.6l.3-.3-1.5-4-.3.3c-.2.2-.4.4-.8.7s-.8.5-1.2.8-1 .5-1.7.7-1.4.3-2.1.3c-1.4 0-2.6-.7-3.6-2s-1.5-3.2-1.5-5.5.5-4.1 1.5-5.5 2.4-2 4.1-2c.5 0 1 0 1.4.1l1.2.3s.7.3 1 .6.6.5.8.7.4.5.7 1 .4.8.6 1.1.3.7.5 1.2.3 1 .4 1.3.3.8.5 1.4.4 1.1.5 1.5c0 .1.1.2.1.4.2.5.3.9.4 1.2s.3.8.5 1.3.4 1 .7 1.3.5.8.9 1.3.7.9 1.2 1.2.9.7 1.5 1 1.2.6 1.8.8 1.4.4 2.3.5 1.8.2 2.7.2c1.8 0 3.4-.1 4.7-.4s2.3-.7 3.1-1.3 1.3-1.2 1.7-2 .5-1.6.5-2.6-.1-1.8-.4-2.6-.6-1.3-1.1-1.8-1-.8-1.5-1.1-1.2-.6-1.8-.7-1.3-.3-1.9-.4-1.2-.3-1.8-.4-1.1-.3-1.5-.5-.8-.5-1.1-.9-.4-.8-.4-1.4c0-.8.3-1.4.9-1.8s1.4-.7 2.4-.7c1.1 0 2 .2 2.5.7s.9 1.1 1 2.1l4.6-.5c-.4-3.9-3-5.8-7.9-5.8-2.4 0-4.4.5-5.9 1.6s-2.2 2.7-2.2 5c0 .9.1 1.7.4 2.4s.6 1.2 1.1 1.7 1 .8 1.5 1.1 1.2.5 1.8.7 1.3.3 1.9.5 1.2.3 1.8.4 1.1.3 1.5.6.8.5 1.1.9.4.8.4 1.4c0 1.7-1.6 2.5-4.8 2.5-.8 0-1.5-.1-2.1-.2s-1.2-.3-1.7-.6-.9-.6-1.3-.9-.8-.8-1-1.2-.6-.9-.8-1.5-.5-1.1-.7-1.7-.4-1.1-.6-1.8c-.6-1.2-.9-2.1-1.2-2.9z"/></svg>