<svg version="1.1" xmlns="http://www.w3.org/2000/svg" xmlns:xlink="http://www.w3.org/1999/xlink" x="0px" y="0px" viewBox="-620 448 42 42" xml:space="preserve" width="42px" height="42px">
<path d="M-610.4,450.7c-0.9-0.9-2.1-1.3-3.6-1.3c-1.5,0-2.7,0.4-3.6,1.3s-1.4,2-1.4,3.3c0,1.3,0.5,2.4,1.4,3.3s2.1,1.3,3.5,1.3h0.1
	c1.5,0,2.7-0.4,3.7-1.3s1.4-2,1.4-3.3C-609,452.7-609.5,451.6-610.4,450.7z M-618.2,488.6h8.3v-25.8h-8.3V488.6z M-595.2,469.9
	c0.9-0.9,2-1.3,3.3-1.3c1.3,0,2.4,0.5,3.3,1.4s1.3,2.4,1.3,4.4v14.2h8.3v-15c0-3.7-0.9-6.5-2.8-8.6s-4.3-3.1-7.2-3.1
	c-1.6,0-3,0.4-4.3,1.2s-2.3,1.9-3.2,3.2l-0.3-3.6h-8.2c0,0.6,0,2.5,0.1,5.8v20h8.3v-15C-596.5,472-596.1,470.8-595.2,469.9z"/>
</svg>
