<svg xmlns="http://www.w3.org/2000/svg" viewBox="-620 448 42 42" width="42" height="42"><path d="M-610.4 450.7c-.9-.9-2.1-1.3-3.6-1.3s-2.7.4-3.6 1.3-1.4 2-1.4 3.3c0 1.3.5 2.4 1.4 3.3s2.1 1.3 3.5 1.3h.1c1.5 0 2.7-.4 3.7-1.3s1.4-2 1.4-3.3c-.1-1.3-.6-2.4-1.5-3.3zm-7.8 37.9h8.3v-25.8h-8.3v25.8zm23-18.7c.9-.9 2-1.3 3.3-1.3 1.3 0 2.4.5 3.3 1.4s1.3 2.4 1.3 4.4v14.2h8.3v-15c0-3.7-.9-6.5-2.8-8.6s-4.3-3.1-7.2-3.1c-1.6 0-3 .4-4.3 1.2s-2.3 1.9-3.2 3.2l-.3-3.6h-8.2c0 .6 0 2.5.1 5.8v20h8.3v-15c.1-1.5.5-2.7 1.4-3.6z"/></svg>