<svg version="1.1" xmlns="http://www.w3.org/2000/svg" xmlns:xlink="http://www.w3.org/1999/xlink" x="0px" y="0px"
	 viewBox="-620 447.6 42 42" enable-background="new -620 447.6 42 42" xml:space="preserve" width="42px" height="42px">
<path d="M-618.8,487.2c-0.1,0.2-0.2,0.4-0.2,0.6c0,0.2,0.1,0.4,0.2,0.6c0.2,0.2,0.4,0.2,0.6,0.2c0.2,0,0.4-0.1,0.5-0.2l16.4-13.4
	l7.5,7.5c0.2,0.2,0.4,0.2,0.6,0.2c0.1,0,0.3,0,0.4-0.1c0.4-0.2,0.5-0.6,0.4-1l-2.2-6.2l12.2-14.3l1,1c0.2,0.3,0.6,0.4,1,0.4
	c0.4,0,0.7-0.1,1-0.4s0.4-0.6,0.4-1s-0.1-0.7-0.4-1l-11.2-11.2c-0.3-0.3-0.6-0.4-1-0.4c-0.4,0-0.7,0.1-1,0.4s-0.4,0.6-0.4,1
	s0.1,0.7,0.4,1l1,1l-14.3,12.2l-6.2-2.2c-0.4-0.1-0.8,0-1,0.4c-0.2,0.4-0.2,0.7,0.1,1l7.5,7.5L-618.8,487.2z"/>
</svg>
