<svg version="1.1" xmlns="http://www.w3.org/2000/svg" xmlns:xlink="http://www.w3.org/1999/xlink" x="0px" y="0px"
	 viewBox="-620 447.6 42 42" enable-background="new -620 447.6 42 42" xml:space="preserve" width="42px" height="42px">
<path d="M-604,449.5c-1.8,0.6-3.4,1.3-4.6,2.3c-1.3,1-2.3,2.1-3.2,3.3s-1.6,2.5-2,3.9s-0.6,2.7-0.6,4c0,2.1,0.4,3.9,1.2,5.4
	c0.8,1.6,2,2.7,3.5,3.3c0.3,0.1,0.5,0.1,0.7,0c0.2-0.1,0.3-0.3,0.4-0.6c0.3-1,0.4-1.6,0.5-1.8c0.1-0.3,0.1-0.5,0-0.6
	s-0.2-0.3-0.4-0.6c-1-1.2-1.5-2.8-1.5-4.6c0-1.4,0.3-2.8,0.8-4.2c0.5-1.3,1.3-2.5,2.2-3.5s2.2-1.8,3.6-2.4s3-0.9,4.7-0.9
	c3,0,5.3,0.8,7,2.5s2.5,3.8,2.5,6.4c0,2.2-0.3,4.2-0.9,6.1c-0.6,1.8-1.5,3.3-2.6,4.5s-2.4,1.7-3.8,1.7c-1.2,0-2.2-0.4-3-1.3
	c-0.7-0.9-1-1.9-0.7-3.1c0.2-0.7,0.4-1.6,0.8-2.8s0.7-2.2,0.9-3.1c0.2-0.9,0.3-1.6,0.3-2.2c0-1-0.3-1.8-0.8-2.5
	c-0.5-0.6-1.3-1-2.3-1c-1.2,0-2.3,0.6-3.1,1.7c-0.8,1.1-1.3,2.5-1.3,4.2c0,1.4,0.2,2.7,0.7,3.7l-2.9,12.5c-0.1,0.6-0.2,1.2-0.3,1.9
	c-0.1,0.7-0.1,1.3-0.1,1.9c0,0.6,0,1.2,0,1.8c0,0.6,0.1,1.1,0.1,1.5s0.1,0.8,0.1,1.1c0,0.4,0.1,0.5,0.1,0.5c0,0.1,0.1,0.2,0.2,0.2
	c0.1,0,0.2,0,0.3-0.1c0.2-0.3,0.6-0.7,1-1.3c0.4-0.6,1-1.5,1.7-2.7c0.7-1.2,1.2-2.4,1.5-3.5c0.2-0.7,0.7-2.8,1.6-6.3
	c0.4,0.8,1.2,1.4,2.2,2c1.1,0.5,2.2,0.8,3.4,0.8c2.4,0,4.6-0.7,6.4-2.1c1.9-1.4,3.3-3.2,4.4-5.6c1-2.4,1.5-5.1,1.5-8.1
	c0-1.7-0.4-3.3-1.1-4.9s-1.7-3-2.9-4.2c-1.2-1.2-2.8-2.2-4.6-2.9c-1.8-0.7-3.8-1.1-6-1.1C-600.2,448.6-602.2,448.9-604,449.5z"/>
</svg>
