<svg version="1.1" xmlns="http://www.w3.org/2000/svg" xmlns:xlink="http://www.w3.org/1999/xlink" x="0px" y="0px"
	 viewBox="-619.7 450.3 42 42" enable-background="new -619.7 450.3 42 42" xml:space="preserve" width="42px" height="42px">
<path d="M-600.7,462.5v18.3c0,0.2,0.1,0.3,0.2,0.5s0.3,0.2,0.4,0.2h15.9c1.6,0,3-0.6,4.1-1.7s1.7-2.5,1.7-4.1s-0.6-3-1.7-4.1
	s-2.5-1.7-4.1-1.7c-0.8,0-1.5,0.1-2.2,0.4c-0.1-1.7-0.7-3.3-1.6-4.7s-2.2-2.6-3.7-3.4s-3.1-1.3-4.9-1.3c-1,0-2.2,0.3-3.6,0.8
	C-600.5,461.9-600.6,462.1-600.7,462.5z M-603.7,477.8c0.2-1.2,0.2-2.1,0.2-2.6c0-0.6-0.1-2.3-0.3-5.2s-0.4-4.8-0.6-5.9
	c0-0.2-0.1-0.3-0.3-0.5s-0.3-0.2-0.5-0.2c-0.2,0-0.4,0.1-0.5,0.2s-0.3,0.3-0.3,0.5c-0.2,1.1-0.4,3.1-0.6,5.9s-0.3,4.5-0.3,5.2
	c0,0.5,0.1,1.4,0.2,2.6s0.4,2.3,0.6,3.2c0.1,0.2,0.2,0.4,0.3,0.5s0.4,0.2,0.6,0.2c0.2,0,0.4-0.1,0.6-0.2s0.3-0.3,0.3-0.5
	C-604,480-603.8,479-603.7,477.8z M-609.7,477.9c0.2-1.3,0.2-2.2,0.2-2.6c0-0.5-0.1-1.7-0.3-3.5s-0.4-3.2-0.6-4.3
	c-0.1-0.2-0.2-0.4-0.3-0.5s-0.3-0.2-0.5-0.2c-0.2,0-0.4,0.1-0.5,0.2s-0.3,0.3-0.3,0.5c-0.2,1.1-0.4,2.5-0.6,4.3s-0.3,2.9-0.3,3.5
	c0,0.4,0.1,1.3,0.3,2.6s0.4,2.3,0.5,2.9c0.2,0.5,0.5,0.8,1,0.8c0.5,0,0.8-0.3,1-0.8C-610.1,480.2-609.9,479.2-609.7,477.9z
	 M-618.8,473.9c-0.2,0.8-0.2,1.4-0.2,1.7s0.1,0.9,0.2,1.7s0.4,1.6,0.6,2.3c0.1,0.4,0.4,0.6,0.9,0.6c0.5,0,0.8-0.2,0.9-0.6
	c0.2-0.7,0.4-1.4,0.6-2.3s0.2-1.4,0.2-1.7s-0.1-0.9-0.2-1.7s-0.4-1.6-0.6-2.3c-0.1-0.4-0.4-0.7-0.9-0.7c-0.5,0-0.8,0.2-0.9,0.7
	C-618.4,472.3-618.6,473-618.8,473.9z"/>
</svg>
