<svg version="1.1" xmlns="http://www.w3.org/2000/svg" xmlns:xlink="http://www.w3.org/1999/xlink" x="0px" y="0px"
	 viewBox="-620 453 42 42" enable-background="new -620 453 42 42" xml:space="preserve" width="42px" height="42px">
<path d="M-606.8,455.6c-2.5,1.1-4.6,2.5-6.4,4.3s-3.2,3.9-4.3,6.4s-1.6,5.1-1.6,7.8s0.5,5.3,1.6,7.8s2.5,4.6,4.3,6.4
	s3.9,3.2,6.4,4.3s5.1,1.6,7.8,1.6s5.3-0.5,7.8-1.6s4.6-2.5,6.4-4.3s3.2-3.9,4.3-6.4s1.6-5.1,1.6-7.8s-0.5-5.3-1.6-7.8
	s-2.5-4.6-4.3-6.4s-3.9-3.2-6.4-4.3s-5.1-1.6-7.8-1.6S-604.3,454.5-606.8,455.6z M-587.1,471.8c-3.9-2.3-8.9-3.4-15-3.4
	c-2.8,0-5.5,0.4-8.2,1.1c-0.2,0.1-0.4,0.1-0.6,0.1c-0.5,0-0.9-0.2-1.3-0.6s-0.5-0.8-0.5-1.3c0-0.4,0.1-0.8,0.4-1.1s0.6-0.6,1-0.7
	c2.8-0.8,5.9-1.2,9.2-1.2c7,0,12.6,1.3,17,3.9c0.6,0.3,0.9,0.9,0.9,1.6c0,0.5-0.2,1-0.6,1.3s-0.8,0.5-1.3,0.5
	C-586.6,472-586.9,471.9-587.1,471.8z M-587.1,476.6c0,0.5-0.1,0.8-0.4,1.1s-0.7,0.4-1.1,0.4c-0.3,0-0.5-0.1-0.8-0.2
	c-3.7-2.2-8-3.3-13-3.3c-2.5,0-4.8,0.3-6.9,1c-0.2,0.1-0.4,0.1-0.5,0.1c-0.4,0-0.8-0.2-1.1-0.5s-0.5-0.7-0.5-1.1
	c0-0.3,0.1-0.6,0.3-0.9s0.5-0.5,0.8-0.5c2.4-0.8,5.1-1.2,7.9-1.2c5.5,0,10.4,1.3,14.6,3.8C-587.4,475.6-587.1,476-587.1,476.6z
	 M-589.6,482.3c0,0.3-0.1,0.6-0.4,0.8s-0.5,0.3-0.9,0.3c-0.2,0-0.5-0.1-0.7-0.2c-2.9-1.8-6.3-2.7-10.1-2.8c-2.3,0-4.8,0.2-7.5,0.8
	c-0.1,0-0.2,0-0.3,0c-0.3,0-0.6-0.1-0.9-0.4s-0.4-0.5-0.4-0.9c0-0.3,0.1-0.5,0.3-0.8s0.4-0.4,0.7-0.4c2.9-0.6,5.4-0.9,7.6-0.9
	c4.5,0,8.5,1,11.9,3.1C-589.8,481.4-589.6,481.8-589.6,482.3z"/>
</svg>
