<svg xmlns="http://www.w3.org/2000/svg" viewBox="-620 453 42 42" width="42" height="42"><path d="M-606.8 455.6c-2.5 1.1-4.6 2.5-6.4 4.3s-3.2 3.9-4.3 6.4-1.6 5.1-1.6 7.8.5 5.3 1.6 7.8 2.5 4.6 4.3 6.4 3.9 3.2 6.4 4.3 5.1 1.6 7.8 1.6 5.3-.5 7.8-1.6 4.6-2.5 6.4-4.3 3.2-3.9 4.3-6.4 1.6-5.1 1.6-7.8-.5-5.3-1.6-7.8-2.5-4.6-4.3-6.4-3.9-3.2-6.4-4.3-5.1-1.6-7.8-1.6-5.3.5-7.8 1.6zm19.7 16.2c-3.9-2.3-8.9-3.4-15-3.4-2.8 0-5.5.4-8.2 1.1-.2.1-.4.1-.6.1-.5 0-.9-.2-1.3-.6s-.5-.8-.5-1.3c0-.4.1-.8.4-1.1s.6-.6 1-.7c2.8-.8 5.9-1.2 9.2-1.2 7 0 12.6 1.3 17 3.9.6.3.9.9.9 1.6 0 .5-.2 1-.6 1.3s-.8.5-1.3.5-.8-.1-1-.2zm0 4.8c0 .5-.1.8-.4 1.1s-.7.4-1.1.4c-.3 0-.5-.1-.8-.2-3.7-2.2-8-3.3-13-3.3-2.5 0-4.8.3-6.9 1-.2.1-.4.1-.5.1-.4 0-.8-.2-1.1-.5s-.5-.7-.5-1.1c0-.3.1-.6.3-.9s.5-.5.8-.5c2.4-.8 5.1-1.2 7.9-1.2 5.5 0 10.4 1.3 14.6 3.8.4.3.7.7.7 1.3zm-2.5 5.7c0 .3-.1.6-.4.8s-.5.3-.9.3c-.2 0-.5-.1-.7-.2-2.9-1.8-6.3-2.7-10.1-2.8-2.3 0-4.8.2-7.5.8h-.3c-.3 0-.6-.1-.9-.4s-.4-.5-.4-.9c0-.3.1-.5.3-.8s.4-.4.7-.4c2.9-.6 5.4-.9 7.6-.9 4.5 0 8.5 1 11.9 3.1.5.5.7.9.7 1.4z"/></svg>