<svg xmlns="http://www.w3.org/2000/svg" viewBox="-620 448 42 42" width="42" height="42"><path d="M-619 456.6c1.1 1.7 2.5 3.1 4.1 4.3v1.1c0 1.8.2 3.7.7 5.5s1.1 3.6 2 5.4 2 3.4 3.3 4.9 2.9 2.8 4.6 4 3.6 2 5.8 2.7 4.5 1 6.9 1c4.9 0 9.1-1.1 12.6-3.3-.6.1-1.2.1-2 .1-1.8 0-3.6-.4-5.4-1.1s-3.4-1.6-4.8-2.8c1.8 0 3.3-.6 4.8-1.6s2.4-2.4 2.9-4.1c-.5.1-1.1.2-1.5.2-.8 0-1.5-.1-2.2-.3 1.9-.4 3.5-1.3 4.7-2.8s1.9-3.2 1.9-5.2v-.1c-1.2.6-2.4 1-3.7 1 1.1-.8 2-1.7 2.7-2.9s1-2.5 1-3.9c0-1.3-.4-2.7-1.1-4-2.1 2.5-4.5 4.5-7.5 5.9s-6.1 2.3-9.4 2.5c.1-.5.2-1.1.2-1.9 0-2.3-.8-4.2-2.4-5.8s-3.5-2.4-5.8-2.4-4.3.9-6 2.6c-1.9-.4-3.6-1-5.2-2 .6 2 1.8 3.5 3.6 4.6-1.7-.5-3.3-.9-4.8-1.6z"/></svg>