<svg version="1.1" xmlns="http://www.w3.org/2000/svg" xmlns:xlink="http://www.w3.org/1999/xlink" x="0px" y="0px" viewBox="-620 448 42 42" xml:space="preserve" width="42px" height="42px">
<path d="M-619,456.6c1.1,1.7,2.5,3.1,4.1,4.3v1.1c0,1.8,0.2,3.7,0.7,5.5s1.1,3.6,2,5.4s2,3.4,3.3,4.9s2.9,2.8,4.6,4s3.6,2,5.8,2.7
	s4.5,1,6.9,1c4.9,0,9.1-1.1,12.6-3.3c-0.6,0.1-1.2,0.1-2,0.1c-1.8,0-3.6-0.4-5.4-1.1s-3.4-1.6-4.8-2.8c1.8,0,3.3-0.6,4.8-1.6
	s2.4-2.4,2.9-4.1c-0.5,0.1-1.1,0.2-1.5,0.2c-0.8,0-1.5-0.1-2.2-0.3c1.9-0.4,3.5-1.3,4.7-2.8s1.9-3.2,1.9-5.2v-0.1
	c-1.2,0.6-2.4,1-3.7,1c1.1-0.8,2-1.7,2.7-2.9s1-2.5,1-3.9c0-1.3-0.4-2.7-1.1-4c-2.1,2.5-4.5,4.5-7.5,5.9s-6.1,2.3-9.4,2.5
	c0.1-0.5,0.2-1.1,0.2-1.9c0-2.3-0.8-4.2-2.4-5.8s-3.5-2.4-5.8-2.4c-2.3,0-4.3,0.9-6,2.6c-1.9-0.4-3.6-1-5.2-2c0.6,2,1.8,3.5,3.6,4.6
	C-615.9,457.7-617.5,457.3-619,456.6z"/>
</svg>
