<svg xmlns="http://www.w3.org/2000/svg" viewBox="0 0 209.4 34.2" width="209" height="34"><title>Viacom</title><path class="site-logo__viacom" d="M20 .2v14.7c0 1.1.6 2 2 2h2.2V.2H20zm73.7 11.9l-3.2-9.6c-.3-1-.8-2.3-3-2.3h-5v16.6h1.7c1.3 0 2.1-.6 2.1-2V3.2h.1l4.9 13.6h4.6l4.9-13.6h.1v11.6c0 1.2.6 2 2.1 2h2.1V.2h-4.7c-1.7 0-2.7.5-3.2 2-.5 1.1-3.4 9.9-3.5 9.9zm-84.6.2S5.4 2.2 5.2 1.6C4.9.8 4.6.2 3.2.2H0l6.5 16.6h4.7L18 .2h-2.8c-1.2 0-1.7.5-2 1.3L9.1 12.3zm46.7-8.6H58c1.6 0 2.5-.6 2.5-2.1V.2h-6.2c-5.2 0-7.7 3.2-7.7 8.3 0 6.4 3.8 8.3 7.7 8.3h6.2v-1.4c0-1.5-1-2.1-2.4-2.1h-2.3c-2.5 0-4.7-.9-4.7-4.8 0-3.4 1.7-4.8 4.7-4.8m-16.6 6.9c0 1.7-.7 3-2.9 3h-2.2c-1.5 0-2.5-.4-2.5-1.8 0-1.3.9-1.8 2.5-1.8h5.1v.6zM37.2.2h-8.7v1.3c0 1.1.6 2.2 2.1 2.2h5.6c2.3 0 3.2.8 3.2 2.8v.3h-5.9c-4.4 0-6 2.1-6 5 0 3.5 2.2 5.1 6 5.1h3.9c5.1 0 6.2-2.7 6.2-6.3V6.4C43.5 2.6 42.2.2 37.2.2m33.2 13.3c2.8 0 4.4-2 4.4-5 0-3.1-1.7-5-4.4-5-2.8 0-4.4 2-4.4 5 0 2.9 1.6 5 4.4 5m0-13.5c5.2 0 8.9 3 8.9 8.5 0 5.3-3.4 8.5-8.9 8.5-5.3 0-8.9-3.1-8.9-8.5 0-5.3 3.6-8.5 8.9-8.5"/><path class="site-logo__supporting" d="M2.7 20.7h206v.3H2.7zM111.1.2h.8v6.5h-.8zm9.7 6.5c-.1 0-.2 0-.3-.1l-3.6-4.9v5h-.8V.6c0-.2.2-.4.4-.4.1 0 .2 0 .3.2l3.6 4.9v-5h.8v6.1c0 .2-.2.3-.4.3m6.4-5.7v5.7h-.9V1h-2.1V.2h5V1m3.5 5.7c-.2 0-.4-.2-.4-.4V.6c0-.2.2-.4.4-.4h3.8V1h-3.4v2h2.8c.2 0 .4.2.4.4s-.2.4-.4.4h-2.8V6h3.4v.8h-3.8zM143.3 1h-2.1v2.3h2.1c.6 0 1.2-.4 1.2-1.2 0-.7-.6-1.1-1.2-1.1m1.4 5.7l-1.5-2.6h-2v2.6h-.8V.6c0-.2.2-.4.4-.4h2.6c1.2 0 2 .9 2 1.9 0 .8-.5 1.6-1.3 1.8l1.6 2.7h-1zm9.1 0c-.1 0-.2 0-.3-.1l-3.6-4.9v5h-.8V.6c0-.2.2-.4.4-.4.1 0 .2 0 .3.2l3.6 4.9v-5h.8v6.1c0 .2-.2.3-.4.3m6.4-5.3l-1.1 2.9h2.2l-1.1-2.9zm2 5.3l-.6-1.7h-2.7l-.6 1.7h-.9l2.5-6.3c.1-.2.2-.3.4-.3s.3.1.4.3l2.5 6.3h-1zm5.6-5.7v5.7h-.8V1h-2.1V.2h5V1m3.2-.8h.8v6.5h-.8zm7.6.7c-1.3 0-2.3 1.1-2.3 2.6s.9 2.6 2.3 2.6c1.3 0 2.3-1.1 2.3-2.6s-.9-2.6-2.3-2.6m0 5.9c-1.8 0-3.1-1.5-3.1-3.4s1.3-3.3 3.1-3.3 3.1 1.5 3.1 3.3c0 1.9-1.3 3.4-3.1 3.4m11.3-.1c-.1 0-.2 0-.3-.1l-3.6-4.9v5h-.8V.6c0-.2.2-.4.4-.4.1 0 .2 0 .3.2l3.6 4.9v-5h.8v6.1c0 .2-.2.3-.4.3m6.4-5.3l-1.1 2.9h2.2l-1.1-2.9zm2 5.3l-.6-1.7h-2.7l-.6 1.7h-.9l2.5-6.3c.1-.2.2-.3.4-.3s.3.1.4.3l2.5 6.3h-1zm4.6 0c-.2 0-.4-.2-.4-.4V.2h.8v5.7h3.4v.8H205zm-88.9 10.1V12l-1.8 3c-.1.1-.2.2-.3.2-.2 0-.3-.1-.3-.2l-1.8-3v4.8h-.8v-6.1c0-.2.2-.4.4-.4.1 0 .3.1.3.2l2.2 3.6 2.2-3.6c.1-.1.2-.2.4-.2s.4.2.4.4v6.1h-.9zm12.8-5.7h-.7V16h.7c1.5 0 2.8-.8 2.8-2.5 0-1.5-1.3-2.4-2.8-2.4m-.1 5.7h-1c-.2 0-.4-.2-.4-.4v-5.6c0-.2.2-.4.4-.4h1c2.3 0 3.8 1.3 3.8 3.2s-1.6 3.2-3.8 3.2m6.1-6.5h.8v6.5h-.8zm5.9 1.3l-1.1 2.9h2.2l-1.1-2.9zm2 5.2l-.6-1.7h-2.7l-.6 1.7h-.9l2.5-6.3c.1-.2.2-.3.4-.3s.3.1.4.3l2.5 6.3h-1zm11 .1c-.1 0-.2 0-.3-.1l-3.6-4.9v5h-.8v-6.1c0-.2.2-.4.4-.4.1 0 .2 0 .3.2l3.6 4.9v-4.9h.8v6.1s-.2.2-.4.2m4.1-.1c-.2 0-.4-.2-.4-.4v-5.6c0-.2.2-.4.4-.4h3.8v.8h-3.4v2h2.8c.2 0 .4.2.4.4s-.2.4-.4.4h-2.8v2.2h3.4v.8h-3.8zm8.9-5.7v5.7h-.8v-5.7h-2.1v-.8h5v.8m7.8 5.5c-.1.2-.2.3-.4.3s-.3-.1-.4-.3l-1.4-4.7-1.4 4.7c0 .2-.2.3-.4.3s-.3-.1-.4-.3l-1.6-6.2h.8l1.3 4.8 1.4-4.6c0-.2.2-.3.4-.3s.3.1.4.3l1.4 4.6 1.3-4.8h.8l-1.8 6.2zm6.9-5.6c-1.3 0-2.3 1.1-2.3 2.6s.9 2.6 2.3 2.6c1.3 0 2.3-1.1 2.3-2.6-.1-1.5-1-2.6-2.3-2.6m0 5.9c-1.8 0-3.1-1.5-3.1-3.4s1.3-3.3 3.1-3.3 3.1 1.5 3.1 3.3c0 2-1.3 3.4-3.1 3.4m8.6-5.8h-2.1v2.3h2.1c.6 0 1.2-.4 1.2-1.2 0-.7-.5-1.1-1.2-1.1m1.4 5.7l-1.5-2.6h-2v2.6h-.8v-6.1c0-.2.2-.4.4-.4h2.6c1.2 0 2 .9 2 1.9 0 .8-.5 1.6-1.3 1.8l1.6 2.7h-1zm7.7 0l-3.1-2.9v2.9h-.9v-6.5h.9v2.8l2.9-2.8h1.1l-3.3 3.2 3.5 3.3m4.2.1c-.8 0-1.7-.2-2.5-.5l.2-.7c.7.2 1.5.4 2.3.4 1 0 1.6-.4 1.6-.9s-.4-.7-1.9-1.4c-1.4-.7-2-1.2-2-2 0-1.1.8-1.6 2.4-1.6.6 0 1.6.1 2.2.3l-.1.7c-.6-.2-1.4-.3-2-.3-1.1 0-1.5.2-1.5.8 0 .5.3.7 1.8 1.5 1.6.8 2 1.2 2 2-.1 1.2-1.2 1.7-2.5 1.7m-85.9-.1c-.2 0-.4-.2-.4-.4v-5.6c0-.2.2-.4.4-.4h3.8v.8h-3.4v2h2.8c.2 0 .4.2.4.4s-.2.4-.4.4h-2.8v2.2h3.4v.8h-3.8zM5.7 28.9l-.9 2.5h1.9l-1-2.5zm1.9 5.2L7 32.5H4.4l-.6 1.6H2.4l2.7-6.8c.1-.2.3-.4.5-.4s.4.1.5.4l2.7 6.8H7.6zm4.7-5.9h-.5v4.7h.5c1.4 0 2.7-.7 2.7-2.3 0-1.7-1.3-2.4-2.7-2.4m-.3 5.9h-.9c-.4 0-.7-.3-.7-.7v-5.8c0-.4.3-.7.7-.7h.9c2.7 0 4.3 1.5 4.3 3.6s-1.6 3.6-4.3 3.6m8.7-.3c-.1.2-.3.4-.6.4-.2 0-.5-.1-.5-.4L17 27h1.3l1.9 5 1.9-5h1.3l-2.7 6.8zm4.7.3c-.4 0-.7-.3-.7-.7v-5.8c0-.4.3-.7.7-.7h4.2v1.2H26v1.7h2.7c.3 0 .6.3.6.6s-.3.6-.6.6H26v1.9h3.6v1.2h-4.2zm9.7-6H33v2.1h2.1c.6 0 1.1-.4 1.1-1.1 0-.6-.5-1-1.1-1m1.3 6l-1.5-2.7H33v2.7h-1.3v-6.4c0-.4.3-.7.7-.7h3c1.3 0 2.2 1 2.2 2.2 0 .9-.5 1.7-1.3 2l1.6 2.9h-1.5zm6-5.9v5.9h-1.3v-5.9h-2.2V27h5.8v1.2m1.6-1.2h1.3v7.1h-1.3zm6 7.2c-.9 0-1.8-.2-2.7-.6l.2-1.1c.8.3 1.7.5 2.5.5 1 0 1.4-.3 1.4-.8 0-.4-.5-.7-1.9-1.4-1.3-.6-2-1.2-2-2.2 0-1.3.8-1.9 2.7-1.9.7 0 1.8.2 2.4.4l-.2 1.1c-.7-.1-1.5-.2-2.2-.2-1 0-1.4.2-1.4.6 0 .5.3.6 1.8 1.3 1.5.7 2.1 1 2.1 2.2.1 1.4-1.1 2.1-2.7 2.1m4.8-7.2h1.3v7.1h-1.3zm9.1 7.1c-.2 0-.4 0-.6-.2l-3.4-4.6v4.8h-1.3v-6.5c0-.4.3-.7.7-.7.2 0 .4.1.5.2l3.4 4.6V27h1.3v6.5c-.1.3-.3.6-.6.6m6 .1c-2 0-3.6-1.5-3.6-3.7 0-2.3 1.6-3.7 3.7-3.7.9 0 1.6.2 2.3.4l-.3 1.1c-.5-.2-1.2-.3-1.9-.3-1.5 0-2.5 1-2.5 2.5 0 1.4.9 2.4 2.3 2.4.7 0 1.2-.2 1.6-.6v-1.7h1.3v2.1c-.5.8-1.6 1.5-2.9 1.5m10.1-5.3l-.9 2.5h1.9l-1-2.5zm1.9 5.2l-.6-1.6H81l-.6 1.6h-1.3l2.7-6.8c.1-.2.3-.4.5-.4s.4.1.5.4l2.7 6.8h-1.3zm8.3 0c-.2 0-.4 0-.6-.2l-3.4-4.6v4.8h-1.3v-6.5c0-.4.3-.7.7-.7.2 0 .4.1.5.2l3.4 4.6V27H93v6.5c0 .3-.2.6-.5.6m4.7-5.9h-.5v4.7h.5c1.4 0 2.7-.7 2.7-2.3 0-1.7-1.3-2.4-2.7-2.4m-.2 5.9h-.9c-.4 0-.7-.3-.7-.7v-5.8c0-.4.3-.7.7-.7h.9c2.7 0 4.3 1.5 4.3 3.6-.1 2.1-1.7 3.6-4.3 3.6m12.1-3.1h-2v2h2c.6 0 1-.4 1-1s-.4-1-1-1m-.4-2.9h-1.6V30h1.5c.7 0 1-.4 1-1 .1-.6-.3-.9-.9-.9m.5 6h-2.7c-.4 0-.7-.3-.7-.7v-5.8c0-.4.3-.7.7-.7h2.2c1.4 0 2.4.7 2.4 1.9 0 .6-.3 1.1-.7 1.4.7.3 1.2.9 1.2 1.7-.1 1.3-1.1 2.2-2.4 2.2m7.7-6h-2.1v2.1h2.1c.6 0 1.1-.4 1.1-1.1 0-.6-.5-1-1.1-1m1.2 6l-1.5-2.7h-1.9v2.7h-1.3v-6.4c0-.4.3-.7.7-.7h3c1.3 0 2.2 1 2.2 2.2 0 .9-.5 1.7-1.3 2l1.6 2.9h-1.5zm6.1-5.2l-.9 2.5h1.9l-1-2.5zm1.9 5.2l-.6-1.6h-2.6l-.6 1.6H121l2.7-6.8c.1-.2.3-.4.5-.4s.4.1.5.4l2.7 6.8h-1.3zm8.2 0c-.2 0-.4 0-.6-.2l-3.4-4.6v4.8H129v-6.5c0-.4.3-.7.7-.7.2 0 .4.1.5.2l3.4 4.6V27h1.3v6.5c0 .3-.2.6-.6.6m4.8-5.9h-.5v4.7h.5c1.4 0 2.7-.7 2.7-2.3 0-1.7-1.3-2.4-2.7-2.4m-.2 5.9h-.9c-.4 0-.7-.3-.7-.7v-5.8c0-.4.3-.7.7-.7h.9c2.7 0 4.3 1.5 4.3 3.6-.1 2.1-1.7 3.6-4.3 3.6m11.1.1c-.9 0-1.8-.2-2.7-.6l.2-1.1c.8.3 1.7.5 2.5.5 1 0 1.4-.3 1.4-.8 0-.4-.5-.7-1.9-1.4-1.3-.6-2-1.2-2-2.2 0-1.3.8-1.9 2.7-1.9.7 0 1.8.2 2.4.4l-.2 1.1c-.8-.2-1.6-.3-2.2-.3-1 0-1.4.2-1.4.6 0 .5.3.6 1.8 1.3 1.5.7 2.1 1 2.1 2.2 0 1.5-1.1 2.2-2.7 2.2m7.7-6.1c-1.3 0-2.2 1-2.2 2.5 0 1.4.8 2.5 2.2 2.5 1.3 0 2.2-1 2.2-2.5-.1-1.5-.9-2.5-2.2-2.5m0 6.1c-2 0-3.5-1.6-3.5-3.7 0-2 1.4-3.7 3.5-3.7 2 0 3.5 1.6 3.5 3.7-.1 2.1-1.5 3.7-3.5 3.7m6-.1c-.3 0-.6-.3-.6-.7V27h1.3v5.9h3.6v1.2h-4.3zm8.5.1c-1.8 0-3-1.4-3-3V27h1.3v4.3c0 1.1.7 1.8 1.7 1.8s1.7-.7 1.7-1.8V27h1.3v4.3c-.1 1.5-1.2 2.9-3 2.9m8-6v5.9h-1.3v-5.9h-2.3V27h5.8v1.2M184 27h1.3v7.1H184zm6.7 1.1c-1.3 0-2.2 1-2.2 2.5 0 1.4.8 2.5 2.2 2.5 1.3 0 2.2-1 2.2-2.5s-.8-2.5-2.2-2.5m0 6.1c-2 0-3.5-1.6-3.5-3.7 0-2 1.4-3.7 3.5-3.7 2 0 3.5 1.6 3.5 3.7s-1.4 3.7-3.5 3.7m10.7-.1c-.2 0-.4 0-.6-.2l-3.4-4.6v4.8h-1.3v-6.5c0-.4.3-.7.7-.7.2 0 .4.1.5.2l3.4 4.6V27h1.3v6.5c0 .3-.3.6-.6.6m5.2.1c-.9 0-1.8-.2-2.7-.6l.2-1.1c.8.3 1.7.5 2.5.5 1 0 1.4-.3 1.4-.8 0-.4-.5-.7-1.9-1.4-1.3-.6-2-1.2-2-2.2 0-1.3.8-1.9 2.7-1.9.7 0 1.8.2 2.4.4l-.2 1.1c-.8-.2-1.6-.3-2.2-.3-1 0-1.4.2-1.4.6 0 .5.3.6 1.8 1.3 1.5.7 2.1 1 2.1 2.2.1 1.5-1.1 2.2-2.7 2.2"/></svg>
